<?xml version="1.0" encoding="UTF-8"?>
<svg id="Layer_1" data-name="Layer 1" xmlns="http://www.w3.org/2000/svg" viewBox="0 0 900 500">
  <defs>
    <style>
      .cls-1 {
        fill: none;
      }

      .cls-2 {
        fill: #010101;
      }
    </style>
  </defs>
  <path class="cls-1" d="M388.35,390.82c8.24,7.28,17.92,12.03,28.03,15.92,4.71,1.7,9.64,2.73,14.64,3.05v-.02h.05s0-.01,0-.02h-.02c.07-.64-.13-1.3-.55-1.79-1.79-3.18-3.21-6.57-4.23-10.08-3.37-11.92-1.55-23.17,4.66-33.72,.85-1.27,1.08-2.86,.6-4.31-.78-2.59-1.31-5.25-1.86-7.89-2.32-11.06-3.02-22.28-2.94-33.55,0-1.48-.28-2.39-1.81-2.96h.02c-1.91-.76-3.69-1.81-5.25-3.15-.35-.29-.64-.51-.89-.63-.15-.06-.29-.1-.41-.08-.33,.03-.56,.41-.74,1.32-.48,2.53-2.02,4.56-4.25,5.34-.3,.1-.61,.19-.95,.24-1.86,.31-3.77,.53-5.67,.5-1.91-.03-3.82-.32-5.68-1.03-1.33-.6-2.63-1.28-3.88-2.02-.29-.2-.61-.36-.95-.49-5.07-1.44-7.62-4.58-7.87-9.59h0c-.4-8.03,4.68-15.92,11.93-19.26,.07-.03,.13-.06,.2-.09,.25-.11,.51-.22,.77-.32,.23-.09,.46-.17,.69-.26,.15-.05,.3-.12,.45-.17,.42-.13,.84-.25,1.25-.36-.4,.11-.8,.22-1.2,.35-.17,.05-.33,.12-.5,.18-.23,.08-.47,.17-.69,.26-.26,.1-.52,.21-.77,.32-.07,.03-.13,.06-.2,.09-4.51,2.09-8.15,5.95-10.17,10.49,2.34-5.25,6.84-9.58,12.34-11.33,.4-.13,.81-.24,1.2-.35,6.07-1.6,11.98-.72,17.77,1.64,2.07,.85,4.1,1.82,6.34,2.83v-.04s.03,.02,.04,.02c-.02-.01-.03-.02-.04-.02,.67-6.95,1.17-13.63,1.99-20.28,1.61-12.11,2.14-24.34,1.56-36.53-.25-4.53-1.06-9-3.62-12.93h0c-1.2-2.06-3.5-3.26-5.88-3.07-1.76,.07-3.42,.4-5.01,.92-2.69,.88-5.15,2.29-7.52,3.9-12.89,8.76-22.65,20.2-29.72,34.15-10.09,19.89-16.28,40.7-17.09,63.11v.02c-.73,17.38,2.86,34.67,10.44,50.33,3.85,7.96,8.63,15.4,15.4,21.38Z"/>
  <path class="cls-1" d="M466.47,470.81c.52-.4,.82-.73,.86-1.05,.05-.32-.17-.65-.67-1.09-2.9-2.46-11.87-3.56-15.75,1.2-4.93,6-6.95,13.03-7.9,20.57-.02,.11-.02,.21-.02,.3,0,.7,.37,.96,1.2,.95h0c2.27-.05,4.54,0,6.81,.01-2.27,0-4.54-.04-6.81,0-.84,0-1.19-.26-1.2-.96,0,0,0,.02,0,.03-.01,.7,.35,.97,1.2,.97,2.27-.05,4.54,0,6.81,.01,1.27,0,2.53-.03,3.8-.03,.53,0,1.08,.01,1.62,.01,.31,0,.62,.01,.94,.02l.02,.03c1.13,.04,1.46-.25,1.42-1.19-.01-.14-.02-.29-.04-.45-.33-2.47-.31-4.79,.06-6.98v-.02c.07-.43,.16-.86,.26-1.28,.02-.1,.06-.19,.08-.29,.09-.33,.17-.65,.27-.98,.08-.25,.18-.5,.27-.76,.05-.15,.1-.31,.16-.46,1.27-3.23,3.46-6.09,6.62-8.56Zm-7.71,19.73c.05,.94-.29,1.23-1.42,1.19-.31-.02-.62-.02-.94-.02h.94c1.12,.05,1.46-.24,1.42-1.17Zm1.08-11.21c1.28-3.23,3.47-6.1,6.62-8.57,.51-.4,.82-.72,.86-1.04-.04,.32-.33,.63-.86,1.05-3.14,2.47-5.34,5.33-6.62,8.56Z"/>
  <polygon class="cls-1" points="490.66 129.76 490.67 129.76 490.67 129.75 490.66 129.76"/>
  <path class="cls-1" d="M445.78,472.19c.73-1.19,.42-1.79-.52-2.51-2.3-1.75-5.85-2.04-8.93-1.15-1.08,.31-2.08,.78-2.97,1.37-.62,.42-1.2,.89-1.66,1.44-4.53,5.35-6.17,11.58-6.33,18.44,0,1.66,.62,1.98,2.02,1.93h0s.04,.01,.06,0c1.86-.06,3.74,0,5.6,0-1.86,0-3.74-.04-5.6,0-.02,0-.04,0-.06,0h0s-.02,0-.03,0c-1.4,.05-2.06-.27-2.02-1.93,.1-4.7,.91-9.12,2.88-13.17-1.97,4.05-2.78,8.48-2.89,13.19-.04,1.66,.62,1.98,2.02,1.93,1.89-.04,3.8,0,5.69,0h.03v-.02c1.04,0,2.08-.03,3.12-.03,.75,0,1.5,0,2.25,.02,.18,.01,.35,.01,.52,.01,.31,.01,.59,0,.83-.04v-.02c.69-.11,1.04-.51,.99-1.62-.32-6.52,1.8-12.35,5.01-17.86Zm-6.81,19.51c-.18-.01-.35-.01-.52-.01h.55c.3,.01,.56,.01,.8-.03-.23,.04-.51,.05-.83,.04Z"/>
  <path class="cls-1" d="M361.21,290.77c-1.55-.71-3.11-1.33-4.68-1.84,1.57,.51,3.12,1.12,4.65,1.83h.01c1.29,.6,1.7,1.39,1.38,2.76-1.23,5.34-2.07,10.75-2.54,16.21-.06,.66-.21,.97-.44,1.05,.22-.09,.36-.39,.41-1.04,.46-5.46,1.31-10.87,2.54-16.21,.33-1.37-.09-2.17-1.38-2.75-6.17-2.83-12.59-4.22-19.34-3.1-2.07,.36-4.06,1.19-5.84,2.39-5.38,3.6-8.94,10.44-8.01,16.73,.33,2.99,2.21,5.59,4.94,6.85v-.03s.03,.01,.03,.01c-.69-4.74-1.97-9.11,.59-13.24,0-.03,0-.05,0-.08,0,.03,0,.05,0,.08,.01-.02,.03-.05,.04-.07-.53,3.49-.24,7.05,.84,10.42,.49,1.62,1.23,2.94,2.26,3.93,1.04,.99,2.37,1.65,4.04,1.99,.27,.05,.55,.15,.83,.23-.28-.07-.57-.16-.84-.22-.41-.08-.81-.19-1.18-.31,.38,.13,.78,.23,1.21,.32,.26,.06,.55,.15,.84,.22,.36,.11,.72,.15,1.01-.04,.07-.04,.13-.1,.19-.17,.02-.01,.02-.03,.02-.03,.49-.64-.24-1.22-.52-1.78-.87-1.78-1.23-3.55-1.24-5.3-.02-2.51,.66-5,1.63-7.46,.18,1.4,.24,2.81,.18,4.22-.15,2.48,.27,4.97,1.22,7.27,1.37,3.11,4.22,3.99,7.01,2.13h.01c.09-.07,.17-.14,.25-.2,.14-.11,.29-.21,.42-.33,.05-.04,.09-.09,.14-.14,.15-.14,.3-.29,.43-.45,.04-.05,.08-.11,.12-.17,.12-.16,.24-.31,.34-.48,.13-.2,.24-.42,.34-.64,.01-.01,.02-.03,.02-.04,.45-.99,.68-2.09,.8-3.2,.22-2.2-.31-4.28-1.29-6.64,1.67,.73,1.93,1.92,2.34,2.92,.73,1.81,2.11,2.94,3.58,4.04,.43,.32,.78,.5,1.03,.4h.01c.23-.08,.38-.38,.44-1.05,.46-5.46,1.31-10.87,2.54-16.21,.33-1.37-.09-2.16-1.38-2.75Zm-28.3,22.83s-.03-.01-.03-.01h0c-.73-4.76-1.97-9.14,.64-13.3h.02c-2.62,4.15-1.33,8.54-.63,13.31Zm9.83,3.06s0-.02,.02-.03v.02c-.06,.08-.13,.14-.2,.19h-.01c.07-.05,.14-.11,.19-.18Zm-.11-14.56c-.65,1.68-1.17,3.36-1.44,5.06-.13,.8-.2,1.61-.19,2.42h0c0-.81,.07-1.62,.19-2.42,.27-1.7,.79-3.4,1.44-5.09v.03Zm8.45,13.61h-.01c.09-.06,.17-.13,.26-.2-.09,.07-.16,.14-.25,.2Zm.66-.53c.05-.05,.09-.1,.14-.14,0,0-.09,.1-.14,.14Zm2.19-5.14c-.11,1.12-.34,2.22-.8,3.2,.44-.98,.66-2.06,.78-3.19h0c.23-2.26-.31-4.3-1.3-6.67,.01,.01,.02,.02,.03,.02,.98,2.36,1.51,4.44,1.29,6.64Z"/>
  <path class="cls-1" d="M479.2,62.63c.85-1.07,1.48-2.3,1.86-3.62,1.72-4.81,3.01-9.77,3.85-14.82,.91-5.72,1.11-11.42,.27-17.05,.85,5.64,.65,11.35-.27,17.09-.84,5.05-2.13,10-3.85,14.82-.37,1.32-1.01,2.55-1.86,3.61,0,0,0,0,0,.01,.86-1.07,1.49-2.3,1.86-3.62,1.72-4.81,3.01-9.77,3.85-14.82,.93-5.74,1.13-11.45,.27-17.09-.38-2.56-.98-5.11-1.82-7.63-.63-1.86-1.42-3.53-2.34-4.99-.79-1.27-1.69-2.39-2.69-3.34,.99,.95,1.89,2.06,2.68,3.33-1.47-2.34-3.28-4.14-5.41-5.38-2.5-1.45-5.42-2.13-8.73-1.95-11.69,.61-21.83,5.88-32.17,11.34,19.55,10.13,34.42,24.62,44.49,44.1Z"/>
  <path class="cls-1" d="M434.71,18.57c9.77,5.08,18.38,11.24,25.8,18.56-7.42-7.32-16.03-13.48-25.8-18.56h0Z"/>
  <path class="cls-1" d="M422.04,216.99s-.08,0-.13,0c-.22,0-.44,.03-.66,.05,.22-.02,.44-.04,.66-.05,.04,0,.08,0,.13,0Z"/>
  <path class="cls-1" d="M407.68,470.72c1.13-.86,1.06-1.33,.09-2.13-2.72-2.22-10-3.18-14.35-.02-.63,.45-1.21,1-1.69,1.63-1.47,1.92-2.67,3.92-3.65,5.99-2.07,4.38-3.19,9.07-3.9,13.96-.02,.12-.02,.22-.03,.32,0,.03,0,.07,0,.1,0,.06,0,.11,.01,.16,0,.06,0,.12,.02,.17,.01,.07,.04,.14,.06,.2,0,.02,.01,.04,.02,.06,.09,.19,.25,.32,.47,.41,0,0,.02,0,.03,0,.23,.08,.51,.11,.87,.09,2.11-.06,4.23,0,6.35,0,1.49,0,2.98-.02,4.47-.01,.14,0,.27,0,.41,0,.48,0,.97,0,1.45,.01,.48,.02,.85-.01,1.11-.13-.26,.13-.63,.17-1.14,.15-.47-.02-.94-.03-1.42-.03-.14,0-.27,0-.41,0-1.5,0-3,.03-4.51,.03h0c-2.11,0-4.23-.05-6.34,0-.35,0-.62-.04-.84-.11,0,0-.02,0-.03,0-.12-.05-.23-.1-.32-.18,.24,.23,.63,.32,1.21,.32,2.11-.04,4.22,0,6.34,0,2.11,0,4.22-.07,6.33,0,.5,.02,.88-.02,1.14-.15h.01c.45-.21,.59-.67,.47-1.6-1.01-7.84,1.45-14.36,7.78-19.25Z"/>
  <path class="cls-1" d="M380.03,491.74c-1.97-.1-3.95,0-5.92,0h0c1.97,.01,3.95-.09,5.92,.01,.53,.03,.95-.02,1.24-.17h0c-.3,.14-.7,.19-1.23,.16Z"/>
  <path class="cls-1" d="M374.14,491.68h-6.14c-.79,0-1.45,0-1.45-1.11,0,0,0,0,0,0,0,1.11,.66,1.11,1.45,1.11h6.14Z"/>
  <path class="cls-1" d="M386.74,472.61c1.08-1.82,.47-2.57-1.02-3.38-3.9-2.18-8.76-1.55-12,1.53-.01,.01-.03,.03-.03,.03-.04,.04-.07,.07-.11,.11-.3,.29-.6,.59-.89,.9-.91,.98-1.69,2-2.37,3.06-2.91,4.62-3.72,10.02-3.76,15.68,0,1.09,.66,1.11,1.45,1.11h6.14v.06c1.97,0,3.95-.08,5.92,0,.5,.02,.88-.02,1.17-.14h0c.52-.22,.74-.74,.68-1.69-.27-6.26,1.67-11.98,4.79-17.26Z"/>
  <path class="cls-1" d="M412.28,468.95c5.68-.29,9.55,2.12,11.58,7.42v-.02s0,0,0-.01h0c-2.04-5.3-5.9-7.72-11.58-7.42-1.64,.15-3.08-1.05-3.23-2.68-.01-.13-.01-.26,0-.39,0,.14,0,.29,0,.43,.15,1.63,1.6,2.83,3.23,2.68Z"/>
  <path class="cls-1" d="M439.7,464.87c2.86,.35,5.31,1.11,7.17,3.02,.92,.94,1.36,.6,2.21-.14,3.28-2.9,7-4.54,11.58-3.95,1.76,.23,3.79,2.02,4.93,1.04,1.14-1,1.26-3.45,1.84-5.26,2.57-7.92,4.91-15.88,6.06-24.15,.15-1.13,.37-1.96-1.33-1.9-6,.21-11.98-.87-17.53-3.15-1.01-.4-1.49-.4-1.87,.73h.01c-3.68,11.39-7.62,22.68-13.03,33.73l-.04,.04Z"/>
  <path class="cls-1" d="M432.95,466.84c2.74-1.34,3.98-3.42,4.88-6.02,.21-.62,.48-1.22,.73-1.82,3.84-9.32,7.24-18.83,10.66-28.24,.52-1.43,.54-2.41-.65-3.32-.18-.14-.38-.29-.63-.43-2.32-1.35-4.47-2.93-6.44-4.71-.33-.3-.65-.62-.98-.94-.14-.14-.28-.26-.42-.4-1.4-1.41-2.7-2.94-3.87-4.57-.39-.54-.8-1.06-1.21-1.52-1.07-1.21-2.23-2.1-3.64-2.49-.93-.25-1.96-.29-3.15-.06-.51,.03-1.03-.02-1.52-.14-1.56-.2-3.08-.49-4.59-.86-4.47-1.07-8.72-2.79-12.94-4.71-8.24-3.76-16.13-8.01-22.9-14-.96-.86-1.89-1.73-2.8-2.66-4.6-4.66-8.11-10.14-11.34-15.77-.05-.26-.14-.53-.28-.74-.03-.06-.08-.1-.13-.14-.02-.01-.03-.04-.05-.05-.02-.02-.05-.03-.08-.04-.07-.03-.15-.07-.25-.07h0c-.5,0-.34,.56-.43,.92h-.06c.08-.25,.02-.61,.15-.82-.14,.2-.08,.58-.16,.84-2.75,7.68-2.82,16.06-.2,23.78l-.05,.08,.24,.5,1.89,5.18,.06,.08c.02,.07,.06,.13,.11,.18,.03,.04,.11,.09,.11,.09l.06,.07,.4,.54c1.89,4.16,4.45,7.97,7.58,11.29l.36,.4,.05,.05,.38,.39c.72,1.06,1.63,1.96,2.69,2.68l.37,.36c7.38,7.08,16.37,10.14,26.41,10.65,7.7,.38,15.36-1.05,22.37-4.14,1.62-.72,3.21-1.52,4.76-2.41,.12-.07,.26-.15,.4-.23,.44-.22,.92-.35,1.25,.23,.11,.2,.15,.37,.13,.52,.03-.16,0-.34-.12-.56-.33-.58-.81-.46-1.25-.23,.45-.25,.95-.42,1.31,.2,.32,.53,.08,.86-.27,1.12-.2,.17-.44,.32-.65,.47-4.6,3.18-9.51,5.64-14.82,7.02-1.77,.46-3.6,.8-5.47,1-.59,.06-.97,.2-1.19,.46-.06,.06-.1,.13-.14,.21-.1,.23-.13,.52-.12,.9,.04,1.45-.07,2.91-.31,4.34-1.45,8.72-4.06,17.21-7.77,25.25-.77,1.45-.21,3.24,1.24,4.01,.51,.27,1.09,.38,1.66,.33,5.66-.29,9.53,2.14,11.58,7.45v.03l-.39,1.22s-.03-.05-.04-.06v.03c-.65-1.05-1.47-1.98-2.42-2.76-.85-.71-1.74-1.29-2.68-1.75-1.31-.66-2.69-1.05-4.08-1.11-2.82-.11-5.66,1.16-7.99,4.49-3.03,4.35-3.62,9.12-3.32,14.18,.03,.54,.21,.83,.49,.98-.32-.14-.52-.42-.55-1-.04-.63-.07-1.26-.07-1.88,0,.63,.03,1.26,.07,1.9,.03,.57,.23,.86,.55,1,.25,.13,.57,.16,.96,.16h15.99c1.11,0,1.48-.36,1.58-1.45h-.03c.41-4.7,.83-9.41,2.56-13.91,2.07-3.83,4.39-7.59,8.4-9.56Zm-60.21-63.28l-1.89-5.18-.24-.5,.05-.08c-2.62-7.72-2.55-16.1,.2-23.77h.06s-.01,.04-.01,.05c-2.74,7.68-2.81,16.06-.2,23.78l.24,.5,1.89,5.18h0s.01,0,.01,0c-.01,.06,.01,.16,.01,.16l-.05-.06s-.02-.06-.02-.09v-.06h-.01v.06s.02,.09,.02,.09l-.06-.08Zm.06,.09l.05,.06h0c.01,.05,.03,.09,.06,.12-.05-.05-.09-.11-.11-.18Zm38.53,26.69c-10.04-.5-19.03-3.57-26.41-10.65l-.37-.36c-1.06-.72-1.97-1.62-2.69-2.68l-.38-.39-.05-.05-.36-.4c-3.13-3.32-5.69-7.14-7.58-11.29l-.4-.54-.06-.07s.06,.04,.1,.04h.06l.4,.54c1.89,4.16,4.45,7.97,7.58,11.29l.37,.4v.05l.38,.39c.72,1.06,1.63,1.96,2.69,2.68l.37,.36c7.38,7.08,16.37,10.14,26.41,10.65h0c7.68,.38,15.32-1.04,22.31-4.11-7.01,3.09-14.67,4.52-22.37,4.14Z"/>
  <path class="cls-1" d="M427.79,220.07c-1.05-1.82-2.94-2.96-4.99-3.09,2.05,.13,3.94,1.27,4.99,3.09Z"/>
  <path class="cls-1" d="M490.65,129.74v.02s0,0,.01,0c2.77-21.84-1.06-42.58-9.52-62.75,.35-.1,.7-.15,1.02-.15-.32,.01-.65,.05-1,.15,8.46,20.18,12.31,40.91,9.52,62.74,.25-.02,.5-.06,.74-.13,1.18-.72,2.38-1.44,3.53-2.17,.5-.32,1-.66,1.49-1,.22-.14,.44-.29,.66-.44,.64-.44,1.29-.88,1.92-1.33,.88-.61,1.74-1.24,2.59-1.87,.06-.04,.12-.08,.18-.13,5.41-4.08,10.32-8.67,14.42-14.14,.05-.07,.11-.14,.16-.21,.67-.92,1.33-1.85,1.95-2.82,.08-.13,.17-.25,.25-.37,.03-.05,.06-.09,.09-.14,.22-.33,.42-.66,.62-1,.46-.77,.9-1.56,1.27-2.39,.58-1.28,1.05-2.61,1.38-3.97,1.53-6.98-1.52-12.08-6.74-16.19-8.99-7.07-19.29-11.45-30.35-14.09-.84-.19-1.71-.52-2.69-.51l-.02-.02c-.33,.01-.66,.05-1.02,.15,8.46,20.19,12.29,40.92,9.52,62.75Z"/>
  <path class="cls-1" d="M499.59,317.36c1.14,1.25,1.64,3.08,1.66,5.26-.02-2.19-.52-4.02-1.66-5.26Z"/>
  <path class="cls-1" d="M457.54,250.05c-.15,.06-.26,.15-.36,.26,.09-.11,.2-.19,.35-.25-.55,.23-.65,.87-.55,1.93,.61,6.52,1.4,13.07,2.51,19.55,.87,5.45,2.13,10.82,3.8,16.07,0,0,0,0,.01,0v.02s-.02,.02-.03,.02h0s.03,0,.03,0h0c4.27-3.26,8.29-6.84,12.03-10.71,2.32-2.25,4.23-4.86,5.66-7.76,2.67-5.46,1.42-10.14-3.62-13.51-1.17-.75-2.4-1.39-3.68-1.92v-.02c-4.66-2.03-9.64-2.82-14.61-3.71-.72-.12-1.21-.12-1.54,.02Z"/>
  <path class="cls-1" d="M303.15,160.85c-1.39-2.79-4.83-4.35-7.27-3.3,2.44-1.04,5.88,.51,7.27,3.3Z"/>
  <path class="cls-1" d="M499.59,336.85c6.66,2.9,13.23,3.21,19.95,2.23,.49-.07,.66-.26,.71-.49,.02-.06,.02-.13,.02-.19,0,.06,0,.12-.02,.18,.03-.22-.06-.49-.13-.75-.92-3.21-2.14-6.35-3.62-9.34-1.51-2.85-3.34-3.18-5.83-1.15-3.64,2.98-7.15,6.11-11.02,9.46-.02,.02-.06,.05-.06,.05Z"/>
  <path class="cls-1" d="M464.39,291.38c2.39,7.16,5.59,14.02,9.52,20.45,1.31,2.15,2.71,4.23,4.18,6.28l.03-.04c.62-.95,1.24-1.91,1.84-2.88,.18-.29,.37-.57,.55-.87,.64-1.04,1.27-2.08,1.88-3.13,.14-.24,.29-.48,.43-.73,.59-1.01,1.17-2.03,1.73-3.06,.16-.29,.33-.57,.48-.86,.72-1.32,1.41-2.64,2.1-3.98,.31-.66,.59-1.34,.85-2.01,.25-.67,.47-1.37,.66-2.07,1.44-4.94-.07-7.81-4.99-9.11-3.11-.82-6.22-1.05-9.33-.9-1.55,.07-3.1,.24-4.65,.47h0c-1.55,.23-3.09,.53-4.64,.87-1.11,.24-.93,.79-.65,1.57Z"/>
  <path class="cls-1" d="M480.44,320.75s-.02,.04-.02,.07c-.04,.27,.1,.56,.42,.94,.28,.33,.58,.64,.87,.97,.23,.26,.45,.51,.68,.77,.56,.61,1.15,1.23,1.75,1.81,.26,.25,.52,.5,.79,.75,.31,.29,.6,.6,.93,.89,3.06,2.58,5.96,5.38,9.37,7.53,.61,.4,1.29,1.17,1.94,0,1.7-3.15,3.62-6.27,3.98-9.88,.07-.67,.1-1.33,.1-1.95-.04-4.36-2.05-7.28-7.1-7v-.04h0c-5.07,.17-9.12,2.17-13.03,4.46-.39,.23-.61,.45-.68,.69Z"/>
  <path class="cls-1" d="M525.12,337.94c4.72-1.31,9.25-3.21,13.49-5.66,.41-.24,.72-.46,.77-.73,.05-.13,.03-.26-.05-.42,.08,.15,.09,.28,.04,.41,.04-.23-.09-.49-.52-.84-1.94-1.54-3.75-3.26-5.79-4.69-2.18-1.55-3.67-1.27-5.24,.89-1.25,1.67-2.21,3.51-2.89,5.46-.46,1.33-.78,2.71-.95,4.12v.06c-.32,1.6,.23,1.64,1.15,1.4Z"/>
  <path class="cls-1" d="M2.17,1.39V501.39H900V1.39H2.17ZM555.99,356.19c-6.1,13.29-16.12,23-28.42,30.51-5,3.04-10.14,5.84-15.77,7.55-1.49,.45-1.36,1.06-.81,2.18,3.37,6.71,4.56,14.31,3.37,21.73-1.34,9.37-4.52,18.26-7.64,27.16-3.48,9.94-8.53,19.23-12.15,29.12-2.21,6.02-4.34,12.1-6.34,18.19-.68,2.08-1.74,2.9-3.94,2.9-20.92-.06-41.84,0-62.76,0-18.57,0-37.16-.16-55.75-.25-1.48,0-2.78-.38-2.73-2.1,.23-6.89,.5-13.76,4.39-19.86,1.59-2.56,3.73-4.73,6.24-6.38,4.3-2.97,10.06-2.68,14.03,.73,1.06,.89,1.52,.92,2.58,0,4.84-4.28,10.29-5.16,16.31-2.28,3.34-9.96,6.57-19.83,8.07-30.19,.27-1.85-.77-1.64-1.88-1.64-9.73,.06-18.77-2.4-26.44-8.44-12.57-9.87-20.19-22.56-20.54-38.93-.09-5.36,.96-10.67,3.09-15.58,.48-.98,.48-2.12,0-3.09-7.16-15.38-10.39-32.29-9.42-49.23,.24-4.4,.15-4.4-4.2-6.86-.2,2.9-1.94,5.47-4.57,6.73-.53,.37-1.16,.6-1.81,.68-4.26-.35-8.74,.98-12.67-1.8-1.39-.91-2.93-1.56-4.54-1.93-3.34-.89-5.88-5.07-6.06-9.31-.37-9.23,6.18-17.93,15.21-20.34,7.44-1.98,14.31-.23,21,3.01,1.3,.62,1.74,.62,2.18-.96,6.02-22.17,16.51-41.99,30.71-60.06,12.88-16.4,24.36-33.77,32.96-52.89,.38-.84,1.04-1.63,.66-2.69-.86-.29-1.15,.47-1.54,.89-11.63,11.99-25.27,21.23-40.04,28.83-19.62,10-40.5,15.53-62.64,15.32-20.8-.19-40.07-5.65-56.56-18.83-15.79-12.61-25.67-28.92-29.19-48.94-.72-4.34-1.17-8.72-1.37-13.11v-8.58c.32-3.49,.53-6.99,.97-10.48,2.66-20.99,10.25-39.97,23.25-56.7,9.21-11.85,20.43-21.41,33.13-29.37,11.81-7.39,23.89-14.1,37.4-17.96,13.95-3.97,28.14-5.63,42.61-6.06,17.2-.63,34.38,2.02,50.58,7.84,5.55,2.01,9.72,1.97,14.74-1.03,7.3-4.51,15.48-7.4,24-8.47,.41-.04,.91-.09,.77-.73h5.71c0,.64,.48,.65,.89,.73,7.81,1.11,11.92,6.44,14.35,13.21,3.17,8.84,3.34,17.99,1.69,27.22-.98,5.99-3.02,11.76-6.04,17.02-.89,1.48-.59,1.73,1.09,2.02,13.18,2.25,25.34,7.09,35.69,15.66,8.02,6.62,9.34,15.55,4.08,24.58-5.95,10.24-14.69,17.71-24.42,24.13-2.01,1.32-4.11,2.51-6.35,3.86,2.96,2.69,5.84,5.33,8.48,8.23,2.94,3.34,5.63,6.91,8.06,10.65,6.52,9.58,2.4,19.45-4.82,24.62-5.47,3.93-11.75,5.73-18.05,7.64-4.98,1.5-10.14,2.21-15.03,3.95-.66,.24-1.34,.47-2.46,.87,2.21,1.5,4.11,2.76,5.97,4.09,5.67,4.01,11.42,7.97,15.53,13.72,4.73,6.69,5,11.97,.84,18.24-1.94,2.92-4.21,5.63-6.74,8.07-5.31,5.05-11.29,9.33-17.78,12.71-1.45,.79-2.96,1.56-4.8,2.53,3,.57,5.66,1.01,8.28,1.6,3.36,.67,6.61,1.92,9.57,3.67,6.44,3.96,8.24,10.18,4.97,16.99-2.38,4.94-6.21,8.63-10.26,12.15-1.54,1.33-3.12,2.62-4.68,3.93l-.29,.41h.69c4.94-.61,9.87-1.03,14.81,.12,6.84,1.59,9.32,5.79,7.24,12.54-1.81,5.79-5.25,10.74-8.52,15.75-.52,.62-.87,1.37-.99,2.18,1.7-.72,3.2-1.48,4.75-2.09,3.5-1.37,7.03-2.48,10.86-1.64,3.83,.84,5.99,3.22,6.39,7.07,.47,3.35-.15,6.77-1.78,9.73-.25,.45-.77,.95-.24,1.73,1.01-.44,1.9-1.08,2.64-1.88,1.99-1.72,3.89-3.56,5.97-5.17,3.27-2.51,6.33-1.93,8.52,1.58,1.18,1.91,2.13,3.97,2.82,6.1,.29,.9,.37,1.86,1.17,2.81,.64-3.14,1.78-6.16,3.36-8.95,2.74-4.59,5.6-5.18,9.88-1.87,1.72,1.34,3.39,2.78,5.01,4.26,.73,.67,1.22,.96,2.18,.27,6.71-4.76,12.54-10.27,15.89-18.02,.64-1.48,.57-3.14,1.45-4.71l-.03-.04c1.08,.64,1.09,1.75,1.28,2.64,3.51,16.2,1.64,31.86-5.28,46.84Z"/>
  <path class="cls-1" d="M559.67,327.35c-1.34,20.26-9.3,36.73-24.19,49.23,14.88-12.52,22.82-28.96,24.16-49.2,.26-3.47,.14-6.96-.36-10.41-.16,.19-.29,.33-.39,.45-.2,.23-.33,.37-.43,.53-.77,1.17-1.58,2.29-2.43,3.37-5.93,7.58-13.55,13.14-22.44,17.06-8.49,3.75-17.4,5.45-26.73,4.15-7.62-1.08-13.64-5.08-19.43-9.88-4.61-3.82-8.62-8.07-12.11-12.69-3.51-4.64-6.52-9.65-9.11-14.99-8.84-18.23-12.09-37.78-12.97-57.78-.48-11.06,1.08-22.03,2.9-32.94,1.29-8.2,3.3-16.26,5.96-24.1-2.65,7.83-4.64,15.87-5.93,24.06-1.83,10.91-3.4,21.88-2.9,32.94,.22,5.02,.59,10.01,1.16,14.95-.56-4.92-.93-9.88-1.15-14.86-.49-11.06,1.07-22.03,2.9-32.94,1.29-8.18,3.28-16.23,5.93-24.06,1.42-4.18,3.02-8.3,4.81-12.34,4.11-9.05,8.79-17.82,12.63-27,2.33-5.59,5.18-11.03,6.38-17,1.18-5.9,1.78-11.75,1.86-17.58,.07-4.8-.21-9.58-.82-14.33,.6,4.72,.88,9.47,.81,14.25,.14-9.66-1.16-19.22-3.63-28.66-.79-3.02-1.7-6.03-2.73-9.02-3.8-11.09-8.35-21.9-16.17-30.9-16.18-18.63-36.29-30.36-60.75-34.4-14.19-2.29-28.6-2.83-42.91-1.66-1.8,.15-3.61,.31-5.41,.51-3.05,.32-6.07,.75-9.08,1.26-.18,.03-.35,.05-.53,.08-.24,.04-.48,.1-.73,.14-6.5,1.16-12.88,2.79-19.12,5-2.69,.95-5.35,1.98-7.98,3.14-8.25,3.68-15.86,8.47-23.48,13.27-15.06,9.49-27.74,21.43-37.2,36.59-14.4,23.11-19.62,48.29-16.16,75.21,2.28,17.67,10.58,32.41,23.44,44.52,15.21,14.34,33.94,20.53,54.46,21.73,2.35,.14,4.68,.2,7.01,.19,16.25-.08,31.87-3.81,47-9.8,17.28-6.84,32.73-16.82,46.62-29.19,8.17-7.27,14.92-15.62,19.68-25.53,.35-.74,.5-1.28,.36-1.73,.09,.43-.05,.94-.38,1.64-4.76,9.91-11.51,18.26-19.68,25.53-13.89,12.36-29.33,22.35-46.62,29.19-1.89,.75-3.79,1.46-5.7,2.14-8.48,3-17.12,5.25-25.93,6.51-.11,.02-.21,.03-.32,.05-.55,.08-1.1,.14-1.66,.21-.44,.06-.89,.12-1.33,.17-.28,.03-.57,.06-.86,.09-.71,.08-1.43,.15-2.14,.22-.1,0-.2,.01-.3,.02-.9,.08-1.81,.15-2.71,.2-.17,.01-.34,.01-.52,.02-.83,.05-1.67,.09-2.5,.12-1.01,.03-2.02,.05-3.04,.06,1.01,0,2.03-.02,3.04-.06,.84-.03,1.67-.07,2.5-.12,.17,0,.34-.01,.52-.02,.91-.05,1.81-.12,2.71-.2,.1,0,.2-.01,.3-.02,.72-.06,1.43-.14,2.14-.22,.29-.03,.57-.05,.86-.09,.44-.05,.89-.11,1.33-.17,.55-.07,1.11-.13,1.66-.21,.11-.02,.21-.03,.32-.05,8.82-1.26,17.45-3.51,25.93-6.51,1.9-.68,3.8-1.39,5.69-2.14,17.28-6.85,32.72-16.82,46.61-29.19,8.17-7.24,14.93-15.62,19.68-25.53,.36-.71,.5-1.24,.39-1.68-.14-.41-.51-.76-1.19-1.13-2.09-1.21-3.74-3.04-4.71-5.24-.15-.32-.28-.66-.4-1-.05-.12-.1-.26-.15-.39-.03-.07-.05-.13-.08-.2-.02-.06-.04-.13-.06-.2-.01-.04-.02-.07-.03-.11-.05-.16-.08-.33-.1-.48,0,0,0-.01,0-.02-.01-.13,0-.25,.01-.37,0,0,0-.02,0-.03,.05-.24,.19-.46,.46-.62,.12-.07,.22-.11,.32-.12-.09,.02-.2,.06-.31,.12-.28,.16-.42,.38-.47,.62,0,0,0,.02,0,.03-.02,.12-.02,.24-.01,.37,0,0,0,.01,0,.02,.01,.13,.04,.27,.08,.41-.13-.53-.11-1.05,.43-1.36,.11-.07,.21-.11,.31-.12,.66-.09,.97,.91,1.36,1.38,2.93,3.52,6.29,5.68,10.37,5.66,1.36-.01,2.81-.26,4.35-.79,.58-.2,1.33-.48,1.84-.17,.17,.11,.31,.29,.42,.57,.42,1.13-.23,2-1.28,2.46-1.85,.89-3.89,1.35-5.94,1.35h-.15c-.9-.04-1.72,.53-1.97,1.41-2.35,5.05-5.24,9.82-8.61,14.24-.57,.77-1.01,1.61-1.28,2.53-4.35,14.69-11.76,27.84-20.23,40.45-4.5,6.7-9.01,13.39-14.07,20.09,.92-.17,1.65-.53,2.3-.97,1.06-.71,1.88-1.61,2.84-2.3,4.99-3.5,9.93-6.96,16.26-7.65,3.98-.43,6.81,1.04,8.79,4.42,1.47,2.54,2.43,5.34,2.82,8.25,1.75,12.55,1.05,25.09-.19,37.65-.8,8.06-1.59,16.13-2.39,24.19-.05,.58-.1,1.21,.47,1.6,1.35,.92,2.7,1.8,4.51,3.01,0-.03-.02-.07-.02-.1,.03,.01,.05,.03,.08,.05,0-.03-.01-.06-.02-.08-.02-.01-.04-.02-.06-.04-1.25-4.6-1.78-9.36-1.59-14.11,.07-2.95,1.06-5.8,2.81-8.17h0c.57-.77,1.22-1.41,1.9-1.91-.66,.5-1.29,1.13-1.84,1.87-1.75,2.37-2.74,5.22-2.81,8.17-.02,.61-.04,1.22-.04,1.83,0-.59,.01-1.18,.04-1.76,.07-2.95,1.06-5.8,2.81-8.17,.55-.76,1.18-1.37,1.84-1.87,2.94-2.18,6.76-1.92,9.73,.87,1.08,1,2,2.15,2.74,3.41,2.9,5.06,4.15,10.58,4.63,16.31,0,.03,.02,.07,.03,.1,.01,.13,.03,.25,.03,.38-.57-1.94-1.05-3.93-1.63-5.87-1.07-3.51-2.17-7.03-4.55-9.9h0c-.44-.55-.89-1.09-1.37-1.61-1.64-1.74-3.56-3.1-6.23-2.49-.56,.13-1.06,.33-1.52,.57-2.45,1.2-3.43,3.72-3.88,6.33-1.15,6.97-.15,14.13,2.84,20.53,.3,.63,.82,1.22,.77,2.19,0,0,0,0,0,0v.08c-.41-.28-.64-.42-.87-.59-5.17-4.07-10.42-7.82-16.34-10.31-3.53-1.48-7.31-2.52-11.43-2.91-.41-.05-.83-.08-1.24-.1-2.73-.12-5.35,.38-7.73,1.36-.51,.21-1.02,.44-1.51,.7-.09,.05-.19,.1-.28,.15-.39,.21-.78,.43-1.15,.67-.19,.12-.38,.25-.56,.38-.26,.18-.53,.36-.79,.56-.28,.21-.54,.44-.82,.67-.15,.12-.3,.25-.44,.38-.35,.32-.7,.66-1.02,1.02-.05,.05-.09,.1-.14,.15-2.48,2.75-4.17,6.24-4.61,10.2-.05,.41-.08,.83-.1,1.24-.14,4.01,2.04,7.72,5.07,8.6-.01-.03-.01-.05-.01-.07,.02,0,.05,.02,.07,.02,0-.02,0-.03,0-.05-.02,0-.03-.01-.04-.01-.25-1.54-.57-3.01-.72-4.49-.31-2.89-.47-5.76,1.19-8.32,0-.01,.01-.02,.02-.03,.1-.15,.18-.31,.3-.46l.05-.04-.02-.02,.1-.06-.02,.03-.03,.02h0s-.03,.04-.03,.04h0c-.12,.16-.24,.32-.35,.49,0,.01-.01,.02-.02,.03-.11,.17-.21,.34-.3,.51,.19-.34,.4-.68,.65-1.01-.39,3.81-.38,7.54,.91,11.24,1.07,3.06,3.01,4.92,6.18,5.52,.73,.13,1.59,.66,2.07,.06,.02-.01,.02-.02,.02-.03,.07-.09,.11-.17,.13-.26-.03,.08-.06,.15-.12,.22,.43-.59-.31-1.3-.6-1.92h-.01c-2.01-4.34-1.21-8.54,.47-12.72v.03c-.52,1.3-.96,2.61-1.25,3.92,.29-1.3,.72-2.59,1.24-3.88,.16,1.44,.21,2.88,.16,4.32-.16,2.57,.3,5.13,1.35,7.47,1.4,2.95,4.28,3.74,6.91,1.83,1.39-1,2.14-2.31,2.53-3.78,.1-.36,.16-.73,.22-1.1,.09-.56,.15-1.14,.17-1.73,.07-1.92-.77-3.66-.9-5.74,.01,.03,.03,.06,.04,.09,0,.04,0,.07,.01,.11,3.51,7.8,10.4,10.67,17.95,12.1,7.6,1.43,15.29,1.13,21.68-4.79,.02,.8-.18,1.4-.48,1.9-.3,.49-.7,.89-1.13,1.27-1.83,1.69-4.02,2.96-6.4,3.72-5.48,1.71-10.99,1.4-16.44-.05-.58-.16-1.01-.24-1.34-.2,0,0,0,0,0,0-.32,.03-.53,.17-.67,.44-.17,.3-.24,.78-.24,1.47-.13,10.9,.82,21.78,2.82,32.49,.48,2.58,1.15,5.14,1.83,8.2,3.18-4.28,6.45-7.6,10.52-10.03,4.07-2.43,8.05-4.47,12.94-5.07-.06,.18-.14,.33-.22,.46-.13,.19-.28,.33-.44,.43-.58,.39-1.33,.26-1.88,.49h0c-7.14,3.11-13.33,8.07-17.92,14.37-.41,.54-.81,1.09-1.19,1.64-6.63,9.43-9.67,19.96-6.86,31.56,3.48,14.13,11.46,25.16,24.56,32.05,8.26,4.35,17.18,5.12,26.24,3.9,6.41-.78,12.57-2.89,18.1-6.2,.54-.33,1.26-.73,1.67,.14,.2,.43,.04,.71-.22,.93-.17,.13-.37,.25-.55,.37-5.11,3.47-10.55,6.29-16.69,7.48-.53,.1-1.1,.14-1.67,.18-.54,.04-1.07,.08-1.56,.17-.6,.11-1.15,.31-1.57,.67-.01,.01-.03,.02-.03,.02-1.08,.95-.29,3.17-.58,4.82-1.67,9.33-4.09,18.4-8.43,26.88-.39,.78-.2,1.1,.28,1.66,.99,1.36,2.63,2.07,4.29,1.88,3.9-.3,6.9,1.53,9.09,4.7,.54,.8,1.07,1.69,.09,2.97-.33-.51-.71-1-1.12-1.44,0,0,0,0-.01-.01,.41,.44,.78,.92,1.11,1.43-.01,.02-.02,.03-.02,.04-.33-.51-.72-1-1.13-1.45h-.01c-2.67-2.49-5.57-3.54-8.31-3.2-1.64,.21-3.22,.93-4.66,2.12-.24,.19-.46,.41-.69,.63-.05,.05-.1,.09-.15,.14-.58,.58-1.13,1.25-1.65,1.99-2.72,3.92-3.29,8.33-3.15,12.96,.06,1.55,.6,1.94,2.08,1.92,5.56-.07,11.12-.04,16.65,0,1.65,0,2.69,.01,3.41-.19,1.22-.32,1.58-1.25,2.41-3.79,3.74-11.38,8.52-22.26,12.94-33.47s9.25-22.3,11.58-34.22c1.01-5.12,1.28-10.27-.17-15.42-.22-.78-.45-1.54-.7-2.3,.24,.74,.47,1.5,.69,2.27,1.45,5.15,1.18,10.3,.17,15.42-2.34,11.92-7.16,23.01-11.58,34.22-4.43,11.21-9.22,22.09-12.94,33.47-.83,2.54-1.19,3.46-2.41,3.79,1.19-.33,1.54-1.25,2.38-3.76,3.74-11.38,8.56-22.34,12.94-33.47,4.38-11.13,9.23-22.3,11.58-34.22,1.01-5.12,1.28-10.27-.17-15.42-3.47-12.35-10.36-21.63-22.95-25.91h0c-.27-.09-.56-.22-.47-.68h.03c-.02,.12,0,.21,.02,.29-.02-.07-.02-.16,0-.26,2-.32,4.06-.01,5.88,.88,5.89,2.32,10.96,6.36,14.54,11.58,1,1.5,1.82,1.58,3.33,.96,6.12-2.62,11.97-5.83,17.46-9.61,2.53-1.68,4.9-3.47,7.11-5.34,14.9-12.5,22.85-28.98,24.19-49.23v.07c.13-1.76,.17-3.54,.1-5.31,.06,1.74,.03,3.48-.1,5.22ZM303.32,165.13c-.11,.28-.23,.56-.38,.83-.54,.96-1.38,1.81-2.47,2.49,.74-3.61,.48-5.54-1.12-6.47,1.37,.81,1.75,2.36,1.35,5.09,0,.01,0,.03,0,.04-.06,.42-.14,.85-.23,1.33,.1-.47,.17-.91,.23-1.33,0-.02,0-.03,0-.04,.4-2.89-.12-4.46-1.63-5.22-.16-.08-.31-.16-.49-.22-.14-.05-.27-.09-.4-.12-.38-.1-.72-.14-1.04-.13,.32-.02,.66,.03,1.03,.13-1.58-.41-2.64,.19-3.92,2.51-.27,.49-.54,1.06-.84,1.71,0,0,0,0,0-.01,0,0,0,0,0,.01-1.11-3.22-.2-6.64,2.01-7.96-2.14,1.29-3.1,4.74-2.01,7.96,0,0,0,0,0-.01-1.08-3.21-.11-6.67,2.02-7.94,.14-.09,.29-.16,.44-.23,2.54-1.1,5.88,.51,7.27,3.3,.1,.2,.18,.4,.25,.61,0,0,0,.01,0,.02,0,0,0,0,0-.01,.43,1.2,.38,2.48-.07,3.67Zm96.54-62.66c-.07,.1-.15,.19-.22,.29,.08-.11,.16-.21,.24-.32-.02,.01-.02,.03-.02,.03Zm.02-.04c-.08,.11-.16,.21-.24,.32-.1,.13-.2,.27-.3,.4-.05,.07-.11,.13-.17,.19-.13,.15-.26,.3-.4,.44-1.2,1.19-2.69,1.83-4.58,1.52-1.16-.16-2.21-.67-3.04-1.42,.83,.76,1.88,1.28,3.05,1.43,1.9,.3,3.38-.33,4.58-1.52-1.2,1.2-2.69,1.85-4.6,1.56-2.33-.31-4.21-2.04-4.71-4.34-.69-2.84-.83-5.65-.36-8.36,.24-1.41,.64-2.8,1.25-4.15,.13-.29,.27-.58,.42-.88,.07-.14,.15-.28,.23-.42,.08-.15,.16-.3,.25-.45,.09-.15,.19-.31,.29-.46,.08-.13,.16-.27,.25-.4,2.36-3.5,6.84-3.08,8.88,.67,1.04,2.11,1.54,4.43,1.45,6.78l.03-.04v-.02c.1,3.57-.48,6.51-2.28,9.15Zm8.68-23.98c-.05,.15-.12,.28-.21,.41-.1,.14-.21,.27-.35,.38-.73,.42-1.16-.32-1.63-.73-.15-.15-.29-.32-.4-.51-4.18-6.03-9.84-7.62-16.72-5.6-.34,.1-.72,.14-1.07,.24-.87,.25-1.63,.15-1.99-.78-.14-.37-.12-.69-.01-.96-.05,.13-.07,.27-.06,.42,0-.14,.02-.28,.06-.4,.17-.42,.57-.74,1.02-.98,2.52-1.34,5.24-1.75,8.73-1.79v-.04c4.39,.09,8.48,2.24,11.06,5.79,.83,1.03,1.39,2.25,1.62,3.55v.02c.08,.33,.06,.66-.04,.98Zm42.09,64.88c-1.54,.53-2.98,.79-4.35,.79,1.36-.01,2.8-.26,4.34-.79,.58-.2,1.34-.5,1.85-.17-.51-.31-1.26-.03-1.84,.17Zm-48.94,81.96h0c1.05-.72,1.86-1.62,2.82-2.29,.01-.01,.02-.01,.02-.01-.96,.68-1.78,1.6-2.84,2.3Z"/>
  <path class="cls-1" d="M518.01,331.75c.6,1.44,1.14,2.91,1.62,4.39-.48-1.49-1.02-2.95-1.62-4.39Z"/>
  <path class="cls-1" d="M499.6,336.78s.03,.02,.05,.02c-.02-.01-.05-.02-.05-.02h0Z"/>
  <path class="cls-1" d="M464.89,192.92c-.83,2.74-1.6,5.49-2.3,8.27-2.11,8.31-3.67,16.76-4.65,25.3-.66,5.2-1.04,10.43-1.1,15.66-.03,1.74-.01,3.49,.03,5.23v-.03c4.78-2.24,9.39-4.85,13.76-7.82,6.69-4.54,12.76-9.73,17.21-16.62,.94-1.45,1.56-2.9,1.86-4.37,.52-2.44,.16-4.92-1.14-7.5-1.71-3.31-4.04-6.27-6.86-8.69-4.32-3.88-9.15-7.03-13.82-10.39h0c4.67,3.38,9.49,6.52,13.81,10.39,2.82,2.44,5.15,5.39,6.86,8.69,1.3,2.58,1.66,5.07,1.14,7.5,.49-2.42,.13-4.89-1.14-7.44-1.71-3.31-4.04-6.27-6.86-8.69-4.34-3.85-9.15-7.03-13.82-10.39-2.26-1.62-2.21-1.63-2.99,.92Z"/>
  <path class="cls-1" d="M463.26,287.63s0,0-.01,0h.01Z"/>
  <path class="cls-1" d="M463.23,287.64h.02s0,0,0,0c0,0-.02,0-.02,0Z"/>
  <path class="cls-1" d="M303.4,161.46s0,0,0,0c-.07-.2-.16-.41-.25-.61h0c.1,.21,.18,.4,.25,.61Z"/>
  <path class="cls-1" d="M489.81,134.77c-5.6,17.94-15.03,33.87-22.37,51.16h-.01v.06c7.24-1.53,13.8-3.36,20.35-5.35,5.21-1.57,10.24-3.46,14.55-6.88,4.91-3.91,6.93-9.17,5.84-14.56-.18-.9-.44-1.8-.79-2.7-.35-.89-.78-1.78-1.3-2.66-1.36-2.34-2.88-4.57-4.51-6.73-1.16-1.53-2.37-3.01-3.66-4.44v.02c-2.51-2.82-5.22-5.47-8.09-7.93h-.01Z"/>
  <path class="cls-2" d="M403.7,285.38c-.41,.11-.83,.23-1.25,.36-.15,.05-.3,.11-.45,.17,.17-.06,.33-.12,.5-.18,.4-.13,.8-.24,1.2-.35Z"/>
  <path class="cls-2" d="M400.33,286.58c.07-.03,.13-.06,.2-.09-.07,.03-.13,.06-.2,.09Z"/>
  <path class="cls-2" d="M421.25,217.04c-.66,.05-1.31,.13-1.94,.25,.63-.12,1.28-.2,1.94-.25Z"/>
  <path class="cls-2" d="M401.3,286.16c.23-.09,.46-.18,.69-.26-.23,.08-.47,.17-.69,.26Z"/>
  <path class="cls-2" d="M384.72,491.58s.02,0,.03,0c0,0-.02,0-.03,0Z"/>
  <path class="cls-2" d="M400.53,286.49c.25-.11,.51-.22,.77-.32-.26,.1-.52,.21-.77,.32Z"/>
  <path class="cls-2" d="M396.36,299.92c-.11,.15-.2,.31-.3,.46,.11-.17,.22-.34,.35-.5l-.05,.04Z"/>
  <path class="cls-2" d="M434.25,137.17c.11-.06,.22-.1,.31-.12-.1,.01-.2,.05-.32,.12-.27,.16-.41,.38-.46,.62,.05-.24,.19-.46,.47-.62Z"/>
  <path class="cls-2" d="M433.76,138.19c-.01-.13,0-.25,.01-.37-.02,.12-.02,.24-.01,.37Z"/>
  <path class="cls-2" d="M433.77,137.82s0-.02,0-.03c0,0,0,.02,0,.03Z"/>
  <path class="cls-2" d="M433.76,138.21s0-.01,0-.02c0,0,0,.01,0,.02Z"/>
  <path class="cls-2" d="M559.98,306.71l.03,.04c-.88,1.57-.81,3.23-1.45,4.71-3.35,7.75-9.19,13.26-15.89,18.02-.96,.69-1.45,.4-2.18-.27-1.61-1.48-3.28-2.92-5.01-4.26-4.28-3.3-7.14-2.72-9.88,1.87-1.58,2.79-2.72,5.81-3.36,8.95-.8-.95-.88-1.91-1.17-2.81-.7-2.14-1.64-4.19-2.82-6.1-2.2-3.52-5.25-4.09-8.52-1.58-2.09,1.61-3.98,3.44-5.97,5.17-.74,.81-1.63,1.44-2.64,1.88-.52-.79-.01-1.28,.24-1.73,1.63-2.96,2.26-6.38,1.78-9.73-.39-3.85-2.56-6.23-6.39-7.07-3.83-.84-7.36,.27-10.86,1.64-1.55,.61-3.05,1.38-4.75,2.09,.12-.81,.46-1.55,.99-2.18,3.27-5.02,6.71-9.96,8.52-15.75,2.07-6.75-.4-10.95-7.24-12.54-4.94-1.15-9.87-.74-14.81-.12h-.69l.29-.41c1.56-1.31,3.14-2.6,4.68-3.93,4.05-3.52,7.89-7.21,10.26-12.15,3.27-6.81,1.47-13.03-4.97-16.99-2.96-1.74-6.2-2.99-9.57-3.67-2.62-.59-5.28-1.03-8.28-1.6,1.84-.97,3.35-1.74,4.8-2.53,6.49-3.38,12.47-7.67,17.78-12.71,2.53-2.44,4.79-5.15,6.74-8.07,4.16-6.28,3.9-11.55-.84-18.24-4.11-5.75-9.86-9.71-15.53-13.72-1.86-1.33-3.77-2.59-5.97-4.09,1.12-.39,1.79-.62,2.46-.87,4.89-1.74,10.05-2.45,15.03-3.95,6.3-1.9,12.58-3.71,18.05-7.64,7.22-5.17,11.34-15.04,4.82-24.62-2.43-3.74-5.12-7.3-8.06-10.65-2.64-2.9-5.52-5.54-8.48-8.23,2.24-1.35,4.33-2.54,6.35-3.86,9.73-6.43,18.46-13.89,24.42-24.13,5.26-9.02,3.94-17.96-4.08-24.58-10.34-8.57-22.5-13.42-35.69-15.66-1.68-.29-1.97-.54-1.09-2.02,3.02-5.26,5.07-11.03,6.04-17.02,1.65-9.23,1.48-18.37-1.69-27.22-2.44-6.77-6.55-12.1-14.35-13.21-.4-.07-.89-.08-.89-.73h-5.71c.14,.63-.35,.68-.77,.73-8.52,1.07-16.7,3.96-24,8.47-5.02,3-9.19,3.04-14.74,1.03-16.21-5.81-33.38-8.47-50.58-7.84-14.46,.43-28.66,2.1-42.61,6.06-13.51,3.86-25.59,10.57-37.4,17.96-12.7,7.96-23.92,17.53-33.13,29.37-12.99,16.73-20.59,35.71-23.25,56.7-.43,3.49-.64,6.99-.97,10.48v8.58c.2,4.39,.65,8.77,1.37,13.11,3.52,20.02,13.4,36.33,29.19,48.94,16.49,13.18,35.76,18.63,56.56,18.83,22.14,.21,43.02-5.32,62.64-15.32,14.77-7.59,28.4-16.84,40.04-28.83,.39-.41,.68-1.18,1.54-.89,.37,1.06-.28,1.85-.66,2.69-8.6,19.12-20.07,36.49-32.96,52.89-14.2,18.07-24.69,37.89-30.71,60.06-.43,1.58-.88,1.58-2.18,.96-6.69-3.24-13.56-5-21-3.01-9.03,2.41-15.58,11.11-15.21,20.34,.18,4.24,2.72,8.42,6.06,9.31,1.61,.37,3.15,1.03,4.54,1.93,3.93,2.78,8.41,1.45,12.67,1.8,.65-.08,1.28-.31,1.81-.68,2.63-1.26,4.37-3.83,4.57-6.73,4.35,2.46,4.44,2.46,4.2,6.86-.98,16.94,2.26,33.85,9.42,49.23,.48,.98,.48,2.12,0,3.09-2.14,4.92-3.18,10.22-3.09,15.58,.35,16.37,7.97,29.06,20.54,38.93,7.68,6.04,16.71,8.5,26.44,8.44,1.12,0,2.16-.21,1.88,1.64-1.5,10.35-4.72,20.23-8.07,30.19-6.01-2.88-11.46-2-16.31,2.28-1.06,.92-1.52,.89-2.58,0-3.97-3.4-9.73-3.7-14.03-.73-2.52,1.64-4.65,3.82-6.24,6.38-3.89,6.1-4.16,12.97-4.39,19.86-.05,1.71,1.25,2.1,2.73,2.1,18.59,.09,37.18,.25,55.75,.25,20.92,0,41.84-.06,62.76,0,2.2,0,3.26-.82,3.94-2.9,1.99-6.09,4.13-12.17,6.34-18.19,3.62-9.89,8.66-19.18,12.15-29.12,3.11-8.89,6.3-17.79,7.64-27.16,1.19-7.41,0-15.02-3.37-21.73-.55-1.12-.68-1.72,.81-2.18,5.63-1.71,10.78-4.51,15.77-7.55,12.31-7.51,22.32-17.22,28.42-30.51,6.92-14.98,8.78-30.64,5.28-46.84-.19-.89-.2-1.99-1.28-2.64Zm-36.01,29.82v-.06c.17-1.41,.5-2.79,.95-4.12,.67-1.95,1.64-3.79,2.89-5.46,1.57-2.16,3.06-2.44,5.24-.89,2.04,1.43,3.85,3.15,5.79,4.69,.43,.34,.56,.6,.52,.84,.04-.13,.04-.26-.04-.41,.08,.15,.1,.29,.05,.42-.05,.26-.35,.48-.77,.73-4.24,2.45-8.76,4.35-13.49,5.66-.92,.24-1.47,.2-1.15-1.4Zm-4.35-.39c-.48-1.49-1.02-2.95-1.62-4.39,.6,1.44,1.14,2.91,1.62,4.39Zm-8.95-8.8c2.49-2.03,4.32-1.7,5.83,1.15,1.48,2.99,2.7,6.12,3.62,9.34,.07,.25,.16,.52,.13,.75,.02-.06,.02-.12,.02-.18,0,.07,0,.13-.02,.19-.04,.23-.21,.42-.71,.49-6.73,.99-13.3,.67-19.95-2.23,0,0,.04-.03,.06-.05-.02,0-.03-.01-.05-.02h0s.03,.01,.05,.02c3.87-3.34,7.38-6.48,11.02-9.46Zm-9.42-4.71c-.02-2.19-.53-4.02-1.66-5.26,1.14,1.25,1.65,3.08,1.66,5.26Zm-7.1-7.04h0v.05c5.05-.28,7.06,2.64,7.1,7,0,.62-.03,1.28-.1,1.95-.36,3.62-2.28,6.73-3.98,9.88-.65,1.17-1.33,.4-1.94,0-3.4-2.16-6.31-4.96-9.37-7.53-.32-.28-.61-.59-.93-.89-.26-.24-.52-.49-.79-.75-.6-.58-1.19-1.2-1.75-1.81-.23-.25-.45-.5-.68-.77-.28-.32-.58-.63-.87-.97-.32-.37-.46-.66-.42-.94,0-.02,.01-.05,.02-.07,.06-.24,.28-.45,.68-.69,3.92-2.3,7.97-4.29,13.03-4.47Zm-24.47-26.64h0c1.55-.23,3.1-.4,4.65-.47,3.1-.15,6.21,.08,9.33,.9,4.92,1.3,6.43,4.17,4.99,9.11-.19,.71-.41,1.4-.66,2.07-.25,.67-.53,1.35-.85,2.01-.68,1.34-1.38,2.66-2.1,3.98-.15,.28-.32,.56-.48,.86-.56,1.03-1.14,2.05-1.73,3.06-.14,.24-.29,.48-.43,.73-.61,1.05-1.24,2.1-1.88,3.13-.18,.29-.37,.57-.55,.87-.6,.97-1.22,1.93-1.84,2.88l-.03,.04c-1.47-2.04-2.87-4.13-4.18-6.28-3.93-6.43-7.13-13.29-9.52-20.45-.27-.79-.45-1.33,.65-1.57,1.55-.33,3.09-.63,4.64-.87Zm4-35.21v.02c1.28,.53,2.51,1.18,3.68,1.92,5.04,3.36,6.29,8.05,3.62,13.51-1.43,2.89-3.34,5.51-5.66,7.76-3.74,3.87-7.76,7.44-12.03,10.7h0s-.03,.02-.03,.02h0s.02-.02,.03-.03v-.02s0,0-.01,0c-1.66-5.26-2.93-10.62-3.8-16.07-1.11-6.48-1.89-13.03-2.51-19.55-.1-1.07,0-1.7,.55-1.93-.14,.06-.26,.14-.35,.25,.09-.11,.21-.2,.36-.26,.33-.14,.83-.14,1.54-.02,4.97,.89,9.94,1.67,14.61,3.71Zm-10.43,33.9h0s-.01,0-.01,0h-.02s.01,0,.02,0c0,0,0,0,0,0,0,0,0,0,.01,0Zm4.62-95.62c4.67,3.36,9.48,6.55,13.82,10.39,2.82,2.43,5.15,5.38,6.86,8.69,1.27,2.56,1.63,5.03,1.14,7.44,.52-2.44,.16-4.93-1.14-7.5-1.71-3.3-4.04-6.26-6.86-8.69-4.32-3.88-9.14-7.02-13.81-10.39h0c4.67,3.36,9.5,6.51,13.82,10.39,2.82,2.43,5.15,5.38,6.86,8.69,1.3,2.59,1.66,5.07,1.14,7.5-.3,1.47-.93,2.92-1.86,4.37-4.45,6.89-10.53,12.08-17.21,16.62-4.37,2.96-8.97,5.58-13.76,7.82v.03c-.04-1.74-.06-3.49-.03-5.23,.06-5.24,.43-10.47,1.1-15.66,.98-8.53,2.53-16.98,4.65-25.3,.71-2.77,1.47-5.53,2.3-8.27,.79-2.55,.74-2.54,2.99-.92Zm30.03-49.32v-.02c1.29,1.42,2.5,2.91,3.66,4.44,1.63,2.15,3.15,4.39,4.51,6.73,.52,.88,.96,1.77,1.3,2.66,.35,.9,.61,1.8,.79,2.7,1.09,5.4-.94,10.66-5.84,14.56-4.31,3.41-9.35,5.31-14.55,6.88-6.55,1.98-13.1,3.82-20.35,5.35v-.06h.01c7.34-17.28,16.77-33.22,22.37-51.16h.01c2.87,2.46,5.58,5.11,8.09,7.93Zm-7.25-12.94h0s0,0,0,0c0,0,0,0,0,0Zm-8.51-62.92l.02,.02c.98-.01,1.85,.32,2.69,.51,11.06,2.64,21.35,7.02,30.35,14.09,5.22,4.11,8.27,9.21,6.74,16.19-.33,1.36-.8,2.69-1.38,3.97-.37,.82-.8,1.61-1.27,2.39-.2,.33-.4,.67-.62,1-.03,.05-.06,.09-.09,.14-.08,.12-.17,.24-.25,.37-.62,.97-1.28,1.9-1.95,2.82-.05,.07-.11,.14-.16,.21-4.1,5.47-9.01,10.06-14.42,14.14-.06,.05-.12,.09-.18,.13-.85,.63-1.71,1.26-2.59,1.87-.63,.45-1.28,.89-1.92,1.33-.22,.15-.44,.3-.66,.44-.49,.33-.99,.67-1.49,1-1.15,.72-2.35,1.44-3.53,2.17-.24,.07-.49,.11-.74,.13,2.79-21.83-1.06-42.57-9.52-62.74,.34-.1,.67-.14,1-.15-.32,0-.66,.05-1.02,.15,8.46,20.17,12.29,40.91,9.52,62.75,0,0,0,0-.01,0v-.02c2.77-21.83-1.06-42.57-9.52-62.75,.35-.1,.68-.14,1.02-.15Zm-15.26-59.65c3.31-.17,6.24,.5,8.73,1.95,2.13,1.24,3.94,3.04,5.41,5.38-.79-1.27-1.69-2.38-2.68-3.33,1,.95,1.89,2.07,2.69,3.34,.92,1.46,1.7,3.12,2.34,4.99,.85,2.53,1.44,5.08,1.82,7.63,.86,5.64,.65,11.35-.27,17.09-.84,5.05-2.13,10-3.85,14.82-.37,1.32-1.01,2.55-1.86,3.62,0,0,0,0,0-.01,.85-1.07,1.49-2.29,1.86-3.61,1.72-4.81,3.01-9.77,3.85-14.82,.93-5.74,1.12-11.45,.27-17.09,.84,5.63,.63,11.33-.27,17.05-.84,5.05-2.13,10-3.85,14.82-.38,1.32-1.02,2.55-1.86,3.62-10.07-19.49-24.94-33.97-44.49-44.1,10.34-5.46,20.48-10.72,32.17-11.34Zm-6.37,29.94c-7.42-7.32-16.03-13.48-25.8-18.56h0c9.77,5.08,18.38,11.23,25.8,18.56Zm-100.9,273.65h-.01c-.25,.1-.59-.08-1.03-.4-1.47-1.1-2.85-2.23-3.58-4.04-.4-1-.66-2.2-2.34-2.92,.98,2.36,1.51,4.44,1.29,6.64-.11,1.12-.34,2.22-.8,3.2,0,.01-.01,.03-.02,.04-.1,.22-.21,.44-.34,.64-.1,.17-.22,.32-.34,.48-.04,.06-.08,.12-.12,.17-.13,.16-.28,.31-.43,.45-.05,.05-.09,.1-.14,.14-.13,.12-.28,.22-.42,.33-.08,.06-.16,.13-.25,.2h-.01c-2.79,1.86-5.64,.99-7.01-2.13-.95-2.31-1.37-4.79-1.22-7.27,.06-1.41,0-2.82-.18-4.22-.97,2.47-1.65,4.96-1.63,7.46,.01,1.75,.37,3.52,1.24,5.3,.28,.56,1.02,1.14,.52,1.78,0,0,0,.02-.02,.03-.06,.07-.12,.13-.19,.17-.29,.19-.64,.15-1.01,.04-.28-.07-.57-.16-.84-.22-.42-.08-.83-.19-1.21-.32,.37,.12,.76,.23,1.18,.31,.26,.06,.55,.15,.84,.22-.27-.08-.55-.18-.83-.23-1.67-.33-3-1-4.04-1.99-1.03-.99-1.78-2.3-2.26-3.93-1.08-3.36-1.37-6.93-.84-10.42-.01,.02-.03,.05-.04,.07-2.56,4.13-1.29,8.5-.59,13.24,0,0-.02-.01-.03-.01v.03c-2.73-1.26-4.6-3.86-4.94-6.85-.94-6.3,2.63-13.13,8.01-16.73,1.78-1.2,3.77-2.03,5.84-2.39,6.75-1.11,13.17,.28,19.34,3.1,1.29,.58,1.71,1.38,1.38,2.75-1.23,5.34-2.07,10.75-2.54,16.21-.05,.64-.19,.95-.41,1.04,.23-.08,.38-.38,.44-1.05,.46-5.46,1.31-10.87,2.54-16.21,.32-1.37-.09-2.16-1.38-2.75h-.01c-1.54-.71-3.09-1.33-4.65-1.84,1.58,.51,3.14,1.13,4.68,1.84,1.29,.59,1.71,1.38,1.38,2.75-1.23,5.34-2.07,10.75-2.54,16.21-.06,.66-.21,.97-.44,1.05Zm2.89,8.33v-.02c.83-22.41,7.01-43.22,17.1-63.11,7.07-13.95,16.83-25.38,29.72-34.15,2.38-1.61,4.83-3.02,7.52-3.9,1.58-.51,3.24-.85,5.01-.92,2.39-.19,4.68,1.01,5.88,3.08h0c2.56,3.92,3.36,8.39,3.62,12.92,.57,12.2,.05,24.43-1.56,36.53-.83,6.65-1.32,13.33-1.99,20.28,.01,0,.02,.01,.04,.02-.01,0-.02-.01-.04-.02v.04c-2.24-1.01-4.26-1.98-6.34-2.83-5.79-2.36-11.69-3.24-17.77-1.64-.39,.11-.8,.22-1.2,.35-5.49,1.75-10,6.08-12.34,11.33,2.02-4.55,5.67-8.4,10.17-10.49-7.26,3.34-12.33,11.23-11.93,19.25h0c.24,5.02,2.8,8.16,7.87,9.6,.33,.13,.65,.29,.95,.49,1.25,.75,2.55,1.42,3.88,2.02,1.86,.71,3.77,1,5.68,1.03,1.9,.04,3.81-.18,5.67-.5,.33-.05,.64-.14,.95-.24,2.23-.78,3.77-2.81,4.25-5.34,.17-.91,.4-1.29,.74-1.32,.12-.03,.26,.01,.41,.08,.25,.12,.54,.34,.89,.63,1.56,1.34,3.33,2.4,5.25,3.15h-.02c1.53,.57,1.81,1.48,1.81,2.96-.08,11.27,.62,22.49,2.94,33.55,.55,2.64,1.09,5.3,1.86,7.89,.47,1.45,.24,3.04-.6,4.31-6.21,10.56-8.04,21.81-4.66,33.72,1.02,3.52,2.44,6.9,4.23,10.08,.42,.49,.62,1.15,.55,1.79h.02s0,.01,0,.02h-.05v.02c-5-.32-9.92-1.35-14.64-3.05-10.11-3.9-19.79-8.64-28.03-15.92-6.77-5.98-11.55-13.43-15.4-21.38-7.57-15.66-11.16-32.96-10.45-50.33Zm56.81-101.82c.63-.12,1.28-.2,1.94-.25,.22-.02,.44-.04,.66-.05,.04,0,.08,0,.13,0-.04,0-.08,0-.13,0-.22,0-.44,.03-.66,.05-.66,.05-1.31,.13-1.94,.25Zm3.48-.31c2.06,.13,3.94,1.27,4.99,3.09-1.06-1.82-2.94-2.96-4.99-3.09Zm-13.75,249.25c.15,1.63,1.59,2.83,3.23,2.68,5.68-.29,9.54,2.12,11.58,7.42h0s0,0,0,0c0,0,0,0,0,.01v.02c-2.03-5.3-5.9-7.71-11.58-7.42-1.63,.15-3.08-1.05-3.23-2.68-.01-.15-.01-.29,0-.43,0,.13,0,.26,0,.39Zm-42.51,24.35s0,0,0,0c0,1.11,.66,1.11,1.45,1.11h6.14s-6.14,.01-6.14,.01c-.79,0-1.45,0-1.45-1.11Zm13.49,1.17c-1.97-.1-3.95,0-5.92,0h0c1.97-.01,3.95-.11,5.92-.01,.53,.03,.93-.02,1.23-.17h0c-.29,.16-.71,.21-1.24,.18Zm1.23-.18h0c-.29,.12-.67,.16-1.17,.14-1.97-.08-3.95,0-5.92,0v-.06h-6.14c-.79,0-1.45-.02-1.45-1.11,.04-5.66,.85-11.06,3.76-15.68,.67-1.06,1.46-2.09,2.37-3.06,.28-.3,.58-.6,.89-.9,.04-.04,.07-.07,.11-.11,0,0,.02-.02,.03-.03,3.23-3.08,8.1-3.71,12-1.53,1.49,.82,2.1,1.56,1.02,3.38-3.12,5.29-5.07,11.01-4.79,17.26,.05,.96-.16,1.47-.68,1.69Zm18.17,0h-.01c-.26,.14-.63,.18-1.14,.16-2.11-.07-4.22,0-6.33,0-2.12,0-4.23-.04-6.34,0-.57,0-.97-.09-1.21-.32,.08,.08,.19,.13,.32,.18-.22-.08-.38-.21-.47-.41,0-.02-.01-.04-.02-.06-.03-.06-.05-.13-.06-.2-.01-.05-.01-.12-.02-.17,0-.05-.01-.1-.01-.16,0-.03,0-.07,0-.1,0-.1,0-.21,.03-.32,.71-4.89,1.83-9.59,3.9-13.96,.99-2.07,2.19-4.08,3.65-5.99,.48-.63,1.06-1.18,1.69-1.63,4.35-3.16,11.63-2.2,14.35,.02,.97,.8,1.04,1.27-.09,2.13-6.33,4.89-8.78,11.41-7.78,19.25,.12,.93-.02,1.39-.47,1.59Zm22.59-1.26c-.1,1.09-.47,1.45-1.58,1.45h-15.99c-.38,0-.71-.03-.96-.16-.32-.14-.52-.42-.55-1-.04-.64-.07-1.27-.07-1.9,0,.62,.03,1.25,.07,1.88,.03,.57,.23,.86,.55,1-.28-.15-.46-.43-.49-.98-.29-5.07,.29-9.83,3.32-14.18,2.33-3.32,5.17-4.6,7.99-4.49,1.38,.07,2.76,.46,4.08,1.11,.94,.46,1.83,1.05,2.68,1.75,.95,.78,1.76,1.71,2.41,2.76v-.03s.04,.04,.05,.06l.39-1.22v-.03c-2.05-5.32-5.92-7.75-11.58-7.45-.57,.05-1.15-.06-1.66-.33-1.45-.77-2-2.56-1.24-4.01,3.71-8.04,6.32-16.53,7.77-25.25,.24-1.43,.35-2.89,.31-4.34-.01-.38,.02-.67,.12-.9,.04-.08,.09-.15,.14-.21,.22-.26,.59-.4,1.19-.46,1.87-.2,3.7-.53,5.47-1,5.31-1.38,10.21-3.84,14.82-7.02,.21-.15,.45-.3,.65-.47,.35-.27,.58-.59,.27-1.12-.36-.62-.86-.45-1.31-.2,.44-.23,.92-.35,1.25,.23,.12,.22,.15,.4,.12,.56,.02-.15-.02-.32-.13-.52-.33-.58-.81-.45-1.25-.23-.14,.08-.28,.16-.4,.23-1.55,.89-3.14,1.69-4.76,2.41-7.01,3.09-14.68,4.52-22.37,4.14-10.04-.5-19.03-3.57-26.41-10.65l-.37-.36c-1.06-.72-1.97-1.62-2.69-2.68l-.38-.39-.05-.05-.36-.4c-3.13-3.32-5.69-7.13-7.58-11.29l-.4-.54-.06-.07s-.08-.05-.11-.09c-.05-.05-.09-.11-.11-.18l-.06-.08-1.89-5.18-.24-.5,.05-.08c-2.62-7.73-2.55-16.11,.2-23.78,.08-.25,.01-.64,.16-.84-.12,.2-.06,.57-.15,.82h.06c.09-.35-.07-.92,.43-.92h0c.1,0,.17,.03,.25,.07,.03,.02,.05,.03,.08,.04,.02,.01,.03,.04,.05,.05,.05,.04,.1,.08,.13,.14,.14,.2,.23,.47,.28,.74,3.23,5.63,6.74,11.11,11.34,15.77,.91,.93,1.84,1.8,2.8,2.66,6.78,5.99,14.67,10.24,22.9,14,4.22,1.92,8.47,3.64,12.94,4.71,1.5,.36,3.03,.66,4.59,.86,.49,.12,1.01,.17,1.52,.14,1.19-.23,2.23-.19,3.15,.06,1.41,.4,2.57,1.28,3.64,2.49,.41,.46,.82,.98,1.21,1.52,1.17,1.63,2.47,3.16,3.87,4.57,.14,.14,.28,.26,.42,.4,.32,.31,.64,.63,.98,.94,1.96,1.78,4.12,3.36,6.44,4.71,.25,.14,.45,.29,.63,.43,1.2,.92,1.18,1.89,.65,3.32-3.41,9.42-6.82,18.93-10.66,28.24-.24,.6-.51,1.2-.73,1.82-.9,2.6-2.14,4.68-4.88,6.02-4.01,1.96-6.33,5.73-8.4,9.56-1.73,4.5-2.15,9.21-2.56,13.92h.03Zm30.74-59.22c.38-1.13,.87-1.13,1.87-.73,5.55,2.29,11.52,3.36,17.53,3.15,1.7-.06,1.48,.78,1.33,1.9-1.16,8.27-3.5,16.24-6.06,24.15-.58,1.8-.71,4.26-1.84,5.26-1.14,.99-3.16-.81-4.93-1.04-4.58-.59-8.3,1.05-11.58,3.95-.85,.75-1.29,1.08-2.21,.14-1.86-1.91-4.31-2.67-7.17-3.02l.04-.04c5.41-11.05,9.36-22.34,13.03-33.73h-.01Zm-12.97,60.57v.02c-.23,.04-.51,.05-.83,.04-.17,0-.34,0-.52-.01-.75-.02-1.5-.02-2.25-.02-1.04,0-2.08,.03-3.12,.03v.02h-.03c-1.89,0-3.8-.04-5.69,0-1.4,.05-2.06-.27-2.02-1.93,.1-4.71,.91-9.14,2.89-13.19-1.97,4.04-2.77,8.47-2.88,13.17-.04,1.66,.62,1.98,2.02,1.93,.01,0,.02,0,.03,0h0c-1.4,.04-2.02-.28-2.02-1.94,.15-6.86,1.79-13.09,6.33-18.44,.47-.55,1.04-1.02,1.66-1.44,.89-.59,1.89-1.06,2.97-1.37,3.08-.9,6.64-.6,8.93,1.15,.95,.72,1.25,1.32,.52,2.51-3.2,5.51-5.33,11.34-5.01,17.86,.05,1.11-.29,1.51-.99,1.62Zm19.9-11.84c-.09,.25-.19,.5-.27,.76-.1,.32-.18,.64-.27,.98-.02,.1-.06,.19-.08,.29-.1,.42-.19,.85-.26,1.28v.02c-.37,2.19-.39,4.51-.06,6.98,.02,.16,.03,.31,.04,.45,.04,.94-.29,1.23-1.42,1.19l-.02-.03c-.31-.01-.62-.02-.94-.02-.54,0-1.09-.01-1.62-.01-1.27,0-2.53,.03-3.8,.03-2.27-.01-4.54-.06-6.81-.01-.85,0-1.21-.26-1.2-.97,0,0,0-.02,0-.03,0,.7,.36,.96,1.2,.96,2.27-.04,4.54,0,6.81,0-2.27-.01-4.54-.06-6.81-.01h0c-.83,.01-1.19-.25-1.2-.95,0-.09,0-.19,.02-.3,.95-7.53,2.97-14.56,7.9-20.57,3.89-4.75,12.85-3.66,15.75-1.2,.5,.43,.73,.77,.67,1.09-.04,.32-.33,.64-.86,1.05-3.15,2.47-5.35,5.33-6.62,8.56-.06,.15-.11,.31-.16,.46Zm99.98-152.39v-.07c-1.34,20.26-9.3,36.73-24.19,49.23-2.22,1.86-4.58,3.66-7.11,5.34-5.49,3.78-11.33,6.99-17.46,9.61-1.51,.62-2.34,.54-3.33-.96-3.59-5.23-8.65-9.27-14.54-11.58-1.82-.89-3.88-1.2-5.88-.88-.02,.1-.01,.19,0,.26-.03-.08-.04-.17-.02-.29h-.03c-.09,.45,.2,.58,.47,.66h0c12.58,4.29,19.48,13.57,22.95,25.92,1.45,5.15,1.18,10.3,.17,15.42-2.36,11.92-7.2,23.09-11.58,34.22-4.38,11.13-9.21,22.09-12.94,33.47-.84,2.51-1.19,3.42-2.38,3.76,1.22-.32,1.58-1.25,2.41-3.79,3.73-11.38,8.51-22.26,12.94-33.47,4.42-11.21,9.25-22.3,11.58-34.22,1.01-5.12,1.28-10.27-.17-15.42-.22-.77-.44-1.52-.69-2.27,.25,.75,.48,1.52,.7,2.3,1.45,5.15,1.18,10.3,.17,15.42-2.34,11.92-7.16,23.01-11.58,34.22s-9.21,22.09-12.94,33.47c-.83,2.54-1.19,3.46-2.41,3.79-.73,.2-1.76,.19-3.41,.19-5.53-.04-11.09-.07-16.65,0-1.48,.02-2.02-.37-2.08-1.92-.14-4.63,.43-9.05,3.15-12.96,.52-.75,1.07-1.41,1.65-1.99,.05-.05,.1-.09,.15-.14,.23-.22,.45-.44,.69-.63,1.44-1.2,3.02-1.91,4.66-2.12,2.74-.34,5.64,.71,8.31,3.2h.01c.41,.45,.8,.94,1.13,1.45,0-.01,.01-.02,.02-.04-.33-.51-.7-.99-1.11-1.43,0,0,0,0,.01,.01,.41,.44,.79,.93,1.12,1.44,.98-1.28,.45-2.18-.09-2.97-2.19-3.17-5.19-5.01-9.09-4.7-1.66,.19-3.3-.52-4.29-1.88-.48-.56-.68-.89-.28-1.66,4.34-8.48,6.76-17.56,8.43-26.88,.29-1.65-.49-3.88,.58-4.82,0,0,.02-.01,.03-.02,.42-.37,.96-.56,1.57-.67,.49-.09,1.03-.13,1.56-.17,.57-.04,1.14-.08,1.67-.18,6.14-1.2,11.58-4.01,16.69-7.48,.18-.12,.38-.24,.55-.37,.26-.22,.42-.49,.22-.93-.41-.87-1.13-.47-1.67-.14-5.53,3.31-11.69,5.43-18.1,6.2-9.06,1.22-17.98,.45-26.24-3.9-13.09-6.89-21.08-17.92-24.56-32.05-2.81-11.59,.23-22.13,6.86-31.56,.38-.55,.78-1.1,1.19-1.64,4.59-6.3,10.78-11.26,17.92-14.37h0c.55-.23,1.29-.09,1.88-.49,.16-.1,.31-.23,.44-.43,.08-.13,.16-.28,.22-.46-4.9,.59-8.87,2.64-12.94,5.07-4.07,2.43-7.33,5.75-10.52,10.03-.68-3.06-1.35-5.62-1.83-8.2-2-10.72-2.95-21.6-2.82-32.49,0-.69,.07-1.17,.24-1.47,.13-.27,.35-.41,.67-.44,0,0,0,0,0,0,.32-.03,.76,.04,1.34,.2,5.45,1.45,10.96,1.76,16.44,.05,2.38-.76,4.56-2.02,6.4-3.72,.42-.38,.83-.78,1.13-1.27,.3-.5,.5-1.11,.48-1.9-6.39,5.92-14.07,6.22-21.68,4.79-7.54-1.43-14.43-4.3-17.95-12.1,0-.04,0-.07-.01-.11-.01-.03-.03-.06-.04-.09,.13,2.08,.97,3.82,.9,5.74-.02,.59-.08,1.17-.17,1.73-.06,.37-.12,.74-.22,1.1-.39,1.47-1.14,2.78-2.53,3.78-2.63,1.9-5.51,1.12-6.91-1.83-1.05-2.35-1.51-4.91-1.35-7.47,.05-1.44,0-2.88-.16-4.32-.52,1.29-.95,2.58-1.24,3.88,.29-1.31,.73-2.62,1.25-3.92v-.03c-1.68,4.18-2.49,8.38-.47,12.72h.01c.29,.62,1.04,1.33,.6,1.92,.06-.07,.1-.15,.12-.22-.02,.09-.06,.18-.13,.26,0,.01,0,.02-.02,.03-.48,.6-1.35,.07-2.07-.06-3.17-.6-5.12-2.46-6.18-5.52-1.29-3.7-1.3-7.43-.91-11.24-.25,.33-.46,.67-.65,1.01,.09-.17,.19-.34,.3-.51-1.66,2.56-1.51,5.43-1.19,8.32,.14,1.48,.46,2.95,.72,4.49,.01,0,.03,0,.04,.01,0,.02,0,.03,0,.05-.02,0-.05-.02-.07-.02,0,.02,0,.04,.01,.07-3.02-.89-5.21-4.59-5.07-8.6,.02-.41,.05-.83,.1-1.24,.44-3.96,2.14-7.45,4.61-10.2,.05-.05,.09-.1,.14-.15,.32-.35,.66-.69,1.02-1.02,.14-.13,.29-.26,.44-.38,.27-.23,.53-.46,.82-.67,.25-.2,.52-.38,.79-.56,.18-.13,.37-.26,.56-.38,.37-.24,.76-.46,1.15-.67,.09-.05,.19-.1,.28-.15,.49-.25,1-.48,1.51-.7,2.38-.98,5-1.48,7.73-1.36,.41,.02,.83,.05,1.24,.1,4.13,.39,7.9,1.43,11.43,2.91,5.91,2.49,11.17,6.24,16.34,10.31,.22,.17,.45,.31,.87,.59v-.08s0,0,0,0c.05-.97-.47-1.56-.77-2.19-2.99-6.4-3.99-13.56-2.84-20.53,.44-2.61,1.43-5.13,3.88-6.33,.46-.24,.96-.44,1.52-.57,2.67-.6,4.59,.75,6.23,2.49,.47,.51,.93,1.06,1.37,1.6h0c2.39,2.88,3.49,6.41,4.55,9.91,.58,1.94,1.06,3.93,1.63,5.87,0-.13-.02-.25-.03-.38,0-.03-.02-.07-.03-.1-.47-5.73-1.73-11.24-4.63-16.31-.74-1.27-1.66-2.42-2.74-3.41-2.97-2.79-6.79-3.04-9.73-.87-.66,.5-1.29,1.12-1.84,1.87-1.75,2.37-2.74,5.22-2.81,8.17-.02,.59-.04,1.18-.04,1.76,0-.61,.01-1.22,.04-1.83,.07-2.95,1.06-5.8,2.81-8.17,.55-.75,1.18-1.37,1.84-1.87-.68,.5-1.33,1.15-1.9,1.91h0c-1.75,2.37-2.74,5.22-2.81,8.17-.19,4.75,.34,9.51,1.59,14.11,.02,.01,.04,.03,.06,.04,0,.03,.01,.06,.02,.08-.03-.02-.05-.04-.08-.05,0,.03,.02,.07,.02,.1-1.81-1.21-3.16-2.1-4.51-3.01-.57-.39-.52-1.02-.47-1.6,.8-8.07,1.59-16.14,2.39-24.19,1.24-12.56,1.94-25.1,.19-37.65-.39-2.91-1.35-5.71-2.82-8.25-1.98-3.38-4.81-4.85-8.79-4.42-6.33,.68-11.27,4.15-16.26,7.65-.96,.68-1.78,1.59-2.84,2.3-.64,.43-1.38,.8-2.3,.97,5.06-6.71,9.57-13.4,14.07-20.09,8.46-12.61,15.87-25.77,20.23-40.45,.27-.92,.71-1.76,1.28-2.53,3.37-4.42,6.27-9.2,8.61-14.24,.25-.88,1.08-1.45,1.97-1.41h.15c2.05,0,4.09-.46,5.94-1.35,1.05-.45,1.7-1.33,1.28-2.46-.11-.28-.25-.46-.42-.57-.51-.31-1.26-.03-1.84,.17-1.54,.52-2.99,.78-4.35,.79-4.09,.02-7.44-2.15-10.37-5.66-.39-.47-.69-1.47-1.36-1.38-.1,.01-.2,.05-.31,.12-.54,.31-.56,.83-.43,1.36-.04-.14-.07-.27-.08-.41,.02,.16,.05,.32,.1,.48,.01,.04,.02,.07,.03,.11,.02,.07,.04,.13,.06,.2,.02,.07,.05,.13,.08,.2,.05,.14,.1,.27,.15,.39,.12,.34,.25,.67,.4,1,.97,2.2,2.62,4.03,4.71,5.24,.69,.37,1.06,.72,1.19,1.13,.11,.44-.03,.96-.39,1.68-4.75,9.91-11.51,18.29-19.68,25.53-13.89,12.37-29.32,22.34-46.61,29.19-1.89,.75-3.78,1.46-5.69,2.14,1.91-.68,3.81-1.39,5.7-2.14,17.28-6.84,32.73-16.83,46.62-29.19,8.17-7.27,14.92-15.62,19.68-25.53,.33-.7,.48-1.21,.38-1.64,.13,.45-.01,.99-.36,1.73-4.76,9.91-11.51,18.26-19.68,25.53-13.89,12.37-29.33,22.35-46.62,29.19-15.13,5.99-30.75,9.72-47,9.8-2.33,.01-4.66-.05-7.01-.19-20.52-1.2-39.25-7.38-54.46-21.73-12.86-12.11-21.16-26.85-23.44-44.52-3.46-26.92,1.75-52.11,16.16-75.21,9.46-15.16,22.14-27.11,37.2-36.59,7.61-4.79,15.23-9.59,23.48-13.27,2.63-1.16,5.29-2.2,7.98-3.14,6.23-2.21,12.62-3.84,19.12-5,.24-.04,.48-.1,.73-.14,.18-.03,.35-.05,.53-.08,3-.51,6.02-.94,9.08-1.26,1.8-.2,3.61-.36,5.41-.51,14.31-1.17,28.72-.62,42.91,1.66,24.46,4.04,44.57,15.76,60.75,34.4,7.82,9,12.37,19.81,16.17,30.9,1.03,2.99,1.94,6,2.73,9.02,2.47,9.44,3.77,19,3.63,28.66,.07-4.78-.21-9.52-.81-14.25,.61,4.75,.89,9.52,.82,14.33-.08,5.82-.68,11.67-1.86,17.58-1.2,5.97-4.05,11.41-6.38,17-3.84,9.19-8.52,17.96-12.63,27-1.79,4.04-3.39,8.16-4.81,12.34-2.65,7.84-4.64,15.88-5.93,24.06-1.83,10.91-3.39,21.88-2.9,32.94,.22,4.99,.59,9.94,1.15,14.86-.57-4.95-.94-9.94-1.16-14.95-.5-11.06,1.07-22.03,2.9-32.94,1.29-8.19,3.28-16.24,5.93-24.06-2.66,7.85-4.67,15.9-5.96,24.1-1.82,10.91-3.38,21.88-2.9,32.94,.89,19.99,4.13,39.54,12.97,57.78,2.59,5.34,5.6,10.35,9.11,14.99,3.5,4.62,7.5,8.87,12.11,12.69,5.79,4.8,11.81,8.8,19.43,9.88,9.34,1.3,18.24-.4,26.73-4.15,8.89-3.92,16.51-9.48,22.44-17.06,.85-1.09,1.66-2.21,2.43-3.37,.1-.16,.23-.3,.43-.53,.11-.13,.23-.26,.39-.45,.5,3.45,.62,6.94,.36,10.41-1.34,20.25-9.29,36.68-24.16,49.2,14.9-12.5,22.85-28.98,24.19-49.23,.13-1.74,.16-3.48,.1-5.22,.06,1.77,.03,3.54-.1,5.31Z"/>
  <path class="cls-2" d="M396.04,300.42s.01-.02,.02-.03c0,.01-.01,.02-.02,.03Z"/>
  <path class="cls-2" d="M391.93,491.71c1.51,0,3.01-.04,4.51-.03-1.49,0-2.98,.01-4.47,.01-2.12,0-4.24-.06-6.35,0-.36,.01-.65-.02-.87-.09,.22,.08,.49,.11,.84,.11,2.11-.05,4.23,0,6.34,0Z"/>
  <path class="cls-2" d="M401.71,225.28h0c1.06-.68,1.88-1.6,2.84-2.29,0,0-.01,0-.02,.01-.96,.66-1.77,1.57-2.82,2.28Z"/>
  <path class="cls-2" d="M396.44,299.86h0s.03-.03,.03-.03l.02-.03-.1,.06,.02,.02h0s.03-.02,.03-.02Z"/>
  <path class="cls-2" d="M450.65,143.33c-1.54,.52-2.98,.78-4.34,.79,1.37,0,2.81-.25,4.35-.79,.58-.2,1.33-.48,1.84-.17-.51-.33-1.27-.03-1.85,.17Z"/>
  <path class="cls-2" d="M368.11,205.5c-8.48,3-17.11,5.25-25.93,6.51,8.81-1.26,17.46-3.51,25.93-6.51Z"/>
  <path class="cls-2" d="M411.38,430.31h0c-10.04-.5-19.03-3.57-26.41-10.65l-.37-.36c-1.06-.72-1.97-1.62-2.69-2.68l-.38-.39v-.05l-.37-.4c-3.13-3.32-5.69-7.13-7.58-11.29l-.4-.54h-.06s-.07-.02-.1-.04l.06,.07,.4,.54c1.89,4.15,4.45,7.97,7.58,11.29l.36,.4,.05,.05,.38,.39c.72,1.06,1.63,1.96,2.69,2.68l.37,.36c7.38,7.08,16.37,10.14,26.41,10.65,7.71,.38,15.36-1.05,22.37-4.14-6.99,3.07-14.64,4.49-22.31,4.11Z"/>
  <path class="cls-2" d="M372.78,403.55v-.06h.01v.06s.01,.06,.02,.09l.05,.06s-.02-.1-.01-.16h-.01s0,.01,0,0l-1.89-5.18-.24-.5c-2.61-7.73-2.54-16.11,.2-23.78,0-.01,0-.03,.01-.05h-.06c-2.75,7.68-2.82,16.06-.2,23.77l-.05,.08,.24,.5,1.89,5.18,.06,.08s-.02-.06-.02-.09Z"/>
  <path class="cls-2" d="M342.63,302.1v-.03c-.65,1.69-1.17,3.39-1.44,5.09,.27-1.7,.79-3.38,1.44-5.06Z"/>
  <path class="cls-2" d="M341,309.57c0-.81,.07-1.61,.19-2.42-.13,.8-.2,1.6-.19,2.41h0Z"/>
  <path class="cls-2" d="M352.61,303.38c.99,2.37,1.53,4.41,1.3,6.67h0c-.11,1.13-.33,2.22-.78,3.19,.45-.99,.68-2.09,.8-3.2,.22-2.2-.31-4.28-1.29-6.64-.01,0-.02-.01-.03-.02Z"/>
  <path class="cls-2" d="M332.88,313.58h0s.02,.02,.03,.02c-.69-4.76-1.98-9.16,.63-13.31h-.02c-2.62,4.16-1.37,8.53-.64,13.29Z"/>
  <path class="cls-2" d="M351.89,315.03c-.05,.04-.09,.09-.14,.14,.05-.04,.14-.14,.14-.14Z"/>
  <path class="cls-2" d="M342.76,316.65v-.02s-.02,.03-.02,.03c-.05,.07-.12,.13-.19,.17h.01c.07-.04,.14-.1,.2-.18Z"/>
  <path class="cls-2" d="M351.08,315.71c.09-.06,.16-.13,.25-.2-.09,.07-.17,.14-.26,.2h.01Z"/>
  <path class="cls-2" d="M457.35,491.71h-.94c.31,0,.62,0,.94,.02,1.13,.04,1.47-.25,1.42-1.19,.04,.93-.3,1.22-1.42,1.17Z"/>
  <path class="cls-2" d="M467.32,469.72c-.04,.32-.34,.63-.86,1.04-3.14,2.47-5.34,5.34-6.62,8.57,1.28-3.23,3.47-6.09,6.62-8.56,.52-.41,.82-.73,.86-1.05Z"/>
  <path class="cls-2" d="M399.4,491.55c-.26,.12-.62,.15-1.11,.13-.48-.01-.97,0-1.45-.01,.47,0,.95,.01,1.42,.03,.5,.02,.88-.02,1.14-.15Z"/>
  <path class="cls-2" d="M433.05,491.73c-1.86,0-3.74-.06-5.6,0,1.86-.04,3.74,0,5.6,0Z"/>
  <path class="cls-2" d="M427.45,491.73s-.04,0-.06,0h0s.04,0,.06,0Z"/>
  <path class="cls-2" d="M439,491.69h-.55c.17,0,.34,0,.52,.01,.31,.01,.59,0,.83-.04-.23,.04-.49,.04-.8,.03Z"/>
  <path class="cls-2" d="M372.85,403.71l-.05-.06c.02,.07,.06,.13,.11,.18-.03-.03-.05-.07-.06-.11h0Z"/>
  <path class="cls-2" d="M402.16,93.31l-.03,.04c.09-2.35-.41-4.67-1.45-6.78-2.04-3.76-6.53-4.17-8.88-.67-.09,.13-.17,.27-.25,.4-.1,.15-.2,.31-.29,.46-.09,.15-.17,.3-.25,.45-.08,.14-.16,.28-.23,.42-.15,.29-.29,.58-.42,.88-.6,1.35-1.01,2.73-1.25,4.15-.47,2.71-.33,5.52,.36,8.36,.5,2.3,2.39,4.03,4.71,4.34,1.91,.29,3.4-.36,4.6-1.56-1.2,1.19-2.68,1.82-4.58,1.52-1.17-.16-2.22-.67-3.05-1.43,.82,.76,1.88,1.27,3.04,1.42,1.89,.31,3.38-.33,4.58-1.52,.14-.14,.27-.29,.4-.44,.06-.06,.12-.12,.17-.19,.1-.13,.2-.27,.3-.4,.08-.11,.16-.21,.24-.32,1.79-2.64,2.38-5.58,2.28-9.15v.02Z"/>
  <path class="cls-2" d="M399.86,102.47s0-.02,.02-.03c-.08,.11-.16,.21-.24,.32,.07-.1,.15-.19,.22-.29Z"/>
  <path class="cls-2" d="M408.6,77.45c-.23-1.3-.8-2.52-1.62-3.55-2.58-3.56-6.67-5.7-11.06-5.79v.04c-3.5,.04-6.21,.45-8.73,1.79-.44,.24-.85,.55-1.02,.98-.04,.12-.06,.26-.06,.4,0-.15,.02-.29,.06-.42-.11,.27-.13,.58,.01,.96,.36,.93,1.13,1.03,1.99,.78,.35-.1,.73-.14,1.07-.24,6.88-2.02,12.54-.43,16.72,5.6,.11,.19,.25,.36,.4,.51,.47,.4,.91,1.15,1.63,.73,.14-.11,.26-.24,.35-.38,.09-.12,.16-.26,.21-.41,.1-.31,.12-.64,.03-.98v-.02Z"/>
  <path class="cls-2" d="M300.7,167.11c-.06,.41-.14,.86-.23,1.33,.1-.47,.17-.91,.23-1.33Z"/>
  <path class="cls-2" d="M303.15,160.86h0c-1.39-2.8-4.83-4.35-7.27-3.31-.15,.07-.3,.14-.44,.23-2.13,1.28-3.1,4.73-2.02,7.94,0,0,0,0,0,.01,0,0,0,0,0-.01,0,0,0,0,0,.01,.3-.65,.57-1.22,.84-1.71,1.27-2.32,2.34-2.91,3.92-2.51-.37-.1-.71-.14-1.03-.13,.32-.02,.66,.03,1.04,.13,.13,.03,.26,.07,.4,.12,.18,.06,.33,.14,.49,.22,1.51,.75,2.04,2.32,1.63,5.22,.39-2.73,.02-4.28-1.35-5.09,1.6,.93,1.86,2.86,1.12,6.47,1.09-.67,1.92-1.53,2.47-2.49,.15-.27,.27-.55,.38-.83,.46-1.19,.5-2.47,.07-3.67-.07-.2-.16-.4-.25-.6Z"/>
  <path class="cls-2" d="M300.7,167.07s0,.03,0,.04c0-.01,0-.03,0-.04Z"/>
  <path class="cls-2" d="M303.15,160.85c.1,.2,.18,.4,.25,.61-.07-.2-.15-.41-.25-.61Z"/>
  <path class="cls-2" d="M303.41,161.47s0-.01,0-.02c0,0,0,0,0,0,0,0,0,0,0,.01Z"/>
  <path class="cls-2" d="M295.42,157.78c-2.22,1.32-3.12,4.73-2.01,7.96-1.09-3.21-.12-6.67,2.01-7.96Z"/>
  <path class="cls-2" d="M303.15,160.85c-1.39-2.79-4.73-4.4-7.27-3.3,2.44-1.05,5.88,.51,7.27,3.3Z"/>
</svg>