<?xml version="1.0" encoding="utf-8"?>
<!-- Generator: Adobe Illustrator 26.5.0, SVG Export Plug-In . SVG Version: 6.00 Build 0)  -->
<svg version="1.1" id="Layer_1" xmlns="http://www.w3.org/2000/svg" xmlns:xlink="http://www.w3.org/1999/xlink" x="0px" y="0px"
	 viewBox="0 0 1000 530" style="enable-background:new 0 0 1000 530;" xml:space="preserve">
<style type="text/css">
	.st0{fill:#FFFFFF;}
	.st1{fill:#010101;}
</style>
<path class="st0" d="M0,0v530h1000V0H0z M656,371.2c-6.1,13.3-16.1,23-28.4,30.5c-5,3-10.1,5.8-15.8,7.5c-1.5,0.5-1.4,1.1-0.8,2.2
	c3.4,6.7,4.6,14.3,3.4,21.7c-1.3,9.4-4.5,18.3-7.6,27.2c-3.5,9.9-8.5,19.2-12.2,29.1c-2.2,6-4.3,12.1-6.3,18.2
	c-0.7,2.1-1.7,2.9-3.9,2.9c-20.9-0.1-41.8,0-62.8,0c-18.6,0-37.2-0.2-55.8-0.2c-1.5,0-2.8-0.4-2.7-2.1c0.2-6.9,0.5-13.8,4.4-19.9
	c1.6-2.6,3.7-4.7,6.2-6.4c4.3-3,10.1-2.7,14,0.7c1.1,0.9,1.5,0.9,2.6,0c4.8-4.3,10.3-5.2,16.3-2.3c3.3-10,6.6-19.8,8.1-30.2
	c0.3-1.9-0.8-1.6-1.9-1.6c-9.7,0.1-18.8-2.4-26.4-8.4c-12.6-9.9-20.2-22.6-20.5-38.9c-0.1-5.4,1-10.7,3.1-15.6c0.5-1,0.5-2.1,0-3.1
	c-7.2-15.4-10.4-32.3-9.4-49.2c0.2-4.4,0.1-4.4-4.2-6.9c-0.2,2.9-1.9,5.5-4.6,6.7c-0.5,0.4-1.2,0.6-1.8,0.7c-4.3-0.4-8.7,1-12.7-1.8
	c-1.4-0.9-2.9-1.6-4.5-1.9c-3.3-0.9-5.9-5.1-6.1-9.3c-0.4-9.2,6.2-17.9,15.2-20.3c7.4-2,14.3-0.2,21,3c1.3,0.6,1.7,0.6,2.2-1
	c6-22.2,16.5-42,30.7-60.1c12.9-16.4,24.4-33.8,33-52.9c0.4-0.8,1-1.6,0.7-2.7c-0.9-0.3-1.2,0.5-1.5,0.9c-11.6,12-25.3,21.2-40,28.8
	c-19.6,10-40.5,15.5-62.6,15.3c-20.8-0.2-40.1-5.6-56.6-18.8c-15.8-12.6-25.7-28.9-29.2-48.9c-0.7-4.3-1.2-8.7-1.4-13.1v-8.6
	c0.3-3.5,0.5-7,1-10.5c2.7-21,10.2-40,23.2-56.7c9.2-11.8,20.4-21.4,33.1-29.4c11.8-7.4,23.9-14.1,37.4-18c14-4,28.1-5.6,42.6-6.1
	c17.2-0.6,34.4,2,50.6,7.8c5.5,2,9.7,2,14.7-1c7.3-4.5,15.5-7.4,24-8.5c0.4,0,0.9-0.1,0.8-0.7h5.7c0,0.6,0.5,0.6,0.9,0.7
	c7.8,1.1,11.9,6.4,14.3,13.2c3.2,8.8,3.3,18,1.7,27.2c-1,6-3,11.8-6,17c-0.9,1.5-0.6,1.7,1.1,2c13.2,2.2,25.3,7.1,35.7,15.7
	c8,6.6,9.3,15.6,4.1,24.6c-6,10.2-14.7,17.7-24.4,24.1c-2,1.3-4.1,2.5-6.3,3.9c3,2.7,5.8,5.3,8.5,8.2c2.9,3.3,5.6,6.9,8.1,10.6
	c6.5,9.6,2.4,19.4-4.8,24.6c-5.5,3.9-11.8,5.7-18,7.6c-5,1.5-10.1,2.2-15,3.9c-0.7,0.2-1.3,0.5-2.5,0.9c2.2,1.5,4.1,2.8,6,4.1
	c5.7,4,11.4,8,15.5,13.7c4.7,6.7,5,12,0.8,18.2c-1.9,2.9-4.2,5.6-6.7,8.1c-5.3,5.1-11.3,9.3-17.8,12.7c-1.5,0.8-3,1.6-4.8,2.5
	c3,0.6,5.7,1,8.3,1.6c3.4,0.7,6.6,1.9,9.6,3.7c6.4,4,8.2,10.2,5,17c-2.4,4.9-6.2,8.6-10.3,12.1c-1.5,1.3-3.1,2.6-4.7,3.9l-0.3,0.4
	h0.7c4.9-0.6,9.9-1,14.8,0.1c6.8,1.6,9.3,5.8,7.2,12.5c-1.8,5.8-5.2,10.7-8.5,15.8c-0.5,0.6-0.9,1.4-1,2.2c1.7-0.7,3.2-1.5,4.8-2.1
	c3.5-1.4,7-2.5,10.9-1.6c3.8,0.8,6,3.2,6.4,7.1c0.5,3.4-0.2,6.8-1.8,9.7c-0.2,0.5-0.8,1-0.2,1.7c1-0.4,1.9-1.1,2.6-1.9
	c2-1.7,3.9-3.6,6-5.2c3.3-2.5,6.3-1.9,8.5,1.6c1.2,1.9,2.1,4,2.8,6.1c0.3,0.9,0.4,1.9,1.2,2.8c0.6-3.1,1.8-6.2,3.4-9
	c2.7-4.6,5.6-5.2,9.9-1.9c1.7,1.3,3.4,2.8,5,4.3c0.7,0.7,1.2,1,2.2,0.3c6.7-4.8,12.5-10.3,15.9-18c0.6-1.5,0.6-3.1,1.5-4.7l0,0
	c1.1,0.6,1.1,1.8,1.3,2.6C664.8,340.6,662.9,356.3,656,371.2L656,371.2z"/>
<path class="st0" d="M498.6,302.5C498.6,302.5,498.6,302.5,498.6,302.5C498.6,302.5,498.6,302.5,498.6,302.5
	C498.6,302.5,498.6,302.5,498.6,302.5L498.6,302.5z"/>
<path class="st0" d="M488.4,405.8c8.2,7.3,17.9,12,28,15.9c4.7,1.7,9.6,2.7,14.6,3v0h0c0,0,0,0,0,0h0c0.1-0.6-0.1-1.3-0.5-1.8
	c-1.8-3.2-3.2-6.6-4.2-10.1c-3.4-11.9-1.5-23.2,4.7-33.7c0.8-1.3,1.1-2.9,0.6-4.3c-0.8-2.6-1.3-5.2-1.9-7.9
	c-2.3-11.1-3-22.3-2.9-33.5c0-1.5-0.3-2.4-1.8-3h0c-1.9-0.8-3.7-1.8-5.2-3.1c-0.3-0.3-0.6-0.5-0.9-0.6c-0.2-0.1-0.3-0.1-0.4-0.1
	c-0.3,0-0.6,0.4-0.7,1.3c-0.5,2.5-2,4.6-4.2,5.3c-0.3,0.1-0.6,0.2-1,0.2c-1.9,0.3-3.8,0.5-5.7,0.5c-1.9,0-3.8-0.3-5.7-1
	c-1.3-0.6-2.6-1.3-3.9-2c-0.3-0.2-0.6-0.4-1-0.5c-5.1-1.4-7.6-4.6-7.9-9.6l0,0c-0.3-6.7,3.2-13.3,8.5-17.2c0,0,0,0,0,0c0,0,0,0,0,0
	c0.5-0.4,1-0.7,1.5-1c0,0,0,0,0.1,0c0,0,0.1-0.1,0.1-0.1c0.2-0.1,0.4-0.2,0.6-0.4c0.2-0.1,0.3-0.2,0.5-0.2s0.3-0.2,0.5-0.2
	c0.1,0,0.1-0.1,0.2-0.1c0.2-0.1,0.5-0.2,0.8-0.3c0.2-0.1,0.5-0.2,0.7-0.3c0.1,0,0.3-0.1,0.5-0.2c0.4-0.1,0.8-0.2,1.2-0.4
	c-0.4,0.1-0.8,0.2-1.2,0.4c-0.2,0-0.3,0.1-0.5,0.2c-0.2,0.1-0.5,0.2-0.7,0.3c-0.3,0.1-0.5,0.2-0.8,0.3c-0.1,0-0.1,0.1-0.2,0.1
	c-0.1,0-0.2,0.1-0.3,0.1c0.8-0.4,1.6-0.7,2.4-1c0.4-0.1,0.8-0.2,1.2-0.4c6.1-1.6,12-0.7,17.8,1.6c2.1,0.9,4.1,1.8,6.3,2.8v0
	c0.7-7,1.2-13.6,2-20.3c1.6-12.1,2.1-24.3,1.6-36.5c-0.2-4.5-1.1-9-3.6-12.9l0,0c-1.2-2.1-3.5-3.3-5.9-3.1c-1.8,0.1-3.4,0.4-5,0.9
	c-2.7,0.9-5.1,2.3-7.5,3.9c-12.9,8.8-22.6,20.2-29.7,34.2c-10.1,19.9-16.3,40.7-17.1,63.1v0c-0.7,17.4,2.9,34.7,10.4,50.3
	C476.8,392.4,481.6,399.9,488.4,405.8L488.4,405.8z"/>
<path class="st0" d="M497,303.6C497,303.6,497,303.6,497,303.6C497,303.6,497,303.6,497,303.6C497,303.6,497,303.6,497,303.6
	L497,303.6z"/>
<path class="st0" d="M498.6,302.5c0.1-0.1,0.2-0.1,0.3-0.2c-0.1,0-0.1,0.1-0.2,0.1C498.7,302.5,498.6,302.5,498.6,302.5z"/>
<path class="st0" d="M566.5,485.8c0.5-0.4,0.8-0.7,0.9-1c0-0.3-0.2-0.6-0.7-1.1c-2.9-2.5-11.9-3.6-15.8,1.2c-4.9,6-7,13-7.9,20.6
	c0,0.1,0,0.2,0,0.3c0,0.7,0.4,1,1.2,1c2.3,0,4.5,0,6.8,0c-2.3,0-4.5,0-6.8,0c-0.8,0-1.2-0.3-1.2-1c0,0,0,0,0,0c0,0.7,0.3,1,1.2,1
	c2.3,0,4.5,0,6.8,0c1.3,0,2.5,0,3.8,0c0.5,0,1.1,0,1.6,0c0.3,0,0.6,0,0.9,0l0,0c1.1,0,1.5-0.2,1.4-1.2c0-0.1,0-0.3,0-0.5
	c-0.3-2.5-0.3-4.8,0.1-7v0c0.1-0.4,0.2-0.9,0.3-1.3c0-0.1,0.1-0.2,0.1-0.3c0.1-0.3,0.2-0.6,0.3-1c0.1-0.2,0.2-0.5,0.3-0.8
	c0-0.1,0.1-0.3,0.2-0.5C561.1,491.1,563.3,488.3,566.5,485.8L566.5,485.8z M558.8,505.5c0,0.9-0.3,1.2-1.4,1.2c-0.3,0-0.6,0-0.9,0
	h0.9C558.5,506.8,558.8,506.5,558.8,505.5z M559.8,494.3c1.3-3.2,3.5-6.1,6.6-8.6c0.5-0.4,0.8-0.7,0.9-1c0,0.3-0.3,0.6-0.9,1
	C563.3,488.2,561.1,491.1,559.8,494.3L559.8,494.3z"/>
<polygon class="st0" points="590.7,144.8 590.7,144.8 590.7,144.8 "/>
<path class="st0" d="M545.8,487.2c0.7-1.2,0.4-1.8-0.5-2.5c-2.3-1.8-5.8-2-8.9-1.1c-1.1,0.3-2.1,0.8-3,1.4c-0.6,0.4-1.2,0.9-1.7,1.4
	c-4.5,5.4-6.2,11.6-6.3,18.4c0,1.7,0.6,2,2,1.9l0,0c0,0,0,0,0.1,0c1.9-0.1,3.7,0,5.6,0c-1.9,0-3.7,0-5.6,0c0,0,0,0-0.1,0l0,0
	c0,0,0,0,0,0c-1.4,0-2.1-0.3-2-1.9c0.1-4.7,0.9-9.1,2.9-13.2c-2,4-2.8,8.5-2.9,13.2c0,1.7,0.6,2,2,1.9c1.9,0,3.8,0,5.7,0h0v0
	c1,0,2.1,0,3.1,0c0.8,0,1.5,0,2.2,0c0.2,0,0.3,0,0.5,0c0.3,0,0.6,0,0.8,0v0c0.7-0.1,1-0.5,1-1.6
	C540.5,498.5,542.6,492.7,545.8,487.2L545.8,487.2z M539,506.7c-0.2,0-0.3,0-0.5,0L539,506.7c0.3,0,0.6,0,0.8,0
	C539.6,506.7,539.3,506.7,539,506.7L539,506.7z"/>
<path class="st0" d="M461.2,305.8c-1.5-0.7-3.1-1.3-4.7-1.8C458.1,304.4,459.6,305,461.2,305.8L461.2,305.8c1.3,0.6,1.7,1.4,1.4,2.8
	c-1.2,5.3-2.1,10.8-2.5,16.2c-0.1,0.7-0.2,1-0.4,1c0.2-0.1,0.4-0.4,0.4-1c0.5-5.5,1.3-10.9,2.5-16.2
	C462.9,307.2,462.5,306.4,461.2,305.8c-6.2-2.8-12.6-4.2-19.4-3.1c-2.1,0.4-4.1,1.2-5.8,2.4c-5.4,3.6-8.9,10.4-8,16.7
	c0.3,3,2.2,5.6,4.9,6.9v0l0,0c-0.7-4.7-2-9.1,0.6-13.2c0,0,0,0,0-0.1c0,0,0,0,0,0.1c0,0,0,0,0-0.1c-0.5,3.5-0.2,7,0.8,10.4
	c0.5,1.6,1.2,2.9,2.3,3.9c1,1,2.4,1.6,4,2c0.3,0,0.5,0.1,0.8,0.2c-0.3-0.1-0.6-0.2-0.8-0.2c-0.4-0.1-0.8-0.2-1.2-0.3
	c0.4,0.1,0.8,0.2,1.2,0.3c0.3,0.1,0.5,0.1,0.8,0.2c0.4,0.1,0.7,0.1,1,0c0.1,0,0.1-0.1,0.2-0.2c0,0,0,0,0,0c0.5-0.6-0.2-1.2-0.5-1.8
	c-0.9-1.8-1.2-3.5-1.2-5.3c0-2.5,0.7-5,1.6-7.5c0.2,1.4,0.2,2.8,0.2,4.2c-0.1,2.5,0.3,5,1.2,7.3c1.4,3.1,4.2,4,7,2.1h0
	c0.1-0.1,0.2-0.1,0.2-0.2c0.1-0.1,0.3-0.2,0.4-0.3c0,0,0.1-0.1,0.1-0.1c0.1-0.1,0.3-0.3,0.4-0.5c0,0,0.1-0.1,0.1-0.2
	c0.1-0.2,0.2-0.3,0.3-0.5c0.1-0.2,0.2-0.4,0.3-0.6c0,0,0,0,0,0c0.5-1,0.7-2.1,0.8-3.2c0.2-2.2-0.3-4.3-1.3-6.6
	c1.7,0.7,1.9,1.9,2.3,2.9c0.7,1.8,2.1,2.9,3.6,4c0.4,0.3,0.8,0.5,1,0.4h0c0.2-0.1,0.4-0.4,0.4-1c0.5-5.5,1.3-10.9,2.5-16.2
	C462.9,307.2,462.5,306.4,461.2,305.8L461.2,305.8z M432.9,328.6L432.9,328.6L432.9,328.6c-0.8-4.8-2-9.2,0.6-13.3h0
	C430.9,319.4,432.2,323.8,432.9,328.6z M442.7,331.7C442.7,331.7,442.7,331.6,442.7,331.7L442.7,331.7c0,0.1-0.1,0.1-0.2,0.2h0
	C442.6,331.8,442.7,331.7,442.7,331.7L442.7,331.7z M442.6,317.1c-0.6,1.7-1.2,3.4-1.4,5.1c-0.1,0.8-0.2,1.6-0.2,2.4l0,0
	c0-0.8,0.1-1.6,0.2-2.4C441.5,320.5,442,318.8,442.6,317.1L442.6,317.1z M451.1,330.7L451.1,330.7c0.1-0.1,0.2-0.1,0.2-0.2
	C451.2,330.6,451.2,330.6,451.1,330.7z M451.7,330.2c0,0,0.1-0.1,0.1-0.1C451.9,330,451.8,330.1,451.7,330.2z M453.9,325
	c-0.1,1.1-0.3,2.2-0.8,3.2C453.6,327.3,453.8,326.2,453.9,325L453.9,325c0.2-2.2-0.3-4.3-1.3-6.7c0,0,0,0,0,0
	C453.6,320.8,454.2,322.8,453.9,325L453.9,325z"/>
<path class="st0" d="M579.2,77.6c0.8-1.1,1.5-2.3,1.9-3.6c1.7-4.8,3-9.8,3.8-14.8c0.9-5.7,1.1-11.4,0.3-17
	c0.8,5.6,0.7,11.4-0.3,17.1c-0.8,5.1-2.1,10-3.8,14.8C580.7,75.4,580,76.6,579.2,77.6C579.2,77.7,579.2,77.7,579.2,77.6
	c0.9-1,1.5-2.3,1.9-3.6c1.7-4.8,3-9.8,3.8-14.8c0.9-5.7,1.1-11.5,0.3-17.1c-0.4-2.6-1-5.1-1.8-7.6c-0.6-1.9-1.4-3.5-2.3-5
	c-0.8-1.3-1.7-2.4-2.7-3.3c1,1,1.9,2.1,2.7,3.3c-1.5-2.3-3.3-4.1-5.4-5.4c-2.5-1.5-5.4-2.1-8.7-2c-11.7,0.6-21.8,5.9-32.2,11.3
	C554.2,43.6,569.1,58.1,579.2,77.6L579.2,77.6z"/>
<path class="st0" d="M534.7,33.6c9.8,5.1,18.4,11.2,25.8,18.6C553.1,44.8,544.5,38.6,534.7,33.6L534.7,33.6z"/>
<path class="st0" d="M522,232c0,0-0.1,0-0.1,0c-0.2,0-0.4,0-0.7,0.1c0.2,0,0.4,0,0.7-0.1C521.9,232,522,232,522,232z"/>
<path class="st0" d="M507.7,485.7c1.1-0.9,1.1-1.3,0.1-2.1c-2.7-2.2-10-3.2-14.4,0c-0.6,0.5-1.2,1-1.7,1.6c-1.5,1.9-2.7,3.9-3.6,6
	c-2.1,4.4-3.2,9.1-3.9,14c0,0.1,0,0.2,0,0.3c0,0,0,0.1,0,0.1c0,0.1,0,0.1,0,0.2c0,0.1,0,0.1,0,0.2c0,0.1,0,0.1,0.1,0.2
	c0,0,0,0,0,0.1c0.1,0.2,0.2,0.3,0.5,0.4c0,0,0,0,0,0c0.2,0.1,0.5,0.1,0.9,0.1c2.1-0.1,4.2,0,6.4,0c1.5,0,3,0,4.5,0
	c0.1,0,0.3,0,0.4,0c0.5,0,1,0,1.5,0c0.5,0,0.9,0,1.1-0.1c-0.3,0.1-0.6,0.2-1.1,0.1c-0.5,0-0.9,0-1.4,0c-0.1,0-0.3,0-0.4,0
	c-1.5,0-3,0-4.5,0l0,0c-2.1,0-4.2,0-6.3,0c-0.4,0-0.6,0-0.8-0.1c0,0,0,0,0,0c-0.1,0-0.2-0.1-0.3-0.2c0.2,0.2,0.6,0.3,1.2,0.3
	c2.1,0,4.2,0,6.3,0c2.1,0,4.2-0.1,6.3,0c0.5,0,0.9,0,1.1-0.1h0c0.5-0.2,0.6-0.7,0.5-1.6C498.9,497.1,501.4,490.6,507.7,485.7
	L507.7,485.7z"/>
<path class="st0" d="M480,506.7c-2-0.1-4,0-5.9,0l0,0C476.1,506.8,478.1,506.6,480,506.7c0.5,0,1,0,1.2-0.2l0,0
	C481,506.7,480.6,506.8,480,506.7L480,506.7z"/>
<path class="st0" d="M474.1,506.7H468c-0.8,0-1.5,0-1.5-1.1l0,0c0,1.1,0.7,1.1,1.5,1.1H474.1z"/>
<path class="st0" d="M486.7,487.6c1.1-1.8,0.5-2.6-1-3.4c-3.9-2.2-8.8-1.5-12,1.5c0,0,0,0,0,0c0,0-0.1,0.1-0.1,0.1
	c-0.3,0.3-0.6,0.6-0.9,0.9c-0.9,1-1.7,2-2.4,3.1c-2.9,4.6-3.7,10-3.8,15.7c0,1.1,0.7,1.1,1.5,1.1h6.1v0.1c2,0,4-0.1,5.9,0
	c0.5,0,0.9,0,1.2-0.1l0,0c0.5-0.2,0.7-0.7,0.7-1.7C481.7,498.6,483.6,492.9,486.7,487.6L486.7,487.6z"/>
<path class="st0" d="M512.3,484c5.7-0.3,9.5,2.1,11.6,7.4v0c0,0,0,0,0,0l0,0C521.8,486,518,483.6,512.3,484
	c-1.6,0.1-3.1-1.1-3.2-2.7c0-0.1,0-0.3,0-0.4c0,0.1,0,0.3,0,0.4C509.2,482.9,510.7,484.1,512.3,484L512.3,484z"/>
<path class="st0" d="M539.7,479.9c2.9,0.4,5.3,1.1,7.2,3c0.9,0.9,1.4,0.6,2.2-0.1c3.3-2.9,7-4.5,11.6-4c1.8,0.2,3.8,2,4.9,1
	c1.1-1,1.3-3.5,1.8-5.3c2.6-7.9,4.9-15.9,6.1-24.1c0.2-1.1,0.4-2-1.3-1.9c-6,0.2-12-0.9-17.5-3.1c-1-0.4-1.5-0.4-1.9,0.7h0
	C549.1,457.5,545.2,468.8,539.7,479.9L539.7,479.9L539.7,479.9z"/>
<path class="st0" d="M533,481.8c2.7-1.3,4-3.4,4.9-6c0.2-0.6,0.5-1.2,0.7-1.8c3.8-9.3,7.2-18.8,10.7-28.2c0.5-1.4,0.5-2.4-0.7-3.3
	c-0.2-0.1-0.4-0.3-0.6-0.4c-2.3-1.4-4.5-2.9-6.4-4.7c-0.3-0.3-0.7-0.6-1-0.9c-0.1-0.1-0.3-0.3-0.4-0.4c-1.4-1.4-2.7-2.9-3.9-4.6
	c-0.4-0.5-0.8-1.1-1.2-1.5c-1.1-1.2-2.2-2.1-3.6-2.5c-0.9-0.2-2-0.3-3.2-0.1c-0.5,0-1,0-1.5-0.1c-1.6-0.2-3.1-0.5-4.6-0.9
	c-4.5-1.1-8.7-2.8-12.9-4.7c-8.2-3.8-16.1-8-22.9-14c-1-0.9-1.9-1.7-2.8-2.7c-4.6-4.7-8.1-10.1-11.3-15.8c0-0.3-0.1-0.5-0.3-0.7
	c0-0.1-0.1-0.1-0.1-0.1c0,0,0,0,0,0c0,0,0,0-0.1,0c-0.1,0-0.1-0.1-0.2-0.1l0,0c-0.5,0-0.3,0.6-0.4,0.9h-0.1c0.1-0.2,0-0.6,0.1-0.8
	c-0.1,0.2-0.1,0.6-0.2,0.8c-2.8,7.7-2.8,16.1-0.2,23.8l0,0.1l0.2,0.5l1.9,5.2l0.1,0.1c0,0.1,0.1,0.1,0.1,0.2c0,0,0.1,0.1,0.1,0.1
	l0.1,0.1l0.4,0.5c1.9,4.2,4.5,8,7.6,11.3l0.4,0.4l0,0l0.4,0.4c0.7,1.1,1.6,2,2.7,2.7l0.4,0.4c7.4,7.1,16.4,10.1,26.4,10.6
	c7.7,0.4,15.4-1,22.4-4.1c1.6-0.7,3.2-1.5,4.8-2.4c0.1-0.1,0.3-0.1,0.4-0.2c0.4-0.2,0.9-0.4,1.2,0.2c0.1,0.2,0.2,0.4,0.1,0.5
	c0-0.2,0-0.3-0.1-0.6c-0.3-0.6-0.8-0.5-1.2-0.2c0.5-0.2,1-0.4,1.3,0.2c0.3,0.5,0.1,0.9-0.3,1.1c-0.2,0.2-0.4,0.3-0.7,0.5
	c-4.6,3.2-9.5,5.6-14.8,7c-1.8,0.5-3.6,0.8-5.5,1c-0.6,0.1-1,0.2-1.2,0.5c-0.1,0.1-0.1,0.1-0.1,0.2c-0.1,0.2-0.1,0.5-0.1,0.9
	c0,1.5-0.1,2.9-0.3,4.3c-1.5,8.7-4.1,17.2-7.8,25.2c-0.8,1.5-0.2,3.2,1.2,4c0.5,0.3,1.1,0.4,1.7,0.3c5.7-0.3,9.5,2.1,11.6,7.5v0
	l-0.4,1.2c0,0,0,0,0-0.1v0c-0.7-1-1.5-2-2.4-2.8c-0.8-0.7-1.7-1.3-2.7-1.8c-1.3-0.7-2.7-1-4.1-1.1c-2.8-0.1-5.7,1.2-8,4.5
	c-3,4.4-3.6,9.1-3.3,14.2c0,0.5,0.2,0.8,0.5,1c-0.3-0.1-0.5-0.4-0.5-1c0-0.6-0.1-1.3-0.1-1.9c0,0.6,0,1.3,0.1,1.9
	c0,0.6,0.2,0.9,0.5,1c0.2,0.1,0.6,0.2,1,0.2h16c1.1,0,1.5-0.4,1.6-1.5h0c0.4-4.7,0.8-9.4,2.6-13.9
	C526.6,487.6,528.9,483.8,533,481.8L533,481.8z M472.7,418.6l-1.9-5.2l-0.2-0.5l0-0.1c-2.6-7.7-2.5-16.1,0.2-23.8h0.1c0,0,0,0,0,0
	c-2.7,7.7-2.8,16.1-0.2,23.8l0.2,0.5L472.7,418.6L472.7,418.6l0.1,0c0,0.1,0,0.2,0,0.2L472.7,418.6
	C472.8,418.6,472.8,418.6,472.7,418.6L472.7,418.6L472.7,418.6L472.7,418.6L472.7,418.6L472.7,418.6L472.7,418.6z M472.8,418.6
	L472.8,418.6L472.8,418.6c0.1,0.1,0.1,0.1,0.1,0.2C472.9,418.8,472.8,418.7,472.8,418.6z M511.3,445.3c-10-0.5-19-3.6-26.4-10.6
	l-0.4-0.4c-1.1-0.7-2-1.6-2.7-2.7l-0.4-0.4l0,0l-0.4-0.4c-3.1-3.3-5.7-7.1-7.6-11.3l-0.4-0.5l-0.1-0.1c0,0,0.1,0,0.1,0h0.1l0.4,0.5
	c1.9,4.2,4.5,8,7.6,11.3l0.4,0.4v0l0.4,0.4c0.7,1.1,1.6,2,2.7,2.7l0.4,0.4C492.4,441.7,501.4,444.8,511.3,445.3L511.3,445.3
	c7.7,0.4,15.4-1.1,22.4-4.1C526.7,444.3,519,445.7,511.3,445.3L511.3,445.3z"/>
<path class="st0" d="M527.8,235.1c-1-1.8-2.9-3-5-3.1C524.8,232.1,526.7,233.3,527.8,235.1z"/>
<path class="st0" d="M590.7,144.7L590.7,144.7C590.7,144.8,590.7,144.8,590.7,144.7c2.8-21.8-1-42.6-9.5-62.7c0.3-0.1,0.7-0.2,1-0.2
	c-0.3,0-0.7,0.1-1,0.2C589.6,102.2,593.5,122.9,590.7,144.7c0.3,0,0.5,0,0.8-0.1c1.2-0.7,2.4-1.4,3.5-2.2c0.5-0.3,1-0.7,1.5-1
	c0.2-0.1,0.4-0.3,0.7-0.4c0.6-0.4,1.3-0.9,1.9-1.3c0.9-0.6,1.7-1.2,2.6-1.9c0.1,0,0.1-0.1,0.2-0.1c5.4-4.1,10.3-8.7,14.4-14.1
	c0-0.1,0.1-0.1,0.2-0.2c0.7-0.9,1.3-1.8,2-2.8c0.1-0.1,0.2-0.2,0.2-0.4c0-0.1,0.1-0.1,0.1-0.1c0.2-0.3,0.4-0.7,0.6-1
	c0.5-0.8,0.9-1.6,1.3-2.4c0.6-1.3,1-2.6,1.4-4c1.5-7-1.5-12.1-6.7-16.2c-9-7.1-19.3-11.4-30.3-14.1c-0.8-0.2-1.7-0.5-2.7-0.5l0,0
	c-0.3,0-0.7,0.1-1,0.2C589.6,102.2,593.4,122.9,590.7,144.7L590.7,144.7z"/>
<path class="st0" d="M599.6,332.4c1.1,1.2,1.6,3.1,1.7,5.3C601.2,335.4,600.7,333.6,599.6,332.4z"/>
<path class="st0" d="M557.5,265c-0.2,0.1-0.3,0.1-0.4,0.3C557.3,265.2,557.4,265.1,557.5,265c-0.6,0.2-0.7,0.9-0.6,1.9
	c0.6,6.5,1.4,13.1,2.5,19.5c0.9,5.5,2.1,10.8,3.8,16.1c0,0,0,0,0,0v0c0,0,0,0,0,0l0,0h0l0,0c4.3-3.3,8.3-6.8,12-10.7
	c2.3-2.2,4.2-4.9,5.7-7.8c2.7-5.5,1.4-10.1-3.6-13.5c-1.2-0.8-2.4-1.4-3.7-1.9v0c-4.7-2-9.6-2.8-14.6-3.7
	C558.4,264.9,557.9,264.9,557.5,265L557.5,265z"/>
<path class="st0" d="M403.1,175.9c-1.4-2.8-4.8-4.4-7.3-3.3C398.3,171.5,401.8,173.1,403.1,175.9z"/>
<path class="st0" d="M599.6,351.9c6.7,2.9,13.2,3.2,20,2.2c0.5-0.1,0.7-0.3,0.7-0.5c0-0.1,0-0.1,0-0.2c0,0.1,0,0.1,0,0.2
	c0-0.2-0.1-0.5-0.1-0.8c-0.9-3.2-2.1-6.4-3.6-9.3c-1.5-2.9-3.3-3.2-5.8-1.1C607,345.3,603.5,348.5,599.6,351.9
	C599.6,351.8,599.6,351.9,599.6,351.9z"/>
<path class="st0" d="M564.4,306.4c2.4,7.2,5.6,14,9.5,20.5c1.3,2.1,2.7,4.2,4.2,6.3l0,0c0.6-1,1.2-1.9,1.8-2.9
	c0.2-0.3,0.4-0.6,0.5-0.9c0.6-1,1.3-2.1,1.9-3.1c0.1-0.2,0.3-0.5,0.4-0.7c0.6-1,1.2-2,1.7-3.1c0.2-0.3,0.3-0.6,0.5-0.9
	c0.7-1.3,1.4-2.6,2.1-4c0.3-0.7,0.6-1.3,0.8-2c0.2-0.7,0.5-1.4,0.7-2.1c1.4-4.9-0.1-7.8-5-9.1c-3.1-0.8-6.2-1-9.3-0.9
	c-1.5,0.1-3.1,0.2-4.7,0.5c-1.5,0.2-3.1,0.5-4.6,0.9C563.9,305,564.1,305.6,564.4,306.4L564.4,306.4z"/>
<path class="st0" d="M580.4,335.8C580.4,335.8,580.4,335.8,580.4,335.8c-0.1,0.3,0.1,0.6,0.4,1c0.3,0.3,0.6,0.6,0.9,1
	c0.2,0.3,0.5,0.5,0.7,0.8c0.6,0.6,1.2,1.2,1.8,1.8c0.3,0.2,0.5,0.5,0.8,0.8c0.3,0.3,0.6,0.6,0.9,0.9c3.1,2.6,6,5.4,9.4,7.5
	c0.6,0.4,1.3,1.2,1.9,0c1.7-3.1,3.6-6.3,4-9.9c0.1-0.7,0.1-1.3,0.1-2c0-4.4-2-7.3-7.1-7v0l0,0c-5.1,0.2-9.1,2.2-13,4.5
	C580.7,335.3,580.5,335.5,580.4,335.8L580.4,335.8z"/>
<path class="st0" d="M625.1,352.9c4.7-1.3,9.2-3.2,13.5-5.7c0.4-0.2,0.7-0.5,0.8-0.7c0-0.1,0-0.3,0-0.4c0.1,0.1,0.1,0.3,0,0.4
	c0-0.2-0.1-0.5-0.5-0.8c-1.9-1.5-3.8-3.3-5.8-4.7c-2.2-1.5-3.7-1.3-5.2,0.9c-1.2,1.7-2.2,3.5-2.9,5.5c-0.5,1.3-0.8,2.7-1,4.1v0.1
	C623.7,353.1,624.2,353.2,625.1,352.9L625.1,352.9z"/>
<path class="st0" d="M400.7,179c-0.1-0.3-0.1-0.5-0.2-0.7C400.6,178.5,400.7,178.7,400.7,179z"/>
<path class="st0" d="M659.7,342.4c-1.3,20.3-9.3,36.7-24.2,49.2C650.4,379.1,658.3,362.6,659.7,342.4c0.2-3.4,0.1-6.9-0.4-10.4
	c-0.2,0.2-0.3,0.3-0.4,0.5c-0.2,0.2-0.3,0.4-0.4,0.5c-0.8,1.2-1.6,2.3-2.4,3.4c-5.9,7.6-13.5,13.1-22.4,17.1
	c-8.5,3.8-17.4,5.5-26.7,4.1c-7.6-1.1-13.6-5.1-19.4-9.9c-4.6-3.8-8.6-8.1-12.1-12.7c-3.5-4.6-6.5-9.6-9.1-15
	c-8.8-18.2-12.1-37.8-13-57.8c-0.5-11.1,1.1-22,2.9-32.9c1.3-8.2,3.3-16.3,6-24.1c-2.7,7.8-4.6,15.9-5.9,24.1
	c-1.8,10.9-3.4,21.9-2.9,32.9c0.2,5,0.6,10,1.2,15c-0.6-4.9-0.9-9.9-1.2-14.9c-0.5-11.1,1.1-22,2.9-32.9c1.3-8.2,3.3-16.2,5.9-24.1
	c1.4-4.2,3-8.3,4.8-12.3c4.1-9.1,8.8-17.8,12.6-27c2.3-5.6,5.2-11,6.4-17c1.2-5.9,1.8-11.8,1.9-17.6c0.1-4.8-0.2-9.6-0.8-14.3
	c0.6,4.7,0.9,9.5,0.8,14.2c0.1-9.7-1.2-19.2-3.6-28.7c-0.8-3-1.7-6-2.7-9c-3.8-11.1-8.3-21.9-16.2-30.9
	C549.1,44,529,32.3,504.5,28.3c-14.2-2.3-28.6-2.8-42.9-1.7c-1.8,0.1-3.6,0.3-5.4,0.5c-3,0.3-6.1,0.8-9.1,1.3c-0.2,0-0.4,0-0.5,0.1
	c-0.2,0-0.5,0.1-0.7,0.1c-6.5,1.2-12.9,2.8-19.1,5c-2.7,1-5.4,2-8,3.1c-8.2,3.7-15.9,8.5-23.5,13.3c-15.1,9.5-27.7,21.4-37.2,36.6
	c-14.4,23.1-19.6,48.3-16.2,75.2c2.3,17.7,10.6,32.4,23.4,44.5c15.2,14.3,33.9,20.5,54.5,21.7c2.4,0.1,4.7,0.2,7,0.2
	c16.2-0.1,31.9-3.8,47-9.8c17.3-6.8,32.7-16.8,46.6-29.2c8.2-7.3,14.9-15.6,19.7-25.5c0.3-0.7,0.5-1.3,0.4-1.7
	c0.1,0.4,0,0.9-0.4,1.6c-4.8,9.9-11.5,18.3-19.7,25.5c-13.9,12.4-29.3,22.4-46.6,29.2c-1.9,0.8-3.8,1.5-5.7,2.1
	c-8.5,3-17.1,5.2-25.9,6.5c-0.1,0-0.2,0-0.3,0.1c-0.5,0.1-1.1,0.1-1.7,0.2c-0.4,0.1-0.9,0.1-1.3,0.2c-0.3,0-0.6,0.1-0.9,0.1
	c-0.7,0.1-1.4,0.1-2.1,0.2c-0.1,0-0.2,0-0.3,0c-0.9,0.1-1.8,0.1-2.7,0.2c-0.2,0-0.3,0-0.5,0c-0.8,0.1-1.7,0.1-2.5,0.1
	c-1,0-2,0.1-3,0.1c1,0,2,0,3-0.1c0.8,0,1.7-0.1,2.5-0.1c0.2,0,0.3,0,0.5,0c0.9-0.1,1.8-0.1,2.7-0.2c0.1,0,0.2,0,0.3,0
	c0.7-0.1,1.4-0.1,2.1-0.2c0.3,0,0.6-0.1,0.9-0.1c0.4-0.1,0.9-0.1,1.3-0.2c0.5-0.1,1.1-0.1,1.7-0.2c0.1,0,0.2,0,0.3-0.1
	c8.8-1.3,17.5-3.5,25.9-6.5c1.9-0.7,3.8-1.4,5.7-2.1c17.3-6.9,32.7-16.8,46.6-29.2c8.2-7.2,14.9-15.6,19.7-25.5
	c0.4-0.7,0.5-1.2,0.4-1.7c-0.1-0.4-0.5-0.8-1.2-1.1c-2.1-1.2-3.7-3-4.7-5.2c-0.2-0.3-0.3-0.7-0.4-1c0-0.1-0.1-0.3-0.2-0.4
	c0-0.1,0-0.1-0.1-0.2c0-0.1,0-0.1-0.1-0.2c0,0,0-0.1,0-0.1s0-0.1,0-0.1c0,0,0,0,0,0c0-0.1-0.1-0.3-0.1-0.4c0,0,0,0,0,0
	c0-0.1,0-0.2,0-0.4c0,0,0,0,0,0c0-0.2,0.2-0.5,0.5-0.6c0.1-0.1,0.2-0.1,0.3-0.1c-0.1,0-0.2,0.1-0.3,0.1c-0.3,0.2-0.4,0.4-0.5,0.6
	c0,0,0,0,0,0c0,0.1,0,0.2,0,0.4c0,0,0,0,0,0c0,0.1,0,0.2,0.1,0.4c-0.1-0.5-0.1-1,0.4-1.3c0.1-0.1,0.2-0.1,0.3-0.1
	c0.7-0.1,1,0.9,1.4,1.4c2.9,3.5,6.3,5.7,10.4,5.7c1.4,0,2.8-0.3,4.3-0.8c0.6-0.2,1.3-0.5,1.8-0.2c0.2,0.1,0.3,0.3,0.4,0.6
	c0.4,1.1-0.2,2-1.3,2.5c-1.8,0.9-3.9,1.4-5.9,1.4h-0.2c-0.9,0-1.7,0.5-2,1.4c-2.3,5.1-5.2,9.8-8.6,14.2c-0.6,0.8-1,1.6-1.3,2.5
	c-4.3,14.7-11.8,27.8-20.2,40.4c-4.5,6.7-9,13.4-14.1,20.1c0.9-0.2,1.6-0.5,2.3-1c1.1-0.7,1.9-1.6,2.8-2.3c5-3.5,9.9-7,16.3-7.6
	c4-0.4,6.8,1,8.8,4.4c1.5,2.5,2.4,5.3,2.8,8.2c1.8,12.6,1,25.1-0.2,37.7c-0.8,8.1-1.6,16.1-2.4,24.2c0,0.6-0.1,1.2,0.5,1.6
	c1.3,0.9,2.7,1.8,4.5,3c0,0,0-0.1,0-0.1c0,0,0,0,0.1,0c0,0,0-0.1,0-0.1c0,0,0,0-0.1,0c-1.2-4.6-1.8-9.4-1.6-14.1
	c0.1-3,1.1-5.8,2.8-8.2l0,0c0.6-0.8,1.2-1.4,1.9-1.9c-0.7,0.5-1.3,1.1-1.8,1.9c-1.8,2.4-2.7,5.2-2.8,8.2c0,0.6,0,1.2,0,1.8
	c0-0.6,0-1.2,0-1.8c0.1-3,1.1-5.8,2.8-8.2c0.5-0.8,1.2-1.4,1.8-1.9c2.9-2.2,6.8-1.9,9.7,0.9c1.1,1,2,2.1,2.7,3.4
	c2.9,5.1,4.2,10.6,4.6,16.3c0,0,0,0.1,0,0.1c0,0.1,0,0.2,0,0.4c-0.6-1.9-1-3.9-1.6-5.9c-1.1-3.5-2.2-7-4.5-9.9l0,0
	c-0.4-0.5-0.9-1.1-1.4-1.6c-1.6-1.7-3.6-3.1-6.2-2.5c-0.6,0.1-1.1,0.3-1.5,0.6c-2.5,1.2-3.4,3.7-3.9,6.3c-1.2,7-0.2,14.1,2.8,20.5
	c0.3,0.6,0.8,1.2,0.8,2.2l0,0v0.1c-0.4-0.3-0.6-0.4-0.9-0.6c-5.2-4.1-10.4-7.8-16.3-10.3c-3.5-1.5-7.3-2.5-11.4-2.9
	c-0.4,0-0.8-0.1-1.2-0.1c-2.7-0.1-5.4,0.4-7.7,1.4c-0.5,0.2-1,0.4-1.5,0.7c-0.1,0-0.2,0.1-0.3,0.1c-0.4,0.2-0.8,0.4-1.1,0.7
	c-0.2,0.1-0.4,0.2-0.6,0.4c-0.3,0.2-0.5,0.4-0.8,0.6c-0.3,0.2-0.5,0.4-0.8,0.7c-0.1,0.1-0.3,0.2-0.4,0.4c-0.4,0.3-0.7,0.7-1,1
	c0,0-0.1,0.1-0.1,0.1c-2.5,2.8-4.2,6.2-4.6,10.2c0,0.4-0.1,0.8-0.1,1.2c-0.1,4,2,7.7,5.1,8.6c0,0,0,0,0-0.1c0,0,0,0,0.1,0
	c0,0,0,0,0,0c0,0,0,0,0,0c-0.2-1.5-0.6-3-0.7-4.5c-0.3-2.8-0.4-5.5,1-8c0,0.1-0.1,0.1-0.1,0.2c0.1-0.2,0.2-0.3,0.3-0.5c0,0,0,0,0,0
	c0.1-0.1,0.2-0.3,0.3-0.5l0,0l0,0l0.1-0.1l0,0l0,0l0,0l0,0l0,0c-0.1,0.2-0.2,0.3-0.4,0.5c0,0,0,0,0,0c-0.1,0.1-0.1,0.2-0.2,0.3
	c0.2-0.3,0.3-0.6,0.5-0.8c-0.4,3.8-0.4,7.5,0.9,11.2c1.1,3.1,3,4.9,6.2,5.5c0.7,0.1,1.6,0.7,2.1,0.1c0,0,0,0,0,0
	c0.1-0.1,0.1-0.2,0.1-0.3c0,0.1-0.1,0.1-0.1,0.2c0.4-0.6-0.3-1.3-0.6-1.9h0c-2-4.3-1.2-8.5,0.5-12.7v0c-0.5,1.3-1,2.6-1.2,3.9
	c0.3-1.3,0.7-2.6,1.2-3.9c0.2,1.4,0.2,2.9,0.2,4.3c-0.2,2.6,0.3,5.1,1.4,7.5c1.4,3,4.3,3.7,6.9,1.8c1.4-1,2.1-2.3,2.5-3.8
	c0.1-0.4,0.2-0.7,0.2-1.1c0.1-0.6,0.2-1.1,0.2-1.7c0.1-1.9-0.8-3.7-0.9-5.7c0,0,0,0.1,0,0.1c0,0,0,0.1,0,0.1
	c3.5,7.8,10.4,10.7,18,12.1c7.6,1.4,15.3,1.1,21.7-4.8c0,0.8-0.2,1.4-0.5,1.9c-0.3,0.5-0.7,0.9-1.1,1.3c-1.8,1.7-4,3-6.4,3.7
	c-5.5,1.7-11,1.4-16.4,0c-0.6-0.2-1-0.2-1.3-0.2l0,0c-0.3,0-0.5,0.2-0.7,0.4c-0.2,0.3-0.2,0.8-0.2,1.5c-0.1,10.9,0.8,21.8,2.8,32.5
	c0.5,2.6,1.2,5.1,1.8,8.2c3.2-4.3,6.5-7.6,10.5-10s8-4.5,12.9-5.1c-0.1,0.2-0.1,0.3-0.2,0.5c-0.1,0.2-0.3,0.3-0.4,0.4
	c-0.6,0.4-1.3,0.3-1.9,0.5l0,0c-7.1,3.1-13.3,8.1-17.9,14.4c-0.4,0.5-0.8,1.1-1.2,1.6c-6.6,9.4-9.7,20-6.9,31.6
	c3.5,14.1,11.5,25.2,24.6,32c8.3,4.4,17.2,5.1,26.2,3.9c6.4-0.8,12.6-2.9,18.1-6.2c0.5-0.3,1.3-0.7,1.7,0.1c0.2,0.4,0,0.7-0.2,0.9
	c-0.2,0.1-0.4,0.2-0.5,0.4c-5.1,3.5-10.5,6.3-16.7,7.5c-0.5,0.1-1.1,0.1-1.7,0.2c-0.5,0-1.1,0.1-1.6,0.2c-0.6,0.1-1.2,0.3-1.6,0.7
	c0,0,0,0,0,0c-1.1,1-0.3,3.2-0.6,4.8c-1.7,9.3-4.1,18.4-8.4,26.9c-0.4,0.8-0.2,1.1,0.3,1.7c1,1.4,2.6,2.1,4.3,1.9
	c3.9-0.3,6.9,1.5,9.1,4.7c0.5,0.8,1.1,1.7,0.1,3c-0.3-0.5-0.7-1-1.1-1.4c0,0,0,0,0,0c0.4,0.4,0.8,0.9,1.1,1.4c0,0,0,0,0,0
	c-0.3-0.5-0.7-1-1.1-1.5h0c-2.7-2.5-5.6-3.5-8.3-3.2c-1.6,0.2-3.2,0.9-4.7,2.1c-0.2,0.2-0.5,0.4-0.7,0.6c0,0-0.1,0.1-0.2,0.1
	c-0.6,0.6-1.1,1.2-1.7,2c-2.7,3.9-3.3,8.3-3.2,13c0.1,1.5,0.6,1.9,2.1,1.9c5.6-0.1,11.1,0,16.7,0c1.7,0,2.7,0,3.4-0.2
	c1.2-0.3,1.6-1.2,2.4-3.8c3.7-11.4,8.5-22.3,12.9-33.5s9.2-22.3,11.6-34.2c1-5.1,1.3-10.3-0.2-15.4c-0.2-0.8-0.5-1.5-0.7-2.3
	c0.2,0.7,0.5,1.5,0.7,2.3c1.5,5.1,1.2,10.3,0.2,15.4c-2.3,11.9-7.2,23-11.6,34.2c-4.4,11.2-9.2,22.1-12.9,33.5
	c-0.8,2.5-1.2,3.5-2.4,3.8c1.2-0.3,1.5-1.2,2.4-3.8c3.7-11.4,8.6-22.3,12.9-33.5s9.2-22.3,11.6-34.2c1-5.1,1.3-10.3-0.2-15.4
	c-3.5-12.4-10.4-21.6-23-25.9l0,0c-0.3-0.1-0.6-0.2-0.5-0.7h0c0,0.1,0,0.2,0,0.3c0-0.1,0-0.2,0-0.3c2-0.3,4.1,0,5.9,0.9
	c5.9,2.3,11,6.4,14.5,11.6c1,1.5,1.8,1.6,3.3,1c6.1-2.6,12-5.8,17.5-9.6c2.5-1.7,4.9-3.5,7.1-5.3C650.3,379,658.3,362.5,659.7,342.4
	L659.7,342.4c0.1-1.8,0.1-3.6,0.1-5.3c0.1,1.7,0,3.5-0.1,5.2L659.7,342.4z M403.3,180.1c-0.1,0.3-0.2,0.6-0.4,0.8
	c-0.5,1-1.4,1.8-2.5,2.5c0.4-1.9,0.5-3.4,0.2-4.4c0.2,0.8,0.1,1.8,0,3.1c0,0,0,0,0,0c-0.1,0.4-0.1,0.9-0.2,1.3
	c0.1-0.5,0.2-0.9,0.2-1.3c0,0,0,0,0,0c0.4-2.9-0.1-4.5-1.6-5.2c-0.2-0.1-0.3-0.2-0.5-0.2c-0.1-0.1-0.3-0.1-0.4-0.1
	c-0.4-0.1-0.7-0.1-1-0.1c0.3,0,0.7,0,1,0.1c-1.6-0.4-2.6,0.2-3.9,2.5c-0.3,0.5-0.5,1.1-0.8,1.7c0,0,0,0,0,0c0,0,0,0,0,0
	c-1.1-3.2-0.2-6.6,2-8c-2.1,1.3-3.1,4.7-2,8c0,0,0,0,0,0c-1.1-3.2-0.1-6.7,2-7.9c0.1-0.1,0.3-0.2,0.4-0.2c2.5-1.1,5.9,0.5,7.3,3.3
	c0.1,0.2,0.2,0.4,0.2,0.6c0,0,0,0,0,0c0,0,0,0,0,0C403.8,177.7,403.8,179,403.3,180.1L403.3,180.1z M499.9,117.5
	c-0.1,0.1-0.1,0.2-0.2,0.3C499.7,117.7,499.8,117.6,499.9,117.5C499.9,117.5,499.9,117.5,499.9,117.5z M499.9,117.4
	c-0.1,0.1-0.2,0.2-0.2,0.3c-0.1,0.1-0.2,0.3-0.3,0.4c0,0.1-0.1,0.1-0.2,0.2c-0.1,0.2-0.3,0.3-0.4,0.4c-1.2,1.2-2.7,1.8-4.6,1.5
	c-1.2-0.2-2.2-0.7-3-1.4c0.8,0.8,1.9,1.3,3,1.4c1.9,0.3,3.4-0.3,4.6-1.5c-1.2,1.2-2.7,1.8-4.6,1.6c-2.3-0.3-4.2-2-4.7-4.3
	c-0.7-2.8-0.8-5.7-0.4-8.4c0.2-1.4,0.6-2.8,1.2-4.2c0.1-0.3,0.3-0.6,0.4-0.9c0.1-0.1,0.1-0.3,0.2-0.4c0.1-0.2,0.2-0.3,0.2-0.4
	c0.1-0.2,0.2-0.3,0.3-0.5c0.1-0.1,0.2-0.3,0.2-0.4c2.4-3.5,6.8-3.1,8.9,0.7c1,2.1,1.5,4.4,1.5,6.8l0,0v0
	C502.3,111.9,501.7,114.8,499.9,117.4L499.9,117.4z M508.6,93.4c0,0.2-0.1,0.3-0.2,0.4c-0.1,0.1-0.2,0.3-0.4,0.4
	c-0.7,0.4-1.2-0.3-1.6-0.7c-0.1-0.2-0.3-0.3-0.4-0.5c-4.2-6-9.8-7.6-16.7-5.6c-0.3,0.1-0.7,0.1-1.1,0.2c-0.9,0.2-1.6,0.2-2-0.8
	c-0.1-0.4-0.1-0.7,0-1c0,0.1-0.1,0.3-0.1,0.4c0-0.1,0-0.3,0.1-0.4c0.2-0.4,0.6-0.7,1-1c2.5-1.3,5.2-1.8,8.7-1.8v0
	c4.4,0.1,8.5,2.2,11.1,5.8c0.8,1,1.4,2.2,1.6,3.6v0C508.7,92.8,508.7,93.1,508.6,93.4L508.6,93.4z M550.7,158.3
	c-1.5,0.5-3,0.8-4.3,0.8C547.7,159.1,549.1,158.9,550.7,158.3c0.6-0.2,1.3-0.5,1.8-0.2C552,157.8,551.2,158.1,550.7,158.3z
	 M501.7,240.3L501.7,240.3c1-0.7,1.9-1.6,2.8-2.3c0,0,0,0,0,0C503.6,238.7,502.8,239.6,501.7,240.3L501.7,240.3z"/>
<path class="st0" d="M618,346.8c0.6,1.4,1.1,2.9,1.6,4.4C619.2,349.7,618.6,348.2,618,346.8z"/>
<path class="st0" d="M599.6,351.8C599.6,351.8,599.6,351.8,599.6,351.8C599.6,351.8,599.6,351.8,599.6,351.8L599.6,351.8z"/>
<path class="st0" d="M564.9,207.9c-0.8,2.7-1.6,5.5-2.3,8.3c-2.1,8.3-3.7,16.8-4.7,25.3c-0.7,5.2-1,10.4-1.1,15.7c0,1.7,0,3.5,0,5.2
	v0c4.8-2.2,9.4-4.9,13.8-7.8c6.7-4.5,12.8-9.7,17.2-16.6c0.9-1.4,1.6-2.9,1.9-4.4c0.5-2.4,0.2-4.9-1.1-7.5c-1.7-3.3-4-6.3-6.9-8.7
	c-4.3-3.9-9.2-7-13.8-10.4l0,0c4.7,3.4,9.5,6.5,13.8,10.4c2.8,2.4,5.2,5.4,6.9,8.7c1.3,2.6,1.7,5.1,1.1,7.5c0.5-2.4,0.1-4.9-1.1-7.4
	c-1.7-3.3-4-6.3-6.9-8.7c-4.3-3.9-9.2-7-13.8-10.4C565.6,205.4,565.7,205.4,564.9,207.9L564.9,207.9z"/>
<path class="st0" d="M563.3,302.6C563.3,302.6,563.3,302.6,563.3,302.6L563.3,302.6z"/>
<path class="st0" d="M563.2,302.6L563.2,302.6L563.2,302.6L563.2,302.6z"/>
<path class="st0" d="M403.4,176.5L403.4,176.5c-0.1-0.2-0.1-0.4-0.2-0.6l0,0C403.2,176.1,403.3,176.2,403.4,176.5z"/>
<path class="st0" d="M589.8,149.8c-5.6,17.9-15,33.9-22.4,51.2h0v0.1c7.2-1.5,13.8-3.4,20.3-5.4c5.2-1.6,10.2-3.5,14.5-6.9
	c4.9-3.9,6.9-9.2,5.8-14.6c-0.2-0.9-0.4-1.8-0.8-2.7c-0.3-0.9-0.8-1.8-1.3-2.7c-1.4-2.3-2.9-4.6-4.5-6.7c-1.2-1.5-2.4-3-3.7-4.4v0
	C595.4,154.9,592.7,152.2,589.8,149.8L589.8,149.8L589.8,149.8z"/>
<g>
	<path class="st1" d="M496.4,314.9c-0.1,0.2-0.2,0.3-0.3,0.5C496.2,315.2,496.3,315,496.4,314.9L496.4,314.9L496.4,314.9z"/>
	<path class="st1" d="M533.8,152.8c0-0.2,0.2-0.5,0.5-0.6h0c0.1-0.1,0.2-0.1,0.3-0.1c-0.1,0-0.2,0-0.3,0.1
		C534,152.3,533.8,152.5,533.8,152.8z"/>
	<path class="st1" d="M578.6,26.4C578.6,26.4,578.6,26.4,578.6,26.4C578.6,26.4,578.6,26.4,578.6,26.4z"/>
	<polygon class="st1" points="539.8,506.7 539.8,506.7 539.8,506.6 	"/>
	<polygon class="st1" points="481.2,506.6 481.2,506.6 481.3,506.6 	"/>
	<path class="st1" id="non" d="M661.2,324.3c-0.2-0.9-0.2-2-1.3-2.6l0,0l0,0c-0.9,1.6-0.8,3.2-1.5,4.7c-3.3,7.8-9.2,13.3-15.9,18
		c-1,0.7-1.5,0.4-2.2-0.3c-1.6-1.5-3.3-2.9-5-4.3c-4.3-3.3-7.1-2.7-9.9,1.9c-1.6,2.8-2.7,5.8-3.4,9c-0.8-1-0.9-1.9-1.2-2.8
		c-0.7-2.1-1.6-4.2-2.8-6.1c-2.2-3.5-5.2-4.1-8.5-1.6c-2.1,1.6-4,3.4-6,5.2c-0.7,0.8-1.6,1.4-2.6,1.9c-0.5-0.8,0-1.3,0.2-1.7
		c1.6-3,2.3-6.4,1.8-9.7c-0.4-3.9-2.6-6.2-6.4-7.1c-3.8-0.8-7.4,0.3-10.9,1.6c-1.5,0.6-3,1.4-4.8,2.1c0.1-0.8,0.5-1.5,1-2.2
		c3.3-5,6.7-10,8.5-15.8c2.1-6.8-0.4-11-7.2-12.5c-4.9-1.2-9.9-0.7-14.8-0.1h-0.7l0.3-0.4c1.6-1.3,3.1-2.6,4.7-3.9
		c4-3.5,7.9-7.2,10.3-12.1c3.3-6.8,1.5-13-5-17c-3-1.7-6.2-3-9.6-3.7c-2.6-0.6-5.3-1-8.3-1.6c1.8-1,3.3-1.7,4.8-2.5
		c6.5-3.4,12.5-7.7,17.8-12.7c2.5-2.4,4.8-5.2,6.7-8.1c4.2-6.3,3.9-11.5-0.8-18.2c-4.1-5.8-9.9-9.7-15.5-13.7
		c-1.9-1.3-3.8-2.6-6-4.1c1.1-0.4,1.8-0.6,2.5-0.9c4.9-1.7,10-2.5,15-4c6.3-1.9,12.6-3.7,18-7.6c7.2-5.2,11.3-15,4.8-24.6
		c-2.4-3.7-5.1-7.3-8.1-10.6c-2.6-2.9-5.5-5.5-8.5-8.2c2.2-1.3,4.3-2.5,6.3-3.9c9.7-6.4,18.5-13.9,24.4-24.1c5.3-9,3.9-18-4.1-24.6
		c-10.3-8.6-22.5-13.4-35.7-15.7c-1.7-0.3-2-0.5-1.1-2c3-5.3,5.1-11,6-17c1.7-9.2,1.5-18.4-1.7-27.2c-2.4-6.8-6.5-12.1-14.3-13.2
		c-0.4-0.1-0.9-0.1-0.9-0.7h-5.7c0.1,0.6-0.3,0.7-0.8,0.7c-8.5,1.1-16.7,4-24,8.5c-5,3-9.2,3-14.7,1c-16.2-5.8-33.4-8.5-50.6-7.8
		c-14.5,0.4-28.7,2.1-42.6,6.1c-13.5,3.9-25.6,10.6-37.4,18c-12.7,8-23.9,17.5-33.1,29.4c-13,16.7-20.6,35.7-23.2,56.7
		c-0.4,3.5-0.6,7-1,10.5v8.6c0.2,4.4,0.7,8.8,1.4,13.1c3.5,20,13.4,36.3,29.2,48.9c16.5,13.2,35.8,18.6,56.6,18.8
		c22.1,0.2,43-5.3,62.6-15.3c14.8-7.6,28.4-16.8,40-28.8c0.4-0.4,0.7-1.2,1.5-0.9c0.4,1.1-0.3,1.9-0.7,2.7
		c-8.6,19.1-20.1,36.5-33,52.9c-14.2,18.1-24.7,37.9-30.7,60.1c-0.4,1.6-0.9,1.6-2.2,1c-6.7-3.2-13.6-5-21-3
		c-9,2.4-15.6,11.1-15.2,20.3c0.2,4.2,2.7,8.4,6.1,9.3c1.6,0.4,3.1,1,4.5,1.9c3.9,2.8,8.4,1.5,12.7,1.8c0.6-0.1,1.3-0.3,1.8-0.7
		c2.6-1.3,4.4-3.8,4.6-6.7c4.3,2.5,4.4,2.5,4.2,6.9c-1,16.9,2.3,33.8,9.4,49.2c0.5,1,0.5,2.1,0,3.1c-2.1,4.9-3.2,10.2-3.1,15.6
		c0.3,16.4,8,29.1,20.5,38.9c7.7,6,16.7,8.5,26.4,8.4c1.1,0,2.2-0.2,1.9,1.6c-1.5,10.4-4.7,20.2-8.1,30.2c-6-2.9-11.5-2-16.3,2.3
		c-1.1,0.9-1.5,0.9-2.6,0c-4-3.4-9.7-3.7-14-0.7c-2.5,1.6-4.6,3.8-6.2,6.4c-3.9,6.1-4.2,13-4.4,19.9c0,1.7,1.2,2.1,2.7,2.1
		c18.6,0.1,37.2,0.2,55.7,0.2c20.9,0,41.8-0.1,62.8,0c2.2,0,3.3-0.8,3.9-2.9c2-6.1,4.1-12.2,6.3-18.2c3.6-9.9,8.7-19.2,12.2-29.1
		c3.1-8.9,6.3-17.8,7.6-27.2c1.2-7.4,0-15-3.4-21.7c-0.5-1.1-0.7-1.7,0.8-2.2c5.6-1.7,10.8-4.5,15.8-7.5
		c12.3-7.5,22.3-17.2,28.4-30.5C662.9,356.2,664.7,340.5,661.2,324.3z M624,351.5L624,351.5L624,351.5c0.2-1.5,0.5-2.9,1-4.2
		c0.7-2,1.6-3.8,2.9-5.5c1.6-2.2,3.1-2.4,5.2-0.9c2,1.4,3.8,3.1,5.8,4.7c0.4,0.3,0.6,0.6,0.5,0.8c0-0.1,0-0.3,0-0.4
		c0.1,0.1,0.1,0.3,0,0.4c0,0.3-0.3,0.5-0.8,0.7c-4.2,2.5-8.8,4.3-13.5,5.7C624.2,353.2,623.6,353.1,624,351.5z M610.7,342.3
		c2.5-2,4.3-1.7,5.8,1.2c0.7,1.5,1.4,3,2,4.5c0,0,0,0,0,0.1c0.6,1.5,1.1,3.1,1.6,4.7c0.1,0.2,0.2,0.5,0.1,0.8c0-0.1,0-0.1,0-0.2
		c0,0.1,0,0.1,0,0.2c0,0.2-0.2,0.4-0.7,0.5c-6.7,1-13.3,0.7-20-2.2c0,0,0,0,0.1,0C603.5,348.5,607,345.3,610.7,342.3z M601.2,337.6
		c0-2.2-0.5-4-1.7-5.3C600.7,333.6,601.2,335.4,601.2,337.6z M594.2,330.6L594.2,330.6L594.2,330.6c5-0.2,7.1,2.7,7.1,7.1
		c0,0.6,0,1.3-0.1,2c-0.4,3.6-2.3,6.7-4,9.9c-0.7,1.2-1.3,0.4-1.9,0c-3.4-2.2-6.3-5-9.4-7.5c-0.3-0.3-0.6-0.6-0.9-0.9
		c-0.3-0.2-0.5-0.5-0.8-0.8c-0.6-0.6-1.2-1.2-1.8-1.8c-0.2-0.2-0.5-0.5-0.7-0.8c-0.3-0.3-0.6-0.6-0.9-1c-0.3-0.4-0.5-0.7-0.4-0.9
		c0,0,0,0,0-0.1c0.1-0.2,0.3-0.5,0.7-0.7C585,332.8,589.1,330.8,594.2,330.6z M569.7,304L569.7,304c1.5-0.2,3.1-0.4,4.6-0.5
		c3.1-0.1,6.2,0.1,9.3,0.9c4.9,1.3,6.4,4.2,5,9.1c-0.2,0.7-0.4,1.4-0.7,2.1c-0.2,0.7-0.5,1.3-0.8,2c-0.7,1.3-1.4,2.7-2.1,4
		c-0.2,0.3-0.3,0.6-0.5,0.9c-0.6,1-1.1,2-1.7,3.1c-0.1,0.2-0.3,0.5-0.4,0.7c-0.6,1-1.2,2.1-1.9,3.1c-0.2,0.3-0.4,0.6-0.5,0.9
		c-0.6,1-1.2,1.9-1.8,2.9l0,0c-1.5-2-2.9-4.1-4.2-6.3c-3.9-6.4-7.1-13.3-9.5-20.5c-0.3-0.8-0.5-1.3,0.7-1.6
		C566.6,304.5,568.1,304.2,569.7,304z M573.7,268.8L573.7,268.8L573.7,268.8c1.3,0.5,2.5,1.2,3.7,1.9c5,3.4,6.3,8,3.6,13.5
		c-1.4,2.9-3.3,5.5-5.7,7.8c-3.7,3.9-7.8,7.4-12,10.7l0,0c0,0,0,0,0,0v0c0,0,0,0,0,0c-1.7-5.3-2.9-10.6-3.8-16.1
		c-1.1-6.5-1.9-13-2.5-19.5c-0.1-1.1,0-1.7,0.5-1.9c-0.1,0.1-0.3,0.1-0.3,0.2c0.1-0.1,0.2-0.2,0.4-0.3c0.3-0.1,0.8-0.1,1.5,0
		C564,265.9,569,266.7,573.7,268.8z M567.9,207L567.9,207c4.7,3.4,9.5,6.6,13.8,10.4c2.8,2.4,5.2,5.4,6.9,8.7c1.3,2.6,1.6,5,1.1,7.4
		c0.5-2.4,0.2-4.9-1.1-7.5c-1.7-3.3-4-6.3-6.9-8.7C577.4,213.5,572.6,210.3,567.9,207c4.7,3.3,9.5,6.5,13.8,10.4
		c2.8,2.4,5.2,5.4,6.9,8.7c1.3,2.6,1.7,5.1,1.1,7.5c-0.3,1.5-0.9,2.9-1.9,4.4c-4.5,6.9-10.5,12.1-17.2,16.6c-4.4,3-9,5.6-13.8,7.8v0
		c0-1.7-0.1-3.5,0-5.2c0.1-5.2,0.4-10.5,1.1-15.7c1-8.5,2.5-17,4.7-25.3c0.7-2.8,1.5-5.5,2.3-8.3C565.7,205.4,565.6,205.4,567.9,207
		z M597.9,157.7L597.9,157.7L597.9,157.7c1.3,1.4,2.5,2.9,3.7,4.4c1.6,2.2,3.2,4.4,4.5,6.7c0.5,0.9,1,1.8,1.3,2.7
		c0.3,0.9,0.6,1.8,0.8,2.7c1.1,5.4-0.9,10.7-5.8,14.6c-4.3,3.4-9.3,5.3-14.5,6.9c-6.5,2-13.1,3.8-20.3,5.3v-0.1h0
		c7.3-17.3,16.8-33.2,22.4-51.2h0C592.7,152.2,595.4,154.9,597.9,157.7z M582.2,81.8L582.2,81.8c1,0,1.9,0.3,2.7,0.5
		c11.1,2.6,21.3,7,30.3,14.1c5.2,4.1,8.3,9.2,6.7,16.2c-0.3,1.4-0.8,2.7-1.4,4c-0.4,0.8-0.8,1.6-1.3,2.4c-0.2,0.3-0.4,0.7-0.6,1
		c0,0-0.1,0.1-0.1,0.1c-0.1,0.1-0.2,0.2-0.2,0.4c-0.6,1-1.3,1.9-2,2.8c0,0.1-0.1,0.1-0.2,0.2c-4.1,5.5-9,10.1-14.4,14.1
		c-0.1,0-0.1,0.1-0.2,0.1c-0.8,0.6-1.7,1.3-2.6,1.9c-0.6,0.5-1.3,0.9-1.9,1.3c-0.2,0.1-0.4,0.3-0.7,0.4c-0.5,0.3-1,0.7-1.5,1
		c-1.2,0.7-2.3,1.4-3.5,2.2c-0.2,0.1-0.5,0.1-0.7,0.1c2.8-21.8-1.1-42.6-9.5-62.7C581.5,81.9,581.8,81.9,582.2,81.8
		c-0.3,0-0.6,0.1-1,0.2c8.5,20.2,12.3,40.9,9.5,62.8c0,0,0,0,0,0v0c2.8-21.8-1.1-42.6-9.5-62.8C581.5,81.9,581.8,81.9,582.2,81.8z
		 M579.2,77.7C579.2,77.7,579.2,77.7,579.2,77.7c0.8-1.1,1.5-2.3,1.9-3.6C580.7,75.4,580.1,76.6,579.2,77.7z M566.9,22.2L566.9,22.2
		c3.3-0.2,6.2,0.5,8.7,1.9c1.1,0.6,2,1.4,3,2.3c-0.1-0.1-0.1-0.2-0.2-0.2c0.7,0.6,1.3,1.3,1.8,2.1c-0.5-0.7-1-1.3-1.6-1.9
		c0.9,0.9,1.7,1.9,2.5,3.1c-0.2-0.3-0.4-0.6-0.6-0.9c0.2,0.3,0.4,0.6,0.6,0.9c0.9,1.5,1.7,3.1,2.3,5c0.8,2.5,1.4,5.1,1.8,7.6
		c0.4,2.8,0.6,5.7,0.5,8.6c0.1-2.9-0.1-5.7-0.5-8.6c0.8,5.6,0.6,11.3-0.3,17c-0.8,5-2.1,10-3.8,14.8c-0.4,1.3-1,2.5-1.9,3.6
		c-10.1-19.5-24.9-34-44.5-44.1C545.1,28.1,555.2,22.8,566.9,22.2z M560.5,52.1c-7.4-7.3-16-13.5-25.8-18.6
		C544.5,38.6,553.1,44.8,560.5,52.1z M459.6,325.7L459.6,325.7L459.6,325.7c-0.3,0.1-0.6,0-1-0.4c-1.5-1.1-2.8-2.2-3.6-4
		c-0.4-1-0.7-2.2-2.3-2.9c1,2.4,1.5,4.4,1.3,6.6c-0.1,1.1-0.3,2.2-0.8,3.2c0,0,0,0,0,0c-0.1,0.2-0.2,0.4-0.3,0.6
		c-0.1,0.2-0.2,0.3-0.3,0.5c0,0.1-0.1,0.1-0.1,0.2c-0.1,0.2-0.3,0.3-0.4,0.5c0,0,0,0,0,0c0,0,0,0,0,0c0,0-0.1,0.1-0.1,0.1
		c0,0,0,0,0,0c0,0,0,0,0,0c-0.1,0.1-0.3,0.2-0.4,0.3c-0.1,0.1-0.2,0.1-0.2,0.2h0c-2.8,1.9-5.6,1-7-2.1c-1-2.3-1.4-4.8-1.2-7.3
		c0.1-1.4,0-2.8-0.2-4.2c-1,2.5-1.6,5-1.6,7.5c0,1.8,0.4,3.5,1.2,5.3c0.3,0.6,1,1.1,0.5,1.8c0,0,0,0,0,0c-0.1,0.1-0.1,0.1-0.2,0.2
		c0,0,0,0,0,0c0.1,0,0.1-0.1,0.2-0.2l0,0v0l0,0c0,0.1-0.1,0.1-0.2,0.2h0c-0.3,0.2-0.6,0.1-1,0c-0.3-0.1-0.6-0.2-0.8-0.2
		c-0.4-0.1-0.8-0.2-1.2-0.3c0.4,0.1,0.8,0.2,1.2,0.3c0.3,0.1,0.5,0.1,0.8,0.2c-0.3-0.1-0.5-0.2-0.8-0.2c-1.7-0.3-3-1-4-2
		c-1-1-1.8-2.3-2.3-3.9c-1.1-3.4-1.4-6.9-0.8-10.4c0,0,0,0,0,0.1c-2.6,4.1-1.3,8.5-0.6,13.2c0,0,0,0,0,0v0c-2.7-1.3-4.6-3.9-4.9-6.9
		c-0.9-6.3,2.6-13.1,8-16.7c1.8-1.2,3.8-2,5.8-2.4c6.8-1.1,13.2,0.3,19.3,3.1c1.3,0.6,1.7,1.4,1.4,2.8c-1.2,5.3-2.1,10.8-2.5,16.2
		C460,325.3,459.8,325.7,459.6,325.7c0.2-0.1,0.4-0.4,0.4-1c0.5-5.5,1.3-10.9,2.5-16.2c0.3-1.4-0.1-2.2-1.4-2.8h0
		c-1.5-0.7-3.1-1.3-4.6-1.8c1.6,0.5,3.1,1.1,4.7,1.8c1.3,0.6,1.7,1.4,1.4,2.8c-1.2,5.3-2.1,10.8-2.5,16.2
		C460,325.4,459.8,325.7,459.6,325.7z M462.5,334.1L462.5,334.1L462.5,334.1c0.8-22.4,7-43.2,17.1-63.1c7.1-14,16.8-25.4,29.7-34.2
		c2.4-1.6,4.8-3,7.5-3.9c1.6-0.5,3.2-0.9,5-0.9c2.4-0.2,4.7,1,5.9,3.1c2.6,3.9,3.4,8.4,3.6,12.9c0.6,12.2,0,24.4-1.6,36.5
		c-0.8,6.6-1.3,13.3-2,20.3v0c-2.2-1-4.3-2-6.3-2.8c-5.8-2.4-11.7-3.2-17.8-1.6c-0.3,0.1-0.5,0.2-0.8,0.2c-0.2,0-0.3,0.1-0.5,0.1
		c-0.1,0-0.2,0.1-0.3,0.1c-0.7,0.2-1.4,0.5-2.1,0.9c-0.1,0-0.1,0.1-0.2,0.1c0,0,0,0,0,0c-0.2,0.1-0.3,0.2-0.5,0.2v0c0,0,0,0-0.1,0
		c-0.1,0.1-0.3,0.1-0.4,0.2c-0.1,0.1-0.2,0.1-0.3,0.2c0,0,0,0,0,0c-0.4,0.2-0.8,0.5-1.2,0.8c-0.1,0.1-0.2,0.2-0.4,0.3c0,0,0,0,0,0
		c-5.4,3.9-8.9,10.5-8.5,17.2c0.2,5,2.8,8.2,7.9,9.6c0.3,0.1,0.7,0.3,1,0.5c1.2,0.8,2.5,1.4,3.9,2c1.9,0.7,3.8,1,5.7,1
		c1.9,0,3.8-0.2,5.7-0.5c0.3,0,0.6-0.1,1-0.2c2.2-0.8,3.8-2.8,4.2-5.3c0.2-0.9,0.4-1.3,0.7-1.3c0.1,0,0.3,0,0.4,0.1
		c0.2,0.1,0.5,0.3,0.9,0.6c1.6,1.3,3.3,2.4,5.2,3.1h0c1.5,0.6,1.8,1.5,1.8,3c-0.1,11.3,0.6,22.5,2.9,33.5c0.5,2.6,1.1,5.3,1.9,7.9
		c0.5,1.5,0.2,3-0.6,4.3c-6.2,10.6-8,21.8-4.7,33.7c1,3.5,2.4,6.9,4.2,10.1c0.4,0.5,0.6,1.1,0.5,1.8h0c0,0,0,0,0,0h0v0
		c-5-0.3-9.9-1.3-14.6-3c-10.1-3.9-19.8-8.6-28-15.9c-6.8-6-11.5-13.4-15.4-21.4C465.4,368.7,461.8,351.4,462.5,334.1z M522.8,232
		c2.1,0.1,3.9,1.3,5,3.1C526.7,233.2,524.8,232.1,522.8,232z M470.9,389L470.9,389c0.1-0.3,0-0.6,0.1-0.8
		C470.9,388.4,471,388.8,470.9,389z M468.7,400.9c0,4,0.6,8,1.9,11.9l0,0C469.3,409,468.7,404.9,468.7,400.9z M509,481.2
		c0.2,1.6,1.6,2.8,3.2,2.7c5.7-0.3,9.5,2.1,11.6,7.4c0,0,0,0,0,0v0c-2-5.3-5.9-7.7-11.6-7.4C510.6,484.1,509.2,482.9,509,481.2
		C509,481.2,509,481.2,509,481.2z M466.5,505.6L466.5,505.6c0,1.1,0.7,1.1,1.5,1.1h6.1l-6.1,0C467.2,506.7,466.5,506.7,466.5,505.6z
		 M481.3,506.6L481.3,506.6C481.2,506.6,481.2,506.6,481.3,506.6c-0.3,0.2-0.7,0.2-1.3,0.2c-2-0.1-3.9,0-5.9,0c2,0,4-0.1,5.9,0
		C480.5,506.8,480.9,506.7,481.3,506.6c-0.3,0.1-0.7,0.2-1.2,0.1c-2-0.1-4,0-5.9,0v-0.1H468c-0.8,0-1.5,0-1.5-1.1
		c0-5.7,0.8-11.1,3.8-15.7c0.7-1.1,1.5-2.1,2.4-3.1c0.3-0.3,0.6-0.6,0.9-0.9c0,0,0.1-0.1,0.1-0.1c0,0,0,0,0,0
		c3.2-3.1,8.1-3.7,12-1.5c1.5,0.8,2.1,1.6,1,3.4c-3.1,5.3-5.1,11-4.8,17.3C482,505.8,481.8,506.3,481.3,506.6z M499.4,506.6
		L499.4,506.6L499.4,506.6c-0.3,0.1-0.6,0.2-1.1,0.2c-2.1-0.1-4.2,0-6.3,0c-2.1,0-4.2,0-6.3,0c-0.6,0-1-0.1-1.2-0.3
		c0.1,0.1,0.2,0.1,0.3,0.2c-0.2-0.1-0.4-0.2-0.5-0.4c0,0,0,0,0-0.1c0-0.1,0-0.1-0.1-0.2c0,0,0-0.1,0-0.2c0,0,0-0.1,0-0.2
		c0,0,0-0.1,0-0.1c0-0.1,0-0.2,0-0.3c0.7-4.9,1.8-9.6,3.9-14c1-2.1,2.2-4.1,3.7-6c0.5-0.6,1.1-1.2,1.7-1.6c4.3-3.2,11.6-2.2,14.3,0
		c1,0.8,1,1.3-0.1,2.1c-6.3,4.9-8.8,11.4-7.8,19.2C500,505.9,499.9,506.4,499.4,506.6z M522,505.3L522,505.3
		c-0.1,1.1-0.5,1.4-1.6,1.4h-16c-0.4,0-0.7,0-1-0.2c-0.3-0.1-0.5-0.4-0.5-1c0-0.6-0.1-1.3-0.1-1.9c0,0.6,0,1.2,0.1,1.9
		c0,0.6,0.2,0.9,0.5,1c-0.3-0.2-0.5-0.4-0.5-1c-0.3-5.1,0.3-9.8,3.3-14.2c2.3-3.3,5.2-4.6,8-4.5c1.4,0.1,2.8,0.5,4.1,1.1
		c0.9,0.5,1.8,1,2.7,1.8c1,0.8,1.8,1.7,2.4,2.8v0c0,0,0,0,0,0.1l0.4-1.2v0c-2-5.3-5.9-7.8-11.6-7.5c-0.6,0-1.1-0.1-1.7-0.3
		c-1.5-0.8-2-2.6-1.2-4c3.7-8,6.3-16.5,7.8-25.2c0.2-1.4,0.3-2.9,0.3-4.3c0-0.4,0-0.7,0.1-0.9c0-0.1,0.1-0.1,0.1-0.2
		c0.2-0.3,0.6-0.4,1.2-0.5c1.9-0.2,3.7-0.5,5.5-1c5.3-1.4,10.2-3.8,14.8-7c0.2-0.2,0.5-0.3,0.7-0.5c0.3-0.3,0.6-0.6,0.3-1.1
		c-0.4-0.6-0.9-0.5-1.3-0.2c0.4-0.2,0.9-0.3,1.2,0.2c0.1,0.2,0.2,0.4,0.1,0.6c0-0.2,0-0.3-0.1-0.5c-0.3-0.6-0.8-0.5-1.2-0.2
		c-0.1,0.1-0.3,0.2-0.4,0.2c-1.5,0.9-3.1,1.7-4.8,2.4c-7,3.1-14.7,4.5-22.4,4.1c-10-0.5-19-3.6-26.4-10.7l-0.4-0.4
		c-1.1-0.7-2-1.6-2.7-2.7l-0.4-0.4l0,0l-0.4-0.4c-3.1-3.3-5.7-7.1-7.6-11.3l-0.4-0.5L473,419c0,0-0.1,0-0.1-0.1c0,0-0.1-0.1-0.1-0.2
		l-0.1-0.1l-1.9-5.2l-0.2-0.5l0,0l0.2,0.5l1.9,5.2l0.1,0.1c0,0,0-0.1,0-0.1v-0.1h0v0.1c0,0,0,0.1,0,0.1l0,0.1c0,0,0-0.1,0-0.2h0
		l-1.9-5.2l-0.2-0.5c-2.6-7.7-2.5-16.1,0.2-23.8c0,0,0,0,0,0h0c0.1-0.3-0.1-0.9,0.4-0.9c0.1,0,0.2,0,0.2,0.1c0,0,0,0,0.1,0
		c0,0,0,0,0,0c0,0,0.1,0.1,0.1,0.1c0.1,0.2,0.2,0.5,0.3,0.7c3.2,5.6,6.7,11.1,11.3,15.8c0.9,0.9,1.8,1.8,2.8,2.7
		c6.8,6,14.7,10.2,22.9,14c4.2,1.9,8.5,3.6,12.9,4.7c1.5,0.4,3,0.7,4.6,0.9c0.5,0.1,1,0.2,1.5,0.1c1.2-0.2,2.2-0.2,3.2,0.1
		c1.4,0.4,2.6,1.3,3.6,2.5c0.4,0.5,0.8,1,1.2,1.5c1.2,1.6,2.5,3.2,3.9,4.6c0.1,0.1,0.3,0.3,0.4,0.4c0.3,0.3,0.6,0.6,1,0.9
		c2,1.8,4.1,3.4,6.4,4.7c0.2,0.1,0.5,0.3,0.6,0.4c1.2,0.9,1.2,1.9,0.7,3.3c-3.4,9.4-6.8,18.9-10.7,28.2c-0.2,0.6-0.5,1.2-0.7,1.8
		c-0.9,2.6-2.1,4.7-4.9,6c-4,2-6.3,5.7-8.4,9.6C522.8,495.9,522.4,500.6,522,505.3z M552.8,446.1c0.4-1.1,0.9-1.1,1.9-0.7
		c5.5,2.3,11.5,3.4,17.5,3.1c1.7-0.1,1.5,0.8,1.3,1.9c-1.2,8.3-3.5,16.2-6.1,24.1c-0.6,1.8-0.7,4.3-1.8,5.3c-1.1,1-3.2-0.8-4.9-1
		c-4.6-0.6-8.3,1-11.6,4c-0.8,0.8-1.3,1.1-2.2,0.1c-1.9-1.9-4.3-2.7-7.2-3l0,0C545.1,468.8,549.1,457.5,552.8,446.1L552.8,446.1z
		 M539.8,506.7L539.8,506.7c-0.2,0-0.5,0-0.8,0h0h-0.5c0.2,0,0.3,0,0.5,0C539.3,506.7,539.5,506.7,539.8,506.7L539.8,506.7
		c-0.2,0.1-0.5,0.1-0.8,0.1c-0.2,0-0.3,0-0.5,0c-0.8,0-1.5,0-2.2,0c-1,0-2.1,0-3.1,0v0h0h0c-0.9,0-1.9,0-2.8,0c0.9,0,1.9,0,2.8,0
		c-1.8,0-3.6-0.1-5.4,0c-0.1,0-0.2,0-0.3,0c-1.4,0-2.1-0.3-2-1.9c0.1-4.7,0.9-9.1,2.9-13.2c-2,4-2.8,8.5-2.9,13.2c0,1.7,0.6,2,2,1.9
		c0,0,0,0,0,0c-1.4,0-2-0.3-2-1.9c0.2-6.9,1.8-13.1,6.3-18.4c0.5-0.5,1-1,1.7-1.4c0.9-0.6,1.9-1.1,3-1.4c3.1-0.9,6.6-0.6,8.9,1.2
		c1,0.7,1.2,1.3,0.5,2.5c-3.2,5.5-5.3,11.3-5,17.9C540.8,506.1,540.5,506.5,539.8,506.7z M559.7,494.8c-0.1,0.2-0.2,0.5-0.3,0.8
		c-0.1,0.3-0.2,0.6-0.3,1c0,0.1-0.1,0.2-0.1,0.3c-0.1,0.4-0.2,0.8-0.3,1.3v0c-0.4,2.2-0.4,4.5-0.1,7c0,0.2,0,0.3,0,0.5
		c0,0.9-0.3,1.2-1.4,1.2l0,0c-0.3,0-0.6,0-0.9,0c-0.5,0-1.1,0-1.6,0c-1.3,0-2.5,0-3.8,0c-2.3,0-4.5-0.1-6.8,0c-0.8,0-1.2-0.3-1.2-1
		c0,0,0,0,0,0c0,0.7,0.4,1,1.2,1c2.3,0,4.5,0,6.8,0c-2.3,0-4.5-0.1-6.8,0c-0.8,0-1.2-0.2-1.2-1c0-0.1,0-0.2,0-0.3
		c1-7.5,3-14.6,7.9-20.6c3.9-4.8,12.8-3.7,15.8-1.2c0.5,0.4,0.7,0.8,0.7,1.1c0,0.1,0,0.1-0.1,0.2c-0.1,0.2-0.4,0.5-0.8,0.8
		c-1.6,1.2-2.9,2.6-4,4c1.1-1.4,2.4-2.8,4-4c0.4-0.3,0.7-0.6,0.8-0.8c-0.1,0.2-0.4,0.5-0.8,0.8c-1.8,1.4-3.3,3-4.5,4.7
		c0.2-0.2,0.3-0.5,0.5-0.7c-0.3,0.4-0.5,0.7-0.8,1.1c-0.7,1.1-1.4,2.3-1.8,3.5C559.8,494.5,559.7,494.7,559.7,494.8L559.7,494.8z
		 M628.4,396.9c-5.5,3.8-11.3,7-17.5,9.6c-1.5,0.6-2.3,0.5-3.3-1c-3.6-5.2-8.7-9.3-14.5-11.6c-1.8-0.9-3.9-1.2-5.9-0.9
		c0,0.1,0,0.2,0,0.3c0-0.1,0-0.2,0-0.3h0c-0.1,0.5,0.2,0.6,0.5,0.7c12.6,4.3,19.5,13.6,23,25.9c1.5,5.2,1.2,10.3,0.2,15.4
		c-2.4,11.9-7.2,23.1-11.6,34.2s-9.2,22.1-12.9,33.5c-0.8,2.5-1.2,3.4-2.4,3.8c1.2-0.3,1.6-1.2,2.4-3.8c3.7-11.4,8.5-22.3,12.9-33.5
		c4.4-11.2,9.2-22.3,11.6-34.2c1-5.1,1.3-10.3-0.2-15.4c-0.2-0.8-0.4-1.5-0.7-2.3c0.2,0.8,0.5,1.5,0.7,2.3
		c1.5,5.2,1.2,10.3,0.2,15.4c-2.3,11.9-7.2,23-11.6,34.2c-4.4,11.2-9.2,22.1-12.9,33.5c-0.8,2.5-1.2,3.5-2.4,3.8
		c-0.7,0.2-1.8,0.2-3.4,0.2c-5.5,0-11.1-0.1-16.7,0c-1.5,0-2-0.4-2.1-1.9c-0.1-4.6,0.4-9,3.2-13c0.5-0.8,1.1-1.4,1.7-2
		c0,0,0.1-0.1,0.2-0.1c0.2-0.2,0.5-0.4,0.7-0.6c1.4-1.2,3-1.9,4.7-2.1c2.7-0.3,5.6,0.7,8.3,3.2h0c0.4,0.5,0.8,0.9,1.1,1.5
		c0,0,0,0,0,0c-0.3-0.5-0.7-1-1.1-1.4c0,0,0,0,0,0c0.4,0.4,0.8,0.9,1.1,1.4c1-1.3,0.5-2.2-0.1-3c-2.2-3.2-5.2-5-9.1-4.7
		c-1.7,0.2-3.3-0.5-4.3-1.9c-0.5-0.6-0.7-0.9-0.3-1.7c4.3-8.5,6.8-17.6,8.4-26.9c0.3-1.7-0.5-3.9,0.6-4.8c0,0,0,0,0,0
		c0.4-0.4,1-0.6,1.6-0.7c0.5-0.1,1-0.1,1.6-0.2c0.6,0,1.1-0.1,1.7-0.2c6.1-1.2,11.6-4,16.7-7.5c0.2-0.1,0.4-0.2,0.5-0.4
		c0.3-0.2,0.4-0.5,0.2-0.9c-0.4-0.9-1.1-0.5-1.7-0.1c-5.5,3.3-11.7,5.4-18.1,6.2c-9.1,1.2-18,0.5-26.2-3.9
		c-13.1-6.9-21.1-17.9-24.6-32c-2.8-11.6,0.2-22.1,6.9-31.6c0.4-0.5,0.8-1.1,1.2-1.6c4.6-6.3,10.8-11.3,17.9-14.4
		c0.5-0.2,1.3-0.1,1.9-0.5c0.2-0.1,0.3-0.2,0.4-0.4c0.1-0.1,0.2-0.3,0.2-0.5c-4.9,0.6-8.9,2.6-12.9,5.1s-7.3,5.8-10.5,10
		c-0.7-3.1-1.3-5.6-1.8-8.2c-2-10.7-3-21.6-2.8-32.5c0-0.7,0.1-1.2,0.2-1.5c0.1-0.3,0.3-0.4,0.7-0.4c0.3,0,0.8,0,1.3,0.2
		c5.5,1.5,11,1.8,16.4,0c2.4-0.8,4.6-2,6.4-3.7c0.4-0.4,0.8-0.8,1.1-1.3c0.3-0.5,0.5-1.1,0.5-1.9c-6.4,5.9-14.1,6.2-21.7,4.8
		c-7.5-1.4-14.4-4.3-18-12.1c0,0,0-0.1,0-0.1c0,0,0-0.1,0-0.1c0.1,2.1,1,3.8,0.9,5.7c0,0.6-0.1,1.2-0.2,1.7
		c-0.1,0.4-0.1,0.7-0.2,1.1c-0.4,1.5-1.1,2.8-2.5,3.8c-2.6,1.9-5.5,1.1-6.9-1.8c-1-2.4-1.5-4.9-1.4-7.5c0-1.4,0-2.9-0.2-4.3
		c-0.5,1.3-1,2.6-1.2,3.9c0.3-1.3,0.7-2.6,1.2-3.9v0c-1.7,4.2-2.5,8.4-0.5,12.7h0c0.3,0.6,1,1.3,0.6,1.9c0.1-0.1,0.1-0.1,0.1-0.2
		c0,0.1-0.1,0.2-0.1,0.3c0,0,0,0,0,0c-0.5,0.6-1.3,0.1-2.1-0.1c-3.2-0.6-5.1-2.5-6.2-5.5c-1.3-3.7-1.3-7.4-0.9-11.2
		c-0.2,0.2-0.3,0.4-0.4,0.6c0-0.1,0.1-0.1,0.1-0.2c-0.1,0.2-0.2,0.3-0.3,0.5c0,0,0-0.1,0.1-0.1c-1.4,2.5-1.3,5.2-1,7.9
		c0.1,1.5,0.5,3,0.7,4.5c0,0,0,0,0,0c0,0,0,0,0,0c0,0,0,0-0.1,0c0,0,0,0,0,0.1c-3-0.9-5.2-4.6-5.1-8.6c0-0.4,0-0.8,0.1-1.2
		c0.4-4,2.1-7.5,4.6-10.2c0,0,0.1-0.1,0.1-0.2c0.3-0.3,0.7-0.7,1-1c0.1-0.1,0.3-0.3,0.4-0.4c0.3-0.2,0.5-0.5,0.8-0.7
		c0.2-0.2,0.5-0.4,0.8-0.6c0.2-0.1,0.4-0.3,0.6-0.4c0.4-0.2,0.8-0.5,1.1-0.7c0.1,0,0.2-0.1,0.3-0.2c0.5-0.2,1-0.5,1.5-0.7
		c2.4-1,5-1.5,7.7-1.4c0.4,0,0.8,0,1.2,0.1c4.1,0.4,7.9,1.4,11.4,2.9c5.9,2.5,11.2,6.2,16.3,10.3c0.2,0.2,0.5,0.3,0.9,0.6v-0.1
		c0-1-0.5-1.6-0.8-2.2c-3-6.4-4-13.6-2.8-20.5c0.4-2.6,1.4-5.1,3.9-6.3c0.5-0.2,1-0.4,1.5-0.6c2.7-0.6,4.6,0.8,6.2,2.5
		c0.5,0.5,0.9,1.1,1.4,1.6c2.4,2.9,3.5,6.4,4.5,9.9c0.6,1.9,1.1,3.9,1.6,5.9c0-0.1,0-0.2,0-0.4c0,0,0-0.1,0-0.1
		c-0.5-5.7-1.7-11.2-4.6-16.3c-0.7-1.3-1.7-2.4-2.7-3.4c-3-2.8-6.8-3-9.7-0.9c-0.7,0.5-1.3,1.1-1.8,1.9c-1.8,2.4-2.7,5.2-2.8,8.2
		c0,0.6,0,1.2,0,1.8c0-0.6,0-1.2,0-1.8c0.1-3,1.1-5.8,2.8-8.2c0.5-0.8,1.2-1.4,1.8-1.9c-0.7,0.5-1.3,1.1-1.9,1.9
		c-1.8,2.4-2.7,5.2-2.8,8.2c-0.2,4.8,0.3,9.5,1.6,14.1c0,0,0,0,0.1,0c0,0,0,0.1,0,0.1c0,0,0,0-0.1,0c0,0,0,0.1,0,0.1
		c-1.8-1.2-3.2-2.1-4.5-3c-0.6-0.4-0.5-1-0.5-1.6c0.8-8.1,1.6-16.1,2.4-24.2c1.2-12.6,1.9-25.1,0.2-37.7c-0.4-2.9-1.3-5.7-2.8-8.2
		c-2-3.4-4.8-4.8-8.8-4.4c-6.3,0.7-11.3,4.2-16.3,7.7c-1,0.7-1.8,1.6-2.8,2.3c-0.6,0.4-1.4,0.8-2.3,1c5.1-6.7,9.6-13.4,14.1-20.1
		c8.5-12.6,15.9-25.8,20.2-40.5c0.3-0.9,0.7-1.8,1.3-2.5c3.4-4.4,6.3-9.2,8.6-14.2c0.2-0.9,1.1-1.4,2-1.4h0.2c2,0,4.1-0.5,5.9-1.4
		c1-0.4,1.7-1.3,1.3-2.5c-0.1-0.3-0.2-0.5-0.4-0.6c-0.5-0.3-1.3,0-1.8,0.2c-1.5,0.5-3,0.8-4.3,0.8c-4.1,0-7.4-2.1-10.4-5.7
		c-0.4-0.5-0.7-1.5-1.4-1.4c-0.1,0-0.2,0-0.3,0.1c-0.4,0.3-0.5,0.6-0.5,1.1c0-0.1,0-0.1,0-0.2c0,0.1,0,0.2,0.1,0.3
		c0,0.1,0,0.1,0,0.2c0,0,0,0.1,0,0.1c0,0,0,0.1,0,0.1c0,0.1,0,0.1,0.1,0.2s0,0.1,0.1,0.2c0,0.1,0.1,0.3,0.2,0.4
		c0.1,0.3,0.2,0.7,0.4,1c1,2.2,2.6,4,4.7,5.2c0.7,0.4,1.1,0.7,1.2,1.1c0.1,0.4,0,1-0.4,1.7c-4.8,9.9-11.5,18.3-19.7,25.5
		c-13.9,12.4-29.3,22.3-46.6,29.2c-1.9,0.8-3.8,1.5-5.7,2.1c1.9-0.7,3.8-1.4,5.7-2.1c17.3-6.8,32.7-16.8,46.6-29.2
		c8.2-7.3,14.9-15.6,19.7-25.5c0.3-0.7,0.5-1.2,0.4-1.6c0.1,0.4,0,1-0.4,1.7c-4.8,9.9-11.5,18.3-19.7,25.5
		c-13.9,12.4-29.3,22.4-46.6,29.2c-15.1,6-30.8,9.7-47,9.8c-2.3,0-4.7-0.1-7-0.2c-20.5-1.2-39.2-7.4-54.5-21.7
		c-12.9-12.1-21.2-26.8-23.4-44.5c-3.5-26.9,1.8-52.1,16.2-75.2c9.5-15.2,22.1-27.1,37.2-36.6c7.6-4.8,15.2-9.6,23.5-13.3
		c2.6-1.2,5.3-2.2,8-3.1c6.2-2.2,12.6-3.8,19.1-5c0.2,0,0.5-0.1,0.7-0.1c0.2,0,0.3,0,0.5-0.1c3-0.5,6-0.9,9.1-1.3
		c1.8-0.2,3.6-0.4,5.4-0.5c14.3-1.2,28.7-0.6,42.9,1.7c24.5,4,44.6,15.8,60.8,34.4c7.8,9,12.4,19.8,16.2,30.9c1,3,1.9,6,2.7,9
		c2.5,9.4,3.8,19,3.6,28.7c0.1-4.8-0.2-9.5-0.8-14.2c0.6,4.8,0.9,9.5,0.8,14.3c-0.1,5.8-0.7,11.7-1.9,17.6c-1.2,6-4,11.4-6.4,17
		c-3.8,9.2-8.5,18-12.6,27c-1.8,4-3.4,8.2-4.8,12.3c-2.7,7.8-4.6,15.9-5.9,24.1c-1.8,10.9-3.4,21.9-2.9,32.9c0.2,5,0.6,9.9,1.2,14.9
		c-0.6-5-0.9-9.9-1.2-15c-0.5-11.1,1.1-22,2.9-32.9c1.3-8.2,3.3-16.2,5.9-24.1c-2.7,7.9-4.7,15.9-6,24.1
		c-1.8,10.9-3.4,21.9-2.9,32.9c0.9,20,4.1,39.5,13,57.8c2.6,5.3,5.6,10.4,9.1,15c3.5,4.6,7.5,8.9,12.1,12.7
		c5.8,4.8,11.8,8.8,19.4,9.9c9.3,1.3,18.2-0.4,26.7-4.1c8.9-3.9,16.5-9.5,22.4-17.1c0.8-1.1,1.7-2.2,2.4-3.4
		c0.1-0.2,0.2-0.3,0.4-0.5c0.1-0.1,0.2-0.3,0.4-0.5c0.5,3.4,0.6,6.9,0.4,10.4l0,0v-0.1c-1.3,20.3-9.3,36.7-24.2,49.2
		C633.3,393.4,630.9,395.2,628.4,396.9z M659.7,342.5L659.7,342.5C659.7,342.5,659.7,342.5,659.7,342.5c0.1-1,0.1-1.8,0.1-2.7
		C659.8,340.7,659.8,341.6,659.7,342.5z"/>
	<path class="st1" d="M485.6,506.7c-0.4,0-0.6,0-0.9-0.1C485,506.7,485.2,506.7,485.6,506.7c2.1,0,4.2,0,6.3,0c1.5,0,3,0,4.5,0
		c-1.5,0-3,0-4.5,0C489.9,506.7,487.7,506.6,485.6,506.7z"/>
	<path class="st1" d="M501.7,240.3c1.1-0.7,1.9-1.6,2.8-2.3c0,0,0,0,0,0C503.6,238.7,502.8,239.6,501.7,240.3z"/>
	<polygon class="st1" points="496.4,314.9 496.4,314.9 496.5,314.8 496.5,314.8 496.4,314.9 	"/>
	<path class="st1" d="M550.7,158.3c-1.5,0.5-3,0.8-4.3,0.8C547.7,159.1,549.1,158.9,550.7,158.3c0.6-0.2,1.3-0.5,1.8-0.2
		C552,157.8,551.2,158.1,550.7,158.3z"/>
	<path class="st1" d="M455.3,224.4c-4.3,1.1-8.7,2-13.1,2.6C446.6,226.4,451,225.5,455.3,224.4z"/>
	<path class="st1" d="M468.1,220.5c-4.2,1.5-8.5,2.8-12.8,3.9C459.6,223.3,463.9,222,468.1,220.5z"/>
	<path class="st1" d="M511.4,445.3L511.4,445.3c-10-0.5-19-3.6-26.4-10.6l-0.4-0.4c-1.1-0.7-2-1.6-2.7-2.7l-0.4-0.4v0l-0.4-0.4
		c-3.1-3.3-5.7-7.1-7.6-11.3l-0.4-0.5h-0.1c0,0-0.1,0-0.1,0l0.1,0.1l0.4,0.5c1.9,4.1,4.5,8,7.6,11.3l0.4,0.4l0,0l0.4,0.4
		c0.7,1.1,1.6,2,2.7,2.7l0.4,0.4C492.3,441.8,501.3,444.8,511.4,445.3c7.6,0.4,15.3-1,22.3-4.1C526.7,444.3,519,445.7,511.4,445.3z"
		/>
	<path class="st1" d="M442.6,317.1L442.6,317.1c-0.6,1.7-1.2,3.4-1.4,5.1C441.5,320.5,442,318.8,442.6,317.1z"/>
	<path class="st1" d="M441,324.6L441,324.6c0-0.8,0.1-1.6,0.2-2.4C441.1,322.9,441,323.8,441,324.6z"/>
	<path class="st1" d="M452.6,318.4c1,2.4,1.5,4.4,1.3,6.7c-0.1,0.6-0.2,1.2-0.3,1.8c0.2-0.6,0.3-1.2,0.3-1.8
		C454.1,322.8,453.6,320.8,452.6,318.4C452.6,318.4,452.6,318.4,452.6,318.4z"/>
	<path class="st1" d="M453.6,326.9c-0.1,0.5-0.3,0.9-0.5,1.4C453.3,327.8,453.5,327.3,453.6,326.9z"/>
	<path class="st1" d="M432.9,328.6C432.9,328.6,432.9,328.6,432.9,328.6c-0.7-4.7-2-9.1,0.7-13.3h0
		C430.9,319.4,432.2,323.8,432.9,328.6z"/>
	<path class="st1" d="M557.3,506.7h-0.9C556.7,506.7,557,506.7,557.3,506.7c1.1,0.1,1.5-0.2,1.4-1.2
		C558.8,506.5,558.5,506.8,557.3,506.7z"/>
	<path class="st1" d="M496.8,506.7c0.5,0,1,0,1.4,0c0.5,0,0.9,0,1.1-0.1c-0.3,0.1-0.6,0.1-1.1,0.1
		C497.8,506.7,497.3,506.7,496.8,506.7z"/>
	<path class="st1" d="M472.9,418.7L472.9,418.7c0,0,0,0.1,0.1,0.1C472.9,418.8,472.9,418.8,472.9,418.7L472.9,418.7z"/>
	<path class="st1" d="M502.2,108.3L502.2,108.3L502.2,108.3c0.1-2.3-0.4-4.6-1.5-6.7c-2-3.8-6.5-4.2-8.9-0.7
		c-0.1,0.1-0.2,0.3-0.2,0.4c-0.1,0.2-0.2,0.3-0.3,0.5c-0.1,0.1-0.2,0.3-0.2,0.5c-0.1,0.1-0.2,0.3-0.2,0.4c-0.1,0.3-0.3,0.6-0.4,0.9
		c-0.6,1.3-1,2.7-1.2,4.1c-0.5,2.7-0.3,5.5,0.4,8.4c0.5,2.3,2.4,4,4.7,4.3c1.9,0.3,3.4-0.4,4.6-1.6c-1.2,1.2-2.7,1.8-4.6,1.5
		c-0.5-0.1-1-0.2-1.5-0.4c0.5,0.2,0.9,0.3,1.5,0.4c1.9,0.3,3.4-0.3,4.6-1.5c0.1-0.1,0.3-0.3,0.4-0.4c0.1-0.1,0.1-0.1,0.2-0.2
		c0.1-0.1,0.2-0.3,0.3-0.4c0.1-0.1,0.2-0.2,0.2-0.3C501.7,114.8,502.3,111.9,502.2,108.3L502.2,108.3z"/>
	<path class="st1" d="M499.9,117.5C499.9,117.5,499.9,117.5,499.9,117.5c-0.1,0.1-0.1,0.2-0.2,0.3
		C499.7,117.7,499.8,117.6,499.9,117.5z"/>
	<path class="st1" d="M508.6,92.5L508.6,92.5c-0.2-1.3-0.8-2.5-1.6-3.6c-2.6-3.6-6.7-5.7-11.1-5.8v0c-3.5,0-6.2,0.5-8.7,1.8
		c-0.4,0.2-0.8,0.5-1,1c0,0.1-0.1,0.3-0.1,0.4c0-0.2,0-0.3,0.1-0.4c-0.1,0.3-0.1,0.6,0,1c0.4,0.9,1.1,1,2,0.8
		c0.3-0.1,0.7-0.1,1.1-0.2c6.9-2,12.5-0.4,16.7,5.6c0.1,0.2,0.2,0.4,0.4,0.5c0.5,0.4,0.9,1.1,1.6,0.7c0.1-0.1,0.3-0.2,0.3-0.4
		c0.1-0.1,0.2-0.3,0.2-0.4C508.7,93.1,508.7,92.8,508.6,92.5L508.6,92.5z"/>
	<path class="st1" d="M403.2,175.9L403.2,175.9c-1.4-2.8-4.8-4.3-7.3-3.3c-0.1,0.1-0.3,0.1-0.4,0.2c-2.1,1.3-3.1,4.7-2,7.9
		c0,0,0,0,0,0c0.3-0.6,0.6-1.2,0.8-1.7c1.3-2.3,2.3-2.9,3.9-2.5c-0.4-0.1-0.7-0.1-1-0.1c0.3,0,0.7,0,1,0.1c0.1,0,0.3,0.1,0.4,0.1
		c0.2,0.1,0.3,0.1,0.5,0.2c1.5,0.8,2,2.3,1.6,5.2c0.1-0.6,0.1-1.2,0.1-1.7c0,0.8-0.1,1.8-0.4,3c1.1-0.7,1.9-1.5,2.5-2.5
		c0.2-0.3,0.3-0.5,0.4-0.8c0.5-1.2,0.5-2.5,0.1-3.7C403.3,176.3,403.3,176.1,403.2,175.9z M400.9,180.3c0-0.2,0-0.4,0-0.6
		C400.9,179.9,400.9,180.1,400.9,180.3z"/>
	<path class="st1" d="M395.4,172.8c-2.2,1.3-3.1,4.7-2,8C392.3,177.5,393.3,174.1,395.4,172.8z"/>
	<path class="st1" d="M403.2,175.8c-1.4-2.8-4.7-4.4-7.3-3.3C398.3,171.5,401.8,173.1,403.2,175.8z"/>
</g>
</svg>
